<svg xmlns="http://www.w3.org/2000/svg" xmlns:xlink="http://www.w3.org/1999/xlink" width="323.9" height="1644.329" viewBox="0 0 323.9 1644.329"><defs><clipPath id="a"><rect width="323.9" height="1644.329" transform="translate(0 0.001)" fill="none"/></clipPath></defs><g transform="translate(0 -0.001)"><g clip-path="url(#a)"><path d="M26.719,1644.08c0-16.708-11.462-30.253-25.6-30.253V30.5c14.139,0,25.6-13.544,25.6-30.252h266.8c0,16.708,11.463,30.252,25.6,30.252V1613.827c-14.139,0-25.6,13.545-25.6,30.253Z" fill="#141414"/><path d="M293.769,1644.33H26.469v-.25a34.591,34.591,0,0,0-2-11.691,30.709,30.709,0,0,0-5.442-9.539,25.5,25.5,0,0,0-8.058-6.421,21.859,21.859,0,0,0-9.853-2.351H.869V30.253h.25A21.862,21.862,0,0,0,10.972,27.9a25.494,25.494,0,0,0,8.058-6.421,30.7,30.7,0,0,0,5.442-9.539,34.6,34.6,0,0,0,2-11.691V0h267.3v.25a34.586,34.586,0,0,0,2,11.691,30.7,30.7,0,0,0,5.442,9.539,25.5,25.5,0,0,0,8.058,6.421,21.859,21.859,0,0,0,9.852,2.351h.25V1614.077h-.25a21.862,21.862,0,0,0-9.853,2.351,25.5,25.5,0,0,0-8.058,6.421,30.705,30.705,0,0,0-5.442,9.539,34.6,34.6,0,0,0-2,11.691Zm-266.8-.5h266.3a35.053,35.053,0,0,1,2.026-11.61,31.2,31.2,0,0,1,5.531-9.693,25.99,25.99,0,0,1,8.216-6.546,22.365,22.365,0,0,1,9.827-2.4V30.752a22.366,22.366,0,0,1-9.826-2.4,26,26,0,0,1-8.216-6.545,31.2,31.2,0,0,1-5.531-9.693A35.047,35.047,0,0,1,293.27.5H26.968a35.052,35.052,0,0,1-2.026,11.61A31.2,31.2,0,0,1,19.412,21.8,25.993,25.993,0,0,1,11.2,28.349a22.368,22.368,0,0,1-9.827,2.4V1613.578a22.364,22.364,0,0,1,9.826,2.4,25.994,25.994,0,0,1,8.216,6.546,31.2,31.2,0,0,1,5.531,9.693A35.053,35.053,0,0,1,26.968,1643.83Z" fill="#c2ac6e"/><path d="M27.993,1643.662v-.25a34.085,34.085,0,0,0-2.03-11.646,30.511,30.511,0,0,0-5.5-9.5,25.712,25.712,0,0,0-8.139-6.393,22.327,22.327,0,0,0-9.947-2.34H2.086v-.25L0,33.906H.25a22.34,22.34,0,0,0,9.955-2.363,25.727,25.727,0,0,0,8.134-6.419A30.542,30.542,0,0,0,23.825,15.6a34.108,34.108,0,0,0,2-11.663v-.25h.25l269.83-.479v.25a34.084,34.084,0,0,0,2.03,11.646,30.509,30.509,0,0,0,5.5,9.5,25.705,25.705,0,0,0,8.138,6.392,22.325,22.325,0,0,0,9.946,2.34h.291v.25l2.086,1579.38h-.25a22.335,22.335,0,0,0-9.955,2.363,25.728,25.728,0,0,0-8.134,6.419,30.54,30.54,0,0,0-5.485,9.523,34.1,34.1,0,0,0-2,11.662v.25h-.25ZM2.586,1613.036a22.829,22.829,0,0,1,9.958,2.391,26.206,26.206,0,0,1,8.3,6.516,31.008,31.008,0,0,1,5.592,9.653,34.545,34.545,0,0,1,2.059,11.566l269.082-.478a34.565,34.565,0,0,1,2.031-11.583,31.035,31.035,0,0,1,5.575-9.678,26.222,26.222,0,0,1,8.292-6.543,22.837,22.837,0,0,1,9.926-2.413L321.313,33.834a22.825,22.825,0,0,1-9.958-2.391,26.2,26.2,0,0,1-8.3-6.515,31.009,31.009,0,0,1-5.592-9.653A34.551,34.551,0,0,1,295.408,3.71L26.327,4.188A34.567,34.567,0,0,1,24.3,15.771a31.033,31.033,0,0,1-5.576,9.678,26.216,26.216,0,0,1-8.293,6.542A22.842,22.842,0,0,1,.5,34.4Z" fill="#c2ac6e"/></g></g></svg>