<svg xmlns="http://www.w3.org/2000/svg" xmlns:xlink="http://www.w3.org/1999/xlink" width="1289.136" height="1589.597" viewBox="0 0 1289.136 1589.597"><defs><clipPath id="a"><rect width="1289.136" height="1589.597" transform="translate(0 0.003)" fill="none"/></clipPath><linearGradient id="b" x1="-0.017" y1="1.01" x2="-0.016" y2="1.01" gradientUnits="objectBoundingBox"><stop offset="0" stop-color="#cba65d"/><stop offset="0.76" stop-color="#cda65f"/><stop offset="1" stop-color="#d1a663"/></linearGradient><linearGradient id="c" x1="0" y1="1" x2="0" y2="1" xlink:href="#b"/></defs><g transform="translate(0 -0.003)" clip-path="url(#a)"><path d="M1167.488,1573.078H121.647A100.355,100.355,0,0,0,21.291,1472.722V116.881A100.355,100.355,0,0,0,121.647,16.525H1167.488a100.355,100.355,0,0,0,100.356,100.356V1472.722a100.356,100.356,0,0,0-100.356,100.356" fill="#141414"/><path d="M1167.488,1573.078v.5H121.147v-.5a99.984,99.984,0,0,0-99.856-99.856h-.5V116.381h.5a99.983,99.983,0,0,0,99.856-99.856v-.5H1167.988v.5a99.984,99.984,0,0,0,99.856,99.856h.5V1473.222h-.5a99.984,99.984,0,0,0-99.856,99.856v.5h-.5v-.5h-.5a100.856,100.856,0,0,1,100.856-100.856v.5h-.5V116.881h.5v.5A100.856,100.856,0,0,1,1166.988,16.525h.5v.5H121.647v-.5h.5A100.854,100.854,0,0,1,21.291,117.381v-.5h.5V1472.722h-.5v-.5a100.854,100.854,0,0,1,100.856,100.856h-.5v-.5H1167.488v.5h0Z" fill="url(#b)"/><path d="M1190.838,1556.87l.015.5-1045.86,31.715-.015-.5a99.857,99.857,0,0,0-99.754-96.83q-1.536,0-3.083.047l-.5.015L.515,135.6l.5-.016a99.855,99.855,0,0,0,96.83-99.752q0-1.536-.047-3.083l-.015-.5L1144.142.518l.016.5a99.856,99.856,0,0,0,99.752,96.83q1.538,0,3.084-.047l.5-.016L1288.621,1454l-.5.015a99.856,99.856,0,0,0-96.83,99.754q0,1.536.047,3.083l.015.5-.5.015-.015-.5-.5.016q-.048-1.563-.047-3.114a100.858,100.858,0,0,1,97.8-100.754l.015.5-.5.015L1246.51,98.316l.5-.016.015.5q-1.563.048-3.115.048a100.858,100.858,0,0,1-100.752-97.8l.5-.015.015.5L98.313,33.233l-.015-.5.5-.015q.047,1.563.047,3.114a100.856,100.856,0,0,1-97.8,100.752l-.015-.5.5-.015,41.1,1355.218-.5.015-.015-.5q1.562-.047,3.113-.047a100.859,100.859,0,0,1,100.754,97.8l-.5.015-.015-.5,1045.36-31.7.015.5-.5.016Z" fill="url(#c)"/></g></svg>