<svg xmlns="http://www.w3.org/2000/svg" xmlns:xlink="http://www.w3.org/1999/xlink" width="948.406" height="889.182" viewBox="0 0 948.406 889.182"><defs><clipPath id="a"><rect width="948.406" height="889.182" fill="none"/></clipPath><linearGradient id="b" x1="-0.012" y1="1.014" x2="-0.011" y2="1.014" gradientUnits="objectBoundingBox"><stop offset="0" stop-color="#cba65d"/><stop offset="0.76" stop-color="#cda65f"/><stop offset="1" stop-color="#d1a663"/></linearGradient><linearGradient id="c" x1="0" y1="1" x2="0" y2="1" xlink:href="#b"/></defs><g transform="translate(0 -0.003)"><g transform="translate(0 0.003)" clip-path="url(#a)"><path d="M866.443,881.128H89.864a74.518,74.518,0,0,0-74.518-74.518V91.134A74.518,74.518,0,0,0,89.864,16.616H866.443a74.518,74.518,0,0,0,74.518,74.518V806.609a74.519,74.519,0,0,0-74.518,74.518" transform="translate(-3.951 -4.28)" fill="#141414"/><path d="M866.315,881v.371H89.364V881a74.241,74.241,0,0,0-74.147-74.147h-.371V90.634h.371A74.242,74.242,0,0,0,89.364,16.487v-.371H866.686v.371a74.243,74.243,0,0,0,74.147,74.147h.371V806.852h-.371A74.242,74.242,0,0,0,866.686,881v.371h-.371V881h-.371a74.889,74.889,0,0,1,74.89-74.89v.371h-.371V91.006h.371v.371a74.89,74.89,0,0,1-74.89-74.89h.371v.371H89.736v-.371h.371a74.89,74.89,0,0,1-74.89,74.89v-.371h.371V806.48h-.371v-.371A74.889,74.889,0,0,1,90.107,881h-.371v-.371H866.315V881h0Z" transform="translate(-3.822 -4.151)" fill="url(#b)"/><path d="M875.548,865.015l.012.371L98.967,888.936l-.011-.371a74.148,74.148,0,0,0-74.071-71.9q-1.142,0-2.29.035l-.371.011L.515,100.822l.371-.012a74.146,74.146,0,0,0,71.9-74.07q0-1.141-.034-2.289l-.012-.371L849.7.518l.011.371a74.149,74.149,0,0,0,74.072,71.9q1.139,0,2.288-.035l.371-.012,21.709,715.888-.371.011a74.148,74.148,0,0,0-71.9,74.071q0,1.141.035,2.289l.011.371-.371.011-.012-.371-.371.012q-.036-1.161-.036-2.312a74.891,74.891,0,0,1,72.62-74.814l.011.371-.371.011L925.716,73.138l.371-.012.012.371q-1.159.036-2.311.036A74.892,74.892,0,0,1,848.973.912L849.345.9l.011.371L73.134,24.81l-.012-.371.371-.011q.036,1.161.035,2.312A74.889,74.889,0,0,1,.909,101.552L.9,101.181l.371-.011L22.955,816.317l-.371.011-.011-.371q1.159-.035,2.312-.035A74.89,74.89,0,0,1,99.7,888.542l-.371.011-.011-.371,776.222-23.539.011.371-.371.012Z" transform="translate(-0.133 -0.136)" fill="url(#c)"/></g></g></svg>