<svg xmlns="http://www.w3.org/2000/svg" width="245" height="245" viewBox="0 0 245 245"><g transform="translate(1537 -760)"><g transform="translate(-129 -149)"><circle cx="122.5" cy="122.5" r="122.5" transform="translate(-1408 909)" fill="#fff"/><path d="M6208.3,1410.6a4.468,4.468,0,0,1,0,6.4l-20,19a4.467,4.467,0,0,1-6.4,0l-21.6-24.8-18.6,25.8a4.467,4.467,0,0,1-6.4,0l-20-18a4.468,4.468,0,0,1,0-6.4l23.8-22.6-25.8-21.6a4.468,4.468,0,0,1,0-6.4l17-19a4.467,4.467,0,0,1,6.4,0l23.6,25.8,22.6-27.8a4.467,4.467,0,0,1,6.4,0l20,20a4.468,4.468,0,0,1,0,6.4l-27.8,22.6Z" transform="translate(-7446.95 -357.65)" fill="#e10f0f"/></g></g></svg>