<svg xmlns="http://www.w3.org/2000/svg" xmlns:xlink="http://www.w3.org/1999/xlink" width="26" height="25.192" viewBox="0 0 26 25.192"><defs><linearGradient id="a" x1="0.5" x2="0.5" y2="1" gradientUnits="objectBoundingBox"><stop offset="0" stop-color="#f2dfb5"/><stop offset="1" stop-color="#dfb66e"/></linearGradient><clipPath id="b"><rect width="26" height="25.192" fill="url(#a)"/></clipPath></defs><g transform="translate(0 0)" clip-path="url(#b)"><path d="M5.8,0V1.347H4.022A4.027,4.027,0,0,0,0,5.37v15.8a4.027,4.027,0,0,0,4.022,4.022H21.978A4.027,4.027,0,0,0,26,21.17V5.37a4.027,4.027,0,0,0-4.022-4.022H20.2V0H18.6V1.347H13.8V0H12.2V1.347H7.4V0ZM20.2,4.3V2.947h1.778A2.425,2.425,0,0,1,24.4,5.37v15.8a2.425,2.425,0,0,1-2.422,2.422H4.022A2.425,2.425,0,0,1,1.6,21.17V5.37A2.425,2.425,0,0,1,4.022,2.947H5.8V4.3H7.4V2.947H18.6V4.3ZM6.486,10.766H19.454v1.6H6.486Zm0,7.031h9.336V16.2H6.486Z" transform="translate(0 0)" fill="url(#a)"/></g></svg>