<svg xmlns="http://www.w3.org/2000/svg" xmlns:xlink="http://www.w3.org/1999/xlink" width="99.432" height="99.425" viewBox="0 0 99.432 99.425"><defs><clipPath id="a"><rect width="99.432" height="99.425" fill="#a2a1a0"/></clipPath></defs><g transform="translate(0 0)" clip-path="url(#a)"><path d="M72.362,9.631A13.446,13.446,0,0,1,62.039,5.354a16.87,16.87,0,0,0-23.844-.81q-.418.391-.81.81A13.525,13.525,0,0,1,27.062,9.629,16.873,16.873,0,0,0,9.627,25.922q-.019.572,0,1.143A13.51,13.51,0,0,1,5.352,37.387a16.872,16.872,0,0,0-.807,23.847q.39.417.807.807A13.51,13.51,0,0,1,9.627,72.362a16.831,16.831,0,0,0,9.9,15.942l1.394-3.067A13.481,13.481,0,0,1,13,72.477a16.877,16.877,0,0,0-5.342-12.9,13.5,13.5,0,0,1-.647-19.083q.312-.334.647-.647A16.875,16.875,0,0,0,13,26.949,13.5,13.5,0,0,1,26.035,13q.458-.015.915,0a16.882,16.882,0,0,0,12.9-5.344,13.5,13.5,0,0,1,19.728,0A16.852,16.852,0,0,0,72.475,13,13.482,13.482,0,0,1,85.237,20.92l3.069-1.392a16.838,16.838,0,0,0-15.943-9.9" transform="translate(0 -0.001)" fill="#a2a1a0"/><path d="M242.227,185.662l-2.619,2.123a13.535,13.535,0,0,1-1.289,18.346,16.877,16.877,0,0,0-5.342,12.9,13.5,13.5,0,0,1-13.04,13.951q-.457.015-.914,0a16.873,16.873,0,0,0-12.9,5.344,13.537,13.537,0,0,1-18.348,1.287l-2.122,2.619a16.917,16.917,0,0,0,22.932-1.608,13.468,13.468,0,0,1,10.323-4.275,16.873,16.873,0,0,0,17.435-16.293q.019-.571,0-1.142a13.51,13.51,0,0,1,4.275-10.322,16.92,16.92,0,0,0,1.606-22.932" transform="translate(-146.549 -146.553)" fill="#a2a1a0"/><path d="M180.421,107.345a7.113,7.113,0,0,0-12.059,0l-5.711,9.132-3.557-3.557a1.685,1.685,0,0,0-2.383,0L112.9,156.732a1.685,1.685,0,0,0,0,2.383l3.551,3.564-9.137,5.711a7.106,7.106,0,1,0,9.792,9.794l5.718-9.132,3.557,3.557a1.685,1.685,0,0,0,2.383,0L172.575,128.8a1.685,1.685,0,0,0,0-2.383l-3.551-3.564,9.137-5.711a7.106,7.106,0,0,0,2.26-9.792M114.257,176.4a3.736,3.736,0,1,1-5.153-5.153l9.8-6.122,1.475,1.475Zm13.313-7.368-11.1-11.1L157.9,116.5,169,127.6Zm49.965-55.91a3.737,3.737,0,0,1-1.166,1.166l-9.8,6.122-1.475-1.475,6.117-9.8a3.736,3.736,0,0,1,6.319,3.987" transform="translate(-82.071 -82.097)" fill="#a2a1a0"/><rect width="3.37" height="22.64" transform="translate(31.669 34.053) rotate(-45)" fill="#a2a1a0"/><rect width="3.37" height="16.681" transform="translate(44.307 29.84) rotate(-45)" fill="#a2a1a0"/><rect width="3.37" height="16.681" transform="translate(27.456 46.691) rotate(-45)" fill="#a2a1a0"/><rect width="3.37" height="9.533" transform="translate(24.084 60.171) rotate(-45)" fill="#a2a1a0"/><rect width="3.37" height="9.533" transform="translate(57.787 26.465) rotate(-45)" fill="#a2a1a0"/></g></svg>