<svg xmlns="http://www.w3.org/2000/svg" xmlns:xlink="http://www.w3.org/1999/xlink" width="122.857" height="109.149" viewBox="0 0 122.857 109.149"><defs><clipPath id="a"><path d="M.011,0h0l0,0V0m.01.008C-.03.008.03,0,.014,0h0L.032.008H.022m.01,0A.458.458,0,0,1,.194.05C.121.031.061.018.032.008" transform="translate(0 0)" fill="#e7c78c"/></clipPath><clipPath id="b"><path d="M0,0A1.272,1.272,0,0,1,.329.123,1.531,1.531,0,0,0,0,0" transform="translate(0 0)" fill="#e7c78c"/></clipPath><clipPath id="c"><path d="M.042,0,.021.01.042,0M.021.01,0,.016.021.01" transform="translate(0 0)" fill="#e7c78c"/></clipPath><clipPath id="d"><path d="M.29,0A2,2,0,0,1,0,.146,2.515,2.515,0,0,0,.29,0" transform="translate(0 0)" fill="#e7c78c"/></clipPath><clipPath id="e"><path d="M0,0,.039.018.063.031,0,0M.141.081.112.06.063.031a.434.434,0,0,1,.1.06Z" transform="translate(0 0)" fill="#e7c78c"/></clipPath><clipPath id="f"><path d="M0,.018C-.009.013.041.005.072,0,.051,0,.017.018,0,.018H0" transform="translate(0 0)" fill="#e7c78c"/></clipPath><clipPath id="g"><path d="M0,0,0,0,.624.347,0,0M1.49.825c-.021-.01.016.01.07.039L1.49.825m.295.162h0M.624.347c.412.227.689.381.866.478.016.01.057.034.144.081L1.56.864l.076.042v0L1.641.9,1.647.892,1.66.874,1.683.845,1.73.8,1.806.723c.044-.039.078-.052.1-.044.042.008.042.1.013.237l-.026.117,0,.008v.008Z" transform="translate(0 0)" fill="#e7c78c"/></clipPath><clipPath id="h"><path d="M.1,0C.073.031.044.057.018.084ZM.018.084,0,.1.018.084" transform="translate(0 0)" fill="#e7c78c"/></clipPath><clipPath id="i"><path d="M.733,0,.72.016C.608.141.506.258.394.368.509.251.621.128.733,0M.394.368.373.389.363.4.394.368M.373.389C.517.256.535.245.35.415.331.431.321.446.3.464L.245.514.373.389M.311.446l-.1.1L.245.514C.164.59.084.66,0,.725.141.6.235.517.311.446" transform="translate(0 0)" fill="#e7c78c"/></clipPath><clipPath id="j"><path d="M22.17,74.2c-3.032-.081-7.591-.316-7.8-.678-.645-1.067-2.881-2.356-10.853-3.643-1.952-.211-2.656-.224-3.309-.553a1,1,0,0,0-.112-.05l-.008,0-.086.1c.245-.295.488-.611.72-.942.018-.042.073.023.18.052a3.252,3.252,0,0,0,.723.2l3.953.3q4.325.3,8.622.6c5.712.363,11.367.608,16.993.618,11.234.013,22.4-.976,33.171-4.149a66.357,66.357,0,0,0,11.907-4.123A61.933,61.933,0,0,0,93.718,50.34c5.477-5.206,17.243-5.579,14.1-1.4-.021-.183-.078-.3-.415.094-1.344,1.7-3.137,4.107-5.258,6.38l-1,.942a.7.7,0,0,1-.535.17c-1,.971-1.884,1.84-2.714,2.654-11.928,9.5-26.538,14.7-42.247,16.753-3.361.284-6.714.418-9.913.59-4.736.339-10.769.825-15.388.838.681-1.13-10.459-1.981-8.178-3.165" transform="translate(0 -46.09)" fill="#e7c78c"/></clipPath><clipPath id="k"><path d="M.827,0,.819.008.827,0M.819.008.8.021A2.172,2.172,0,0,1,.418.35c.128-.1.248-.209.4-.342M.418.35A1.811,1.811,0,0,1,.125.538,3.47,3.47,0,0,0,.418.35m-.3.193L.125.538.115.545l0,0m0,0a.74.74,0,0,1-.1.06c.034-.021.07-.039.1-.06m-.1.06L0,.611.01.605" transform="translate(0 0)" fill="#e7c78c"/></clipPath><clipPath id="l"><path d="M.123,0,.084.018H.07A.179.179,0,0,0,.123,0M.07.018A.3.3,0,0,1,.008.031.447.447,0,0,1,.07.018M.008.031,0,.034l.008,0" transform="translate(0 0)" fill="#e7c78c"/></clipPath><clipPath id="m"><path d="M0,0,.037.008l.008,0L0,0M.044.01l0,0,0,0" transform="translate(0 0)" fill="#e7c78c"/></clipPath><clipPath id="n"><path d="M45.344,45.629a20.723,20.723,0,0,1-3.567-.671,146.955,146.955,0,0,1-16.52-8.329c.1-.188.488-.2.1-.545-1.273-.986-2.735-1.07-4-2.085l.084-.352-3.515-1.665c-2.017-1.37-3.972-2.808-5.879-4.287.123-.065.214-.144.042-.316a17.4,17.4,0,0,0-1.414-1.031c-.376-.256-.775-.522-1.179-.8-.53-.376-1.065-.754-1.6-1.135q-.442-.372-.872-.736c-.17-.222-.12-.334-.086-.4C6,22.609,5.161,22,4.353,21.416,2.951,20.216,1.542,19,0,17.677L6.62,13.3,9.8,11.273l1.524-.9,1.02-.551c2.756-1.44,5.616-2.829,8.6-4.165,1.584-.525,3.152-1.046,4.608-1.636,2.1-.973,4.668-2.453,6.712-3.437.089.569,1.294.511,2.489.451,1.346-.065,2.683-.13,2.4.7C38.5,1.128,40.559.3,40.786.572c.686.835,2.153,1.493,5.963.835C48.2,1.039,50.276-.028,50.837,0c.89.068-1.636,1.271-.746,1.336C39.695,4.974,29.8,9.019,20.348,14.924A38.12,38.12,0,0,0,16.4,17.152c-.464.3-.485.292-.5.29s-.013-.005-.05.016l-.2.073a4.185,4.185,0,0,0-.491.251,5.563,5.563,0,0,0,.592.561c.879.639,1.759,1.273,2.62,1.9l2.782,1.926c3.627,2.458,6.852,4.394,8.609,5.375l.511.324c3.152,1.819,6.967,4.042,9.491,5.879,1.057.872,2.234,1.85,3.392,2.805-.689-.123-1.333-.217-1.9-.29a14.394,14.394,0,0,1,3.069,1.714c2.6,1.819.749,1.6-.71,1.806-.431-.029-.5.167-.569.36-.086.235-.185.47-.95.316l2.26,1.046c-.021.162-.579-.13-1.146-.425-.678-.352-1.37-.7-1.161-.266.913.311,1.8.955,2.7,1.373-.243.128-.979-.17-1.688-.464-.783-.326-1.532-.655-1.56-.41.433.347,2.8.665,2.727,1.263-.016.12-.926-.3-1.383-.509,2.7,1.5,4.037,2.688,1.2,2.061.9.4,2.262.762,3.173,1.271l-.01,0c-.464-.17-1.36-.5-1.78-.66l1.62.715-.381.084a9.6,9.6,0,0,1-1.276-.441l1.078.475a7.731,7.731,0,0,1-1.02.063c-.037,0-.076,0-.112,0" transform="translate(0 0)" fill="#e7c78c"/></clipPath></defs><g transform="translate(-26.391 23.92) rotate(-30)"><g transform="translate(17.339 70.845)"><g transform="translate(0 0)" clip-path="url(#a)"><rect width="0.229" height="0.076" transform="translate(-0.027 -0.027) rotate(6.901)" fill="#e7c78c"/></g></g><g transform="translate(17.58 70.908)"><g transform="translate(0 0)" clip-path="url(#b)"><rect width="0.341" height="0.161" transform="matrix(0.993, 0.12, -0.12, 0.993, 0.005, -0.039)" fill="#e7c78c"/></g></g><g transform="translate(17.549 70.777)"><g transform="translate(0 0)" clip-path="url(#c)"><rect width="0.043" height="0.021" transform="translate(0.001 -0.005) rotate(6.901)" fill="#e7c78c"/></g></g><g transform="translate(17.59 70.631)"><g transform="translate(0 0)" clip-path="url(#d)"><rect width="0.305" height="0.18" transform="translate(0.004 -0.035) rotate(6.901)" fill="#e7c78c"/></g></g><g transform="translate(17.909 71.03)"><g transform="translate(0 0)" clip-path="url(#e)"><rect width="0.169" height="0.11" transform="matrix(0.993, 0.12, -0.12, 0.993, 0.002, -0.019)" fill="#e7c78c"/></g></g><g transform="translate(17.354 70.827)"><g transform="translate(0 0)" clip-path="url(#f)"><rect width="0.082" height="0.028" transform="matrix(0.993, 0.12, -0.12, 0.993, -0.008, -0.01)" fill="#e7c78c"/></g></g><g transform="translate(18.068 71.122)"><g transform="translate(0 0)" clip-path="url(#g)"><rect width="2.059" height="1.275" transform="matrix(0.993, 0.12, -0.12, 0.993, 0.028, -0.232)" fill="#e7c78c"/></g></g><g transform="translate(19.229 69.373)"><g transform="translate(0 0)" clip-path="url(#h)"><rect width="0.111" height="0.116" transform="translate(0.001 -0.012) rotate(6.898)" fill="#e7c78c"/></g></g><g transform="translate(18.496 69.478)"><g transform="translate(0 0)" clip-path="url(#i)"><rect width="0.815" height="0.808" transform="translate(0.011 -0.087) rotate(6.9)" fill="#e7c78c"/></g></g><g transform="translate(19.328 46.09)"><g transform="translate(0 0)" clip-path="url(#j)"><rect width="130.386" height="114.228" transform="matrix(0.993, 0.12, -0.12, 0.993, 1.72, -83.58)" fill="#e7c78c"/></g></g><g transform="translate(17.88 70.021)"><g transform="translate(0 0)" clip-path="url(#k)"><rect width="0.895" height="0.706" transform="translate(0.012 -0.099) rotate(6.9)" fill="#e7c78c"/></g></g><g transform="translate(17.426 70.793)"><g transform="translate(0 0)" clip-path="url(#l)"><rect width="0.126" height="0.048" transform="matrix(0.993, 0.12, -0.12, 0.993, 0.002, -0.015)" fill="#e7c78c"/></g></g><g transform="translate(17.533 70.895)"><g transform="translate(0 0)" clip-path="url(#m)"><rect width="0.048" height="0.019" transform="matrix(0.993, 0.12, -0.12, 0.993, 0.001, -0.006)" fill="#e7c78c"/></g></g><g transform="translate(0 52.782)"><g transform="translate(0 0)" clip-path="url(#n)"><rect width="56.838" height="51.544" transform="matrix(0.993, 0.12, -0.12, 0.993, 0.747, -6.198)" fill="#e7c78c"/></g></g></g></svg>