<svg xmlns="http://www.w3.org/2000/svg" width="26.907" height="24.252" viewBox="0 0 26.907 24.252"><path d="M19.018,1a6.417,6.417,0,0,0-4.544,1.891L13.248,4.118,12.021,2.891A6.414,6.414,0,0,0,7.481,1H7.432A6.457,6.457,0,0,0,1,7.431v.047a6.416,6.416,0,0,0,1.891,4.543L13.248,22.378,23.6,12.021A6.415,6.415,0,0,0,25.5,7.481V7.435A6.457,6.457,0,0,0,19.065,1h-.046M7.431,0h.05a7.433,7.433,0,0,1,5.247,2.184l.52.52.519-.52A7.434,7.434,0,0,1,19.015,0h.05A7.457,7.457,0,0,1,26.5,7.431v.05a7.434,7.434,0,0,1-2.184,5.247L13.248,23.793,2.184,12.728A7.433,7.433,0,0,1,0,7.481v-.05A7.457,7.457,0,0,1,7.431,0Z" transform="translate(0 0.463) rotate(-1)" fill="#c2ac6e"/></svg>