<svg xmlns="http://www.w3.org/2000/svg" xmlns:xlink="http://www.w3.org/1999/xlink" width="286.903" height="206.362" viewBox="0 0 286.903 206.362"><defs><linearGradient id="a" x1="0.5" x2="0.5" y2="1" gradientUnits="objectBoundingBox"><stop offset="0" stop-color="#f2dfb5"/><stop offset="1" stop-color="#dfb66e"/></linearGradient><clipPath id="c"><rect width="140.992" height="126.654" fill="url(#a)"/></clipPath><clipPath id="g"><rect width="277.228" height="192.117" fill="url(#a)"/></clipPath></defs><g transform="translate(-1200.83 -3260.819)"><g transform="translate(1299.338 3300.674)"><g transform="translate(0 0)" clip-path="url(#c)"><path d="M139.24,46.151,126.391,34.876a5.336,5.336,0,0,0-7.342.524l-9.7,11.013v-9.44a13.579,13.579,0,0,0-3.671-9.178L81.551,3.671A12.656,12.656,0,0,0,72.373,0H12.849A12.87,12.87,0,0,0,0,12.849V113.8a12.87,12.87,0,0,0,12.849,12.849H96.76A12.87,12.87,0,0,0,109.609,113.8V87.845l30.156-34.351a5.321,5.321,0,0,0-.524-7.342m-16-3.671,8.653,7.6-2.884,3.147-8.653-7.342ZM83.125,91.516,88.631,96.5,80.5,99.907Zm12.324.524-8.916-7.867,28.582-32.516,8.653,7.6Zm.262-63.2H80.24V13.373Zm6.031,84.7a4.979,4.979,0,0,1-4.982,4.982H12.849a4.979,4.979,0,0,1-4.982-4.982V12.849a4.979,4.979,0,0,1,4.982-4.982H72.373v21.24a7.61,7.61,0,0,0,7.6,7.6h21.764V55.067l-23.6,26.484a6.573,6.573,0,0,0-1.049,1.836L71.587,102H33.565c-4.982,0-4.982,7.867,0,7.867H74.209a10.193,10.193,0,0,0,3.933-.524l18.88-8.391a4.7,4.7,0,0,0,1.836-1.311l2.884-3.147Z" transform="translate(0 0)" fill="url(#a)"/><path d="M15.333,27.567H57.289c4.982,0,4.982-7.867,0-7.867H15.333c-5.244,0-5.244,7.867,0,7.867" transform="translate(18.493 31.958)" fill="url(#a)"/><path d="M15.333,36.667H53.618c4.982,0,4.982-7.867,0-7.867H15.333c-5.244,0-5.244,7.867,0,7.867" transform="translate(18.493 46.72)" fill="url(#a)"/></g></g><circle cx="29.5" cy="29.5" r="29.5" transform="translate(1253 3367)" fill="#121212"/><path d="M29.5,1A28.508,28.508,0,0,0,18.407,55.761,28.508,28.508,0,0,0,40.593,3.239,28.321,28.321,0,0,0,29.5,1m0-1A29.5,29.5,0,1,1,0,29.5,29.5,29.5,0,0,1,29.5,0Z" transform="translate(1253 3367)" fill="#d1a663"/><g transform="translate(1200.83 3275.328) rotate(-3)"><g clip-path="url(#g)"><path d="M214.522,30.068h-2.68A27.418,27.418,0,0,0,184.455,2.681V0a30.1,30.1,0,0,1,30.067,30.067" transform="translate(62.706 0)" fill="url(#a)"/><path d="M184.454,151v-2.68a27.418,27.418,0,0,0,27.387-27.387h2.68A30.1,30.1,0,0,1,184.454,151" transform="translate(62.705 41.113)" fill="url(#a)"/><path d="M30.068,151A30.1,30.1,0,0,1,0,120.937h2.68a27.418,27.418,0,0,0,27.387,27.387Z" transform="translate(0 41.113)" fill="url(#a)"/><path d="M2.68,30.068H0A30.1,30.1,0,0,1,30.067,0v2.68A27.418,27.418,0,0,0,2.68,30.068" transform="translate(0 0)" fill="url(#a)"/></g></g></g></svg>