<svg xmlns="http://www.w3.org/2000/svg" xmlns:xlink="http://www.w3.org/1999/xlink" width="50.532" height="50.532" viewBox="0 0 50.532 50.532"><defs><linearGradient id="a" x1="0.146" y1="0.854" x2="0.854" y2="0.146" gradientUnits="objectBoundingBox"><stop offset="0" stop-color="#ffd521"/><stop offset="0.055" stop-color="#ffd020"/><stop offset="0.124" stop-color="#fec01e"/><stop offset="0.2" stop-color="#fca71b"/><stop offset="0.282" stop-color="#fa8316"/><stop offset="0.368" stop-color="#f85510"/><stop offset="0.456" stop-color="#f51e09"/><stop offset="0.5" stop-color="#f30005"/><stop offset="0.503" stop-color="#f20007"/><stop offset="0.597" stop-color="#e1003b"/><stop offset="0.688" stop-color="#d30067"/><stop offset="0.776" stop-color="#c70088"/><stop offset="0.859" stop-color="#bf00a0"/><stop offset="0.936" stop-color="#bb00af"/><stop offset="1" stop-color="#b900b4"/></linearGradient></defs><path d="M25.266,50.532A25.266,25.266,0,1,1,50.532,25.266,25.269,25.269,0,0,1,25.266,50.532Z" fill="url(#a)"/><g transform="translate(8.014 8.019)"><path d="M175.852,161.808c4.6,0,5.149.015,6.968.1a9.462,9.462,0,0,1,3.2.6,5.7,5.7,0,0,1,3.269,3.269,9.593,9.593,0,0,1,.6,3.2c.081,1.819.1,2.365.1,6.968s-.015,5.149-.1,6.968a9.463,9.463,0,0,1-.6,3.2,5.7,5.7,0,0,1-3.269,3.269,9.594,9.594,0,0,1-3.2.6c-1.819.081-2.365.1-6.968.1s-5.149-.015-6.968-.1a9.462,9.462,0,0,1-3.2-.6,5.7,5.7,0,0,1-3.269-3.269,9.594,9.594,0,0,1-.6-3.2c-.081-1.819-.1-2.365-.1-6.968s.015-5.149.1-6.968a9.462,9.462,0,0,1,.6-3.2,5.7,5.7,0,0,1,3.269-3.269,9.593,9.593,0,0,1,3.2-.6c1.819-.086,2.365-.1,6.968-.1m0-3.108c-4.684,0-5.271.02-7.11.106a12.677,12.677,0,0,0-4.189.8A8.325,8.325,0,0,0,161.5,161.6a8.489,8.489,0,0,0-1.991,3.057,12.753,12.753,0,0,0-.8,4.189c-.086,1.839-.106,2.426-.106,7.11s.02,5.271.106,7.11a12.677,12.677,0,0,0,.8,4.189,8.849,8.849,0,0,0,5.048,5.038,12.752,12.752,0,0,0,4.189.8c1.839.086,2.426.106,7.11.106s5.271-.02,7.11-.106a12.677,12.677,0,0,0,4.189-.8,8.849,8.849,0,0,0,5.038-5.048,12.753,12.753,0,0,0,.8-4.189c.086-1.839.106-2.426.106-7.11s-.02-5.271-.106-7.11a12.676,12.676,0,0,0-.8-4.189,8.849,8.849,0,0,0-5.048-5.038,12.753,12.753,0,0,0-4.189-.8C181.122,158.72,180.536,158.7,175.852,158.7Z" transform="translate(-158.6 -158.7)" fill="#fff"/><path d="M333.558,324.7a8.858,8.858,0,1,0,8.858,8.858A8.859,8.859,0,0,0,333.558,324.7Zm0,14.609a5.751,5.751,0,1,1,5.751-5.751A5.751,5.751,0,0,1,333.558,339.309Z" transform="translate(-316.307 -316.312)" fill="#fff"/><circle cx="2.072" cy="2.072" r="2.072" transform="translate(24.387 5.968)" fill="#fff"/></g></svg>