<svg xmlns="http://www.w3.org/2000/svg" xmlns:xlink="http://www.w3.org/1999/xlink" width="39.402" height="33.201" viewBox="0 0 39.402 33.201"><defs><clipPath id="a"><path d="M0,0H0M0,0c-.011,0,0,0,0,0H0l0,0H0m0,0A.1.1,0,0,1,.042.011L.007,0" fill="#e7c78c"/></clipPath><clipPath id="b"><path d="M0,0A.272.272,0,0,1,.07.026.328.328,0,0,0,0,0" fill="#e7c78c"/></clipPath><clipPath id="c"><path d="M.009,0,0,0l0,0M0,0H0" fill="#e7c78c"/></clipPath><clipPath id="d"><path d="M.062,0A.429.429,0,0,1,0,.031.538.538,0,0,0,.062,0" fill="#e7c78c"/></clipPath><clipPath id="e"><path d="M0,0,.008,0l.005,0L0,0M.03.017l-.006,0L.013.007A.093.093,0,0,1,.034.02Z" fill="#e7c78c"/></clipPath><clipPath id="f"><path d="M0,0S.009,0,.015,0L0,0H0" fill="#e7c78c"/></clipPath><clipPath id="g"><path d="M0,0H0L.133.074,0,0M.319.176.334.185.319.176M.382.211h0M.133.074l.185.1L.35.194.334.185.35.194h0l0,0L.36.181.37.17.386.155C.4.146.4.143.408.145S.417.166.41.2L.4.221v0h0Z" fill="#e7c78c"/></clipPath><clipPath id="h"><path d="M.021,0,0,.018ZM0,.018l0,0,0,0" fill="#e7c78c"/></clipPath><clipPath id="i"><path d="M.157,0l0,0C.13.03.108.055.084.079.109.054.133.027.157,0M.084.079l0,0,0,0L.084.079m0,0C.111.055.114.052.075.089L.065.1.052.11.08.083M.066.1.045.116.052.11C.035.126.018.141,0,.155L.066.1" fill="#e7c78c"/></clipPath><clipPath id="j"><path d="M4.744,20.856a7.762,7.762,0,0,1-1.669-.145c-.138-.228-.616-.5-2.322-.779a2.253,2.253,0,0,1-.708-.118A.213.213,0,0,0,.02,19.8h0L0,19.824c.052-.063.1-.131.154-.2,0-.009.016.005.039.011a.7.7,0,0,0,.155.042l.846.064,1.845.128C4.26,19.945,5.47,20,6.674,20a24.891,24.891,0,0,0,7.1-.888,14.2,14.2,0,0,0,2.548-.882,13.252,13.252,0,0,0,3.734-2.478,11.087,11.087,0,0,0,2.617-3.822,8.7,8.7,0,0,0,.654-3.136l.012-.242A8.559,8.559,0,0,0,23,6.292a9.926,9.926,0,0,0-.812-1.984,8.252,8.252,0,0,0-.925-1.478c.22.165.43.318.6.468-.188-.24-.413-.444-.585-.634a3.854,3.854,0,0,1-.413-.414c-.477-.436-.576-.553-.466-.564a2.761,2.761,0,0,1,.676.2c.151.083.172.044.193,0s.053-.1.337.094a7.869,7.869,0,0,0-.875-.678c0-.052.271.164.518.351s.442.387.367.238c-.168-.135-.337-.286-.523-.424a3.765,3.765,0,0,0-.558-.4,2.225,2.225,0,0,1,.72.416c.3.212.54.442.551.379-.161-.2-1.064-.7-1.088-.826a2.453,2.453,0,0,1,.563.36C20.739.953,20.261.671,20.094.53s-.02-.157.592.121A10.131,10.131,0,0,0,19.214,0h0c.156.063.4.136.6.212C19.641.14,19.459.073,19.28,0l.154.006a3.931,3.931,0,0,1,.6.221,5.331,5.331,0,0,0-.519-.214,3.663,3.663,0,0,1,.489.078,6.107,6.107,0,0,1,1.559.7A9.7,9.7,0,0,1,25.5,8.463c-.013,0-.027-.011-.039-.023-.032-.029-.059-.059-.07.116a11.341,11.341,0,0,1-.155,2.131l-.084.039a11.866,11.866,0,0,1-.412,1.774,12.219,12.219,0,0,1-1.667,2.953c0-.039-.017-.065-.089.02-.288.363-.671.879-1.125,1.365l-.214.2a.149.149,0,0,1-.114.036l-.581.568a18.044,18.044,0,0,1-9.039,3.584c-.719.061-1.437.089-2.121.126-1.013.073-2.3.176-3.292.179.146-.242-2.238-.424-1.75-.677" fill="#e7c78c"/></clipPath><clipPath id="k"><path d="M.177,0l0,0,0,0m0,0,0,0a.465.465,0,0,1-.083.07C.117.054.142.03.175,0M.089.075a.387.387,0,0,1-.063.04A.742.742,0,0,0,.089.075M.025.116h0l0,0h0m0,0A.158.158,0,0,1,0,.13L.025.117M0,.13H0" fill="#e7c78c"/></clipPath><clipPath id="l"><path d="M.026,0,.018,0h0L.026,0M.015,0,0,.007.015,0M0,.007H0" fill="#e7c78c"/></clipPath><clipPath id="m"><path d="M0,0,.008,0h0L0,0M.009,0h0" fill="#e7c78c"/></clipPath><clipPath id="n"><path d="M9.7,9.763a4.434,4.434,0,0,1-.763-.143A31.443,31.443,0,0,1,5.4,7.837c.021-.04.1-.044.021-.117-.272-.211-.585-.229-.855-.446L4.588,7.2l-.752-.356c-.432-.293-.85-.6-1.258-.917.026-.014.046-.031.009-.068a3.722,3.722,0,0,0-.3-.221l-.252-.171L1.69,5.224,1.5,5.066c-.036-.047-.026-.071-.018-.086l-.553-.4L0,3.782l1.416-.936L2.1,2.412l.326-.193L2.641,2.1c.59-.308,1.2-.605,1.841-.891.339-.112.674-.224.986-.35.45-.208,1-.525,1.436-.735.019.122.277.109.533.1.288-.014.574-.028.514.15.287-.13.727-.308.776-.249C8.874.3,9.187.442,10,.3c.312-.079.755-.307.875-.3.19.015-.35.272-.16.286A31.146,31.146,0,0,0,4.354,3.193a8.156,8.156,0,0,0-.844.477c-.1.064-.1.063-.107.062s0,0-.011,0l-.042.016a.9.9,0,0,0-.1.054,1.19,1.19,0,0,0,.127.12l.561.406.6.412c.776.526,1.466.94,1.842,1.15l.109.069c.674.389,1.491.865,2.031,1.258l.726.6c-.147-.026-.285-.046-.408-.062a3.08,3.08,0,0,1,.657.367c.557.389.16.342-.152.386-.092-.006-.106.036-.122.077s-.04.1-.2.068l.484.224c0,.035-.124-.028-.245-.091C9.1,8.713,8.953,8.638,9,8.732c.2.066.385.2.578.294-.052.027-.209-.036-.361-.1-.167-.07-.328-.14-.334-.088.093.074.6.142.583.27,0,.026-.2-.064-.3-.109.577.321.864.575.257.441.192.087.484.163.679.272h0l-.381-.141.347.153-.082.018a2.054,2.054,0,0,1-.273-.094l.231.1a1.654,1.654,0,0,1-.218.013H9.7" fill="#e7c78c"/></clipPath></defs><g transform="matrix(0.719, 0.695, -0.695, 0.719, 18.087, -2.873)"><g transform="translate(3.71 20.139)"><g transform="translate(0 0)" clip-path="url(#a)"><rect width="0.049" height="0.016" transform="translate(-0.006 -0.006) rotate(6.901)" fill="#e7c78c"/></g></g><g transform="translate(3.761 20.152)"><g transform="translate(0 0)" clip-path="url(#b)"><rect width="0.073" height="0.035" transform="matrix(0.993, 0.12, -0.12, 0.993, 0.001, -0.008)" fill="#e7c78c"/></g></g><g transform="translate(3.755 20.124)"><g transform="translate(0 0)" clip-path="url(#c)"><rect width="0.009" height="0.004" transform="translate(0 -0.001) rotate(6.901)" fill="#e7c78c"/></g></g><g transform="translate(3.764 20.093)"><g transform="translate(0 0)" clip-path="url(#d)"><rect width="0.065" height="0.038" transform="translate(0.001 -0.007) rotate(6.901)" fill="#e7c78c"/></g></g><g transform="translate(3.832 20.179)"><g transform="translate(0 0)" clip-path="url(#e)"><rect width="0.036" height="0.023" transform="matrix(0.993, 0.12, -0.12, 0.993, 0, -0.004)" fill="#e7c78c"/></g></g><g transform="translate(3.713 20.135)"><g transform="translate(0 0)" clip-path="url(#f)"><rect width="0.018" height="0.006" transform="matrix(0.993, 0.12, -0.12, 0.993, -0.002, -0.002)" fill="#e7c78c"/></g></g><g transform="translate(3.866 20.198)"><g transform="translate(0 0)" clip-path="url(#g)"><rect width="0.44" height="0.273" transform="matrix(0.993, 0.12, -0.12, 0.993, 0.006, -0.05)" fill="#e7c78c"/></g></g><g transform="translate(4.114 19.824)"><g transform="translate(0 0)" clip-path="url(#h)"><rect width="0.024" height="0.025" transform="translate(0 -0.003) rotate(6.898)" fill="#e7c78c"/></g></g><g transform="translate(3.957 19.846)"><g transform="translate(0 0)" clip-path="url(#i)"><rect width="0.174" height="0.173" transform="translate(0.002 -0.019) rotate(6.9)" fill="#e7c78c"/></g></g><g transform="translate(4.136 0)"><g transform="translate(0)" clip-path="url(#j)"><rect width="27.898" height="24.441" transform="matrix(0.993, 0.12, -0.12, 0.993, 0.368, -3.041)" fill="#e7c78c"/></g></g><g transform="translate(3.826 19.963)"><g transform="translate(0 0)" clip-path="url(#k)"><rect width="0.191" height="0.151" transform="translate(0.003 -0.021) rotate(6.9)" fill="#e7c78c"/></g></g><g transform="translate(3.729 20.128)"><g transform="translate(0 0)" clip-path="url(#l)"><rect width="0.027" height="0.01" transform="matrix(0.993, 0.12, -0.12, 0.993, 0, -0.003)" fill="#e7c78c"/></g></g><g transform="translate(3.751 20.15)"><g transform="translate(0 0)" clip-path="url(#m)"><rect width="0.01" height="0.004" transform="matrix(0.993, 0.12, -0.12, 0.993, 0, -0.001)" fill="#e7c78c"/></g></g><g transform="translate(0 16.274)"><g transform="translate(0)" clip-path="url(#n)"><rect width="12.161" height="11.029" transform="matrix(0.993, 0.12, -0.12, 0.993, 0.16, -1.326)" fill="#e7c78c"/></g></g></g></svg>