<svg xmlns="http://www.w3.org/2000/svg" xmlns:xlink="http://www.w3.org/1999/xlink" width="107.85" height="86.571" viewBox="0 0 107.85 86.571"><defs><linearGradient id="a" x1="0.5" x2="0.5" y2="1" gradientUnits="objectBoundingBox"><stop offset="0" stop-color="#f2dfb5"/><stop offset="1" stop-color="#dfb66e"/></linearGradient><clipPath id="b"><rect width="107.85" height="86.572" fill="url(#a)"/></clipPath></defs><g transform="translate(0 0)" clip-path="url(#b)"><path d="M154.836,172.286l-16.054,2.333a1.778,1.778,0,0,0-.986,3.032l10.948,10.671-2.584,15.069a1.778,1.778,0,0,0,2.579,1.874l13.532-7.115,13.532,7.115a1.778,1.778,0,0,0,2.58-1.874l-1.526-8.9-3.5.6.917,5.347L163.1,194.569a1.778,1.778,0,0,0-1.654,0l-11.171,5.873L152.406,188a1.777,1.777,0,0,0-.511-1.574l-9.038-8.81,12.49-1.815Z" transform="translate(-108.347 -135.995)" fill="url(#a)"/><path d="M232.521,113.849l2.427-4.919,5.585,11.318a1.778,1.778,0,0,0,1.338.973l12.49,1.815-9.038,8.81,1.241,3.051a1.772,1.772,0,0,0,1.241-.5l11.617-11.324a1.777,1.777,0,0,0-.985-3.032l-15.13-2.2-6.766-13.71a1.778,1.778,0,0,0-3.189,0l-4.022,8.149Z" transform="translate(-181.024 -81.41)" fill="url(#a)"/><path d="M46.466,83.062A35.921,35.921,0,0,1,30.32,74.605a22.386,22.386,0,0,0-1.994-1.951q-1.1-1.164-2.107-2.428a37.463,37.463,0,0,1-6.74-13.338c-.114-.547-.255-1.12-.426-1.707a37.847,37.847,0,0,1,8.018-32.818,1.787,1.787,0,0,0,.206-.3l.015,0c2.173-.7,7.5-2.851,9.988-7.664S38.5,3.921,37.847,1.7a2.384,2.384,0,0,0-3-1.59c-2.173.7-7.5,2.851-9.988,7.664-2.4,4.635-1.306,10.084-.637,12.449a40.657,40.657,0,0,0-4.968,7.4,13.765,13.765,0,0,0-1.295-4.31c-.85-1.7-3.568-5.907-10.426-8.2a2.41,2.41,0,0,0-1.852.145A2.436,2.436,0,0,0,4.47,16.7c-.729,2.335-2.15,8.317.394,13.409.85,1.7,3.568,5.906,10.426,8.2.047.016.094.028.142.041a41.631,41.631,0,0,0-.871,8.465c0,.319,0,.637.012.955-1.659-1.419-5.58-3.953-12.24-3.748A2.423,2.423,0,0,0,0,46.558C.127,49,.862,55.105,5.009,59c1.337,1.256,5.109,4.1,11.86,4.1q.373,0,.757-.012a2.314,2.314,0,0,0,.25-.022A40.981,40.981,0,0,0,20.995,69c-2.127-.339-6.836-.468-12.445,3.257a2.424,2.424,0,0,0-.64,3.386c1.393,2.011,5.236,6.811,10.814,7.937a12.766,12.766,0,0,0,2.509.235A18.694,18.694,0,0,0,31.6,80.4c.051-.034.1-.071.147-.108A39.2,39.2,0,0,0,45.681,86.53a1.785,1.785,0,0,0,.394.044ZM28.016,9.413c1.543-2.982,4.787-4.686,6.734-5.48.462,2.09.928,5.821-.628,8.829-1.543,2.982-4.787,4.686-6.734,5.48-.462-2.09-.928-5.821.628-8.829M15.279,34.507c-2.051-.845-5.6-2.712-7.235-5.987-1.653-3.308-1.036-7.4-.5-9.6,2.051.845,5.6,2.712,7.235,5.987h0c1.653,3.308,1.036,7.4.5,9.6m-7.836,21.9c-2.695-2.533-3.53-6.583-3.789-8.834,2.217.083,6.191.609,8.859,3.116A12.167,12.167,0,0,1,15.638,56.2c.108.466.226.93.35,1.391.152.721.251,1.384.315,1.937-2.217-.083-6.192-.609-8.859-3.116M19.428,80.1c-3.625-.732-6.47-3.733-7.876-5.51,1.928-1.1,5.581-2.747,9.17-2.022h0a11.851,11.851,0,0,1,5.211,2.727q.88.916,1.811,1.772c.324.361.612.7.855,1.011-1.928,1.1-5.581,2.746-9.171,2.022" transform="translate(0 -0.002)" fill="url(#a)"/><path d="M291.8,86.572a1.809,1.809,0,0,0,.394-.044,39.211,39.211,0,0,0,13.936-6.235c.048.037.1.075.146.108a18.691,18.691,0,0,0,10.367,3.415,12.78,12.78,0,0,0,2.509-.235c5.579-1.126,9.421-5.925,10.814-7.937a2.437,2.437,0,0,0,.384-1.837,2.411,2.411,0,0,0-1.024-1.548c-5.61-3.725-10.319-3.6-12.446-3.257A41,41,0,0,0,320,63.064a2.368,2.368,0,0,0,.25.022q.385.012.757.012c6.751,0,10.524-2.841,11.86-4.1,4.147-3.9,4.882-10,5.006-12.446a2.439,2.439,0,0,0-.642-1.763,2.413,2.413,0,0,0-1.687-.776c-6.66-.2-10.582,2.33-12.241,3.749q.011-.477.012-.955a41.644,41.644,0,0,0-.871-8.465c.047-.013.095-.025.141-.041,6.859-2.29,9.577-6.495,10.427-8.2,2.543-5.091,1.122-11.073.393-13.409a2.424,2.424,0,0,0-3.063-1.577c-6.859,2.289-9.577,6.494-10.427,8.2a13.755,13.755,0,0,0-1.295,4.31,40.664,40.664,0,0,0-4.967-7.4c.67-2.365,1.762-7.814-.637-12.449C310.526,2.962,305.2.812,303.029.112a2.382,2.382,0,0,0-3,1.59c-.657,2.217-1.918,7.891.566,12.692s7.815,6.963,9.988,7.664l.014,0a1.787,1.787,0,0,0,.206.3,37.848,37.848,0,0,1,8.018,32.819c-.172.586-.312,1.159-.426,1.7a37.452,37.452,0,0,1-6.741,13.339q-1,1.263-2.106,2.426a22.415,22.415,0,0,0-2,1.954,35.918,35.918,0,0,1-16.144,8.456Zm18.687-68.333c-1.947-.793-5.191-2.5-6.734-5.479-1.556-3.007-1.09-6.738-.628-8.829,1.947.793,5.191,2.5,6.734,5.479,1.556,3.007,1.09,6.738.628,8.829m6.666,54.325c3.589-.724,7.243.924,9.171,2.022-1.406,1.777-4.251,4.778-7.877,5.51-3.587.723-7.243-.924-9.171-2.022.242-.306.53-.649.853-1.01q.933-.857,1.814-1.775a11.847,11.847,0,0,1,5.209-2.725M323.1,24.906c1.637-3.276,5.184-5.142,7.235-5.987.536,2.2,1.152,6.291-.5,9.6-1.636,3.275-5.184,5.142-7.235,5.987-.536-2.2-1.153-6.29.5-9.6m7.335,31.5c-2.668,2.508-6.642,3.033-8.859,3.116.064-.554.163-1.216.315-1.938q.185-.691.349-1.388a12.166,12.166,0,0,1,3.125-5.508c2.668-2.508,6.642-3.033,8.859-3.116-.259,2.251-1.094,6.3-3.789,8.834" transform="translate(-230.025 0)" fill="url(#a)"/></g></svg>