<svg xmlns="http://www.w3.org/2000/svg" xmlns:xlink="http://www.w3.org/1999/xlink" width="75.666" height="75.254" viewBox="0 0 75.666 75.254"><defs><linearGradient id="a" x1="0.5" x2="0.5" y2="1" gradientUnits="objectBoundingBox"><stop offset="0" stop-color="#f2dfb5"/><stop offset="1" stop-color="#dfb66e"/></linearGradient><clipPath id="b"><rect width="75.666" height="75.254" fill="url(#a)"/></clipPath></defs><g clip-path="url(#b)"><path d="M161.108,337.93a16.816,16.816,0,0,0,5.475,1.571,46.31,46.31,0,0,0,6.456.405,79.539,79.539,0,0,0,9.294-.585,74.533,74.533,0,0,0,12.97-2.588l.3-.092-.58-1.862-.3.092a72.57,72.57,0,0,1-12.62,2.514,61.432,61.432,0,0,1-15.407.164c-3.68-.548-5.969-1.647-6.123-2.94-.245-2.058.775-5.744,4.452-9.361.019.018.04.04.058.058a11.148,11.148,0,0,0,4.122,4.108.945.945,0,0,0,1-.047.991.991,0,0,0,.438-.923l-.8-6.741a25.565,25.565,0,0,1,4.853-2.025l.014,0,0,.006c.2.8.7,2.287.723,2.35l.1.3,1.835-.666-.1-.288c0-.008-.217-.635-.372-1.125a30.5,30.5,0,0,1,3.1-.531,30.04,30.04,0,0,1,3.086-.208,23.486,23.486,0,0,1-2.107,8.464,22.159,22.159,0,0,1-2.328-3.51l-.147-.273-1.718.923.147.273a21.429,21.429,0,0,0,3.575,4.982A.975.975,0,0,0,182,330.2a23.813,23.813,0,0,0,3.07-11.4.958.958,0,0,0,.03-.365,25.484,25.484,0,0,1,5.393.887l.793,6.662a.991.991,0,0,0,.642.795.944.944,0,0,0,.982-.188,11.13,11.13,0,0,0,3.027-4.91l.006-.009.018.006c3.583,2.184,6.1,5.3,6.415,7.953.15,1.263-1.341,2.666-4.2,3.952l-.283.127.8,1.779.283-.127c3.808-1.713,5.6-3.718,5.336-5.961-.384-3.227-3.272-6.917-7.358-9.4a2.034,2.034,0,0,0-2.124.064,22.8,22.8,0,0,0-2.4-1.019,1.969,1.969,0,0,0-1.393-1.6,27.432,27.432,0,0,0-5.839-.961,2.02,2.02,0,0,0-1.858,1.073,31.881,31.881,0,0,0-3.568.225,32.27,32.27,0,0,0-3.572.628,2.022,2.022,0,0,0-2.056-.608A27.524,27.524,0,0,0,168.89,320a1.963,1.963,0,0,0-1,1.87,22.734,22.734,0,0,0-2.136,1.555,2.038,2.038,0,0,0-2.089.422c-3.449,3.387-5.425,7.7-5.033,10.993a4.156,4.156,0,0,0,2.471,3.09m6-13.086c.34-.276.691-.543,1.051-.8l.285,2.395a10.232,10.232,0,0,1-1.336-1.6m25.585-3.608c.394.162.781.336,1.158.519a10.175,10.175,0,0,1-.886,1.768Z" transform="translate(-144.531 -288.435)" fill="url(#a)"/><path d="M451.99,169.913c.367.3.534.441.581.833a4.558,4.558,0,0,1-.926,2.591.918.918,0,0,0-.124.931,1.051,1.051,0,0,0,.827.621.913.913,0,0,0,.858-.383,6.518,6.518,0,0,0,1.3-3.99,3.036,3.036,0,0,0-1.274-2.105c-.366-.3-.534-.441-.58-.832a4.56,4.56,0,0,1,.927-2.592l.185-.248-1.561-1.168-.186.248a6.517,6.517,0,0,0-1.3,3.99,3.036,3.036,0,0,0,1.274,2.105" transform="translate(-410.744 -149.071)" fill="url(#a)"/><path d="M279.966,190.384c.366.3.534.441.58.833a4.558,4.558,0,0,1-.926,2.591.918.918,0,0,0-.124.931,1.051,1.051,0,0,0,.827.621.913.913,0,0,0,.858-.383,6.523,6.523,0,0,0,1.3-3.99,3.037,3.037,0,0,0-1.275-2.105c-.366-.3-.533-.441-.58-.832a4.56,4.56,0,0,1,.927-2.592l.185-.248-1.561-1.168-.186.248a6.521,6.521,0,0,0-1.3,3.99,3.036,3.036,0,0,0,1.274,2.105" transform="translate(-253.968 -167.728)" fill="url(#a)"/><path d="M361.682,148.552c.367.3.534.441.58.833a4.558,4.558,0,0,1-.926,2.591.918.918,0,0,0-.124.931,1.051,1.051,0,0,0,.827.62.95.95,0,0,0,.111.007.924.924,0,0,0,.746-.39,6.518,6.518,0,0,0,1.3-3.99,3.036,3.036,0,0,0-1.274-2.105c-.367-.3-.534-.441-.58-.833a4.559,4.559,0,0,1,.927-2.592l.185-.248-1.561-1.167-.186.248a6.51,6.51,0,0,0-1.3,3.99,3.036,3.036,0,0,0,1.274,2.105" transform="translate(-328.441 -129.604)" fill="url(#a)"/><path d="M74.118,8.511a6.9,6.9,0,0,0-4.664-2.55l-.388-.042a6.987,6.987,0,0,0-6.759-4.3L38.958,2.721l0-.017L14.021.04a6.961,6.961,0,0,0-7.135,4.2l-.265.012a6.967,6.967,0,0,0-6.613,7.27L1.818,49.74l-.094-.01L.452,61.645A6.906,6.906,0,0,0,2.666,67.5,6.968,6.968,0,0,0,9.583,73.83c.11,0,.222,0,.333-.008l27.716-1.313-.01.1,24.435,2.61a7.047,7.047,0,0,0,.744.04,6.973,6.973,0,0,0,6.806-5.583,7.061,7.061,0,0,0,.8-.755,6.9,6.9,0,0,0,1.8-5l-.6-12.727,4.014-37.578a6.9,6.9,0,0,0-1.508-5.1M9.267,4.127A4.917,4.917,0,0,1,13.8,2.067L25.773,3.345Zm60.311,4.1c0-.064-.009-.128-.014-.192A4.915,4.915,0,0,1,73.6,13.392l-2.617,24.5Zm0,43.134.6,12.649a4.928,4.928,0,0,1-4.673,5.137L9.819,71.785a4.928,4.928,0,0,1-5.137-4.673L2.044,11.426A4.928,4.928,0,0,1,6.717,6.289L62.4,3.651c.078,0,.157-.006.235-.006a4.93,4.93,0,0,1,4.9,4.679l2.028,42.8-.025.23ZM65.6,71.184A7,7,0,0,0,66.9,71a4.96,4.96,0,0,1-1.021,1.12,4.871,4.871,0,0,1-3.6,1.067L50.3,71.909Z" transform="translate(0 0)" fill="url(#a)"/><path d="M109.17,65.09a2.523,2.523,0,0,0-2.635-2.4L50.572,65.343a2.524,2.524,0,0,0-2.4,2.635l2.172,45.857a2.524,2.524,0,0,0,2.514,2.4l.121,0,55.963-2.651a2.522,2.522,0,0,0,2.4-2.636Zm-2.516-.361a.48.48,0,0,1,.479.458l2.172,45.857a.481.481,0,0,1-.457.5L52.885,114.2a.471.471,0,0,1-.344-.126.477.477,0,0,1-.158-.331L50.211,67.882a.485.485,0,0,1,.457-.5l55.963-2.651h.023" transform="translate(-43.902 -57.133)" fill="url(#a)"/></g></svg>