<svg xmlns="http://www.w3.org/2000/svg" width="36" height="36" viewBox="0 0 36 36"><g transform="translate(0.026 0.001)"><path d="M28.979,22a6.98,6.98,0,0,0-5.752,3.036l-9.752-4.408a6.867,6.867,0,0,0,.007-5.232l9.739-4.431A6.992,6.992,0,1,0,21.983,7a6.956,6.956,0,0,0,.12,1.179l-10.353,4.71a7,7,0,1,0-.022,10.24l10.38,4.692A7.111,7.111,0,0,0,21.989,29a6.992,6.992,0,1,0,6.991-7Zm0-19a4,4,0,1,1-3.994,4,4,4,0,0,1,3.994-4ZM7.006,22A4,4,0,1,1,11,18a4,4,0,0,1-3.994,4ZM28.979,33a4,4,0,1,1,4-4,4,4,0,0,1-4,4Z" transform="translate(0 0)" fill="#0f0f0f"/></g></svg>