<svg xmlns="http://www.w3.org/2000/svg" xmlns:xlink="http://www.w3.org/1999/xlink" width="19.705" height="29.441" viewBox="0 0 19.705 29.441"><defs><linearGradient id="a" x1="0.5" x2="0.5" y2="1" gradientUnits="objectBoundingBox"><stop offset="0" stop-color="#f2dfb5"/><stop offset="1" stop-color="#dfb66e"/></linearGradient><clipPath id="b"><rect width="19.705" height="29.442" fill="url(#a)"/></clipPath></defs><g transform="translate(0 0)" clip-path="url(#b)"><path d="M10.467,29.442H9.239c0-2.969-3.611-8.332-6-11.881-.954-1.417-1.708-2.537-2.085-3.267A9.657,9.657,0,0,1,3.32,2.435a9.983,9.983,0,0,1,13.069,0,9.661,9.661,0,0,1,2.157,11.869c-.179.347-.461.814-.91,1.5l-1.028-.67c.419-.644.692-1.091.854-1.408A8.432,8.432,0,0,0,15.585,3.363a8.754,8.754,0,0,0-11.461,0A8.427,8.427,0,0,0,2.238,13.718c.351.679,1.124,1.827,2.019,3.157,1.958,2.908,4.456,6.619,5.594,9.7a37.692,37.692,0,0,1,3.718-6.87l1.03.666c-1.773,2.746-4.132,6.674-4.133,9.066" transform="translate(0 0)" fill="url(#a)"/><path d="M14.512,16.928a2.455,2.455,0,1,1,2.455-2.455,2.457,2.457,0,0,1-2.455,2.455m0-3.682a1.227,1.227,0,1,0,1.227,1.227,1.228,1.228,0,0,0-1.227-1.227" transform="translate(-4.658 -4.644)" fill="url(#a)"/></g></svg>