<svg xmlns="http://www.w3.org/2000/svg" xmlns:xlink="http://www.w3.org/1999/xlink" width="134.594" height="93.365" viewBox="0 0 134.594 93.365"><defs><clipPath id="a"><path d="M.011.05h0l0,0v0M.022.042C-.03.042.03.047.014.05h0L.032.042H.022m.01,0A.458.458,0,0,0,.194,0C.121.018.061.031.032.042" fill="#e7c78c"/></clipPath><clipPath id="b"><path d="M0,.123A1.272,1.272,0,0,0,.329,0,1.531,1.531,0,0,1,0,.123" fill="#e7c78c"/></clipPath><clipPath id="c"><path d="M.042.016.021.005l.021.01M.021.005,0,0,.021.005" fill="#e7c78c"/></clipPath><clipPath id="d"><path d="M.29.146A2,2,0,0,0,0,0,2.515,2.515,0,0,1,.29.146" fill="#e7c78c"/></clipPath><clipPath id="e"><path d="M0,.091.039.073.063.06,0,.091M.141.01.112.031.063.06A.434.434,0,0,0,.159,0Z" fill="#e7c78c"/></clipPath><clipPath id="f"><path d="M0,0c-.01.005.039.013.07.018C.051.016.017,0,0,0H0" fill="#e7c78c"/></clipPath><clipPath id="g"><path d="M0,1.046l0,0L.624.7,0,1.046M1.49.224c-.021.01.016-.01.07-.039L1.49.224M1.785.063h0M.624.7c.412-.227.689-.381.866-.478.016-.01.057-.034.144-.081L1.56.185,1.636.144v0l.005.005.005.005L1.66.175,1.683.2l.047.05.076.073c.044.039.078.052.1.044.042-.008.042-.1.013-.237L1.892.016l0-.008V0Z" fill="#e7c78c"/></clipPath><clipPath id="h"><path d="M.1.1C.073.073.044.047.018.021ZM.018.021,0,0,.018.021" fill="#e7c78c"/></clipPath><clipPath id="i"><path d="M.733.725.72.71C.608.585.506.467.394.357.509.475.621.6.733.725M.394.357.373.337.363.326.394.357M.373.337C.517.47.535.48.35.311.331.295.321.279.3.261L.245.211.373.337M.311.279l-.1-.1L.245.211C.164.136.084.065,0,0,.141.125.235.209.311.279" fill="#e7c78c"/></clipPath><clipPath id="j"><path d="M22.17,3.165c-3.032.081-7.591.316-7.8.678C13.723,4.911,11.487,6.2,3.515,7.487,1.563,7.7.859,7.711.206,8.04a1,1,0,0,1-.112.05l-.008,0L0,7.99c.245.295.488.611.72.942.018.042.073-.023.18-.052a3.251,3.251,0,0,1,.723-.2l3.953-.3q4.325-.3,8.622-.6c5.712-.363,11.367-.608,16.993-.618,11.234-.013,22.4.976,33.171,4.149A66.357,66.357,0,0,1,76.269,15.44,61.933,61.933,0,0,1,93.719,27.024c5.477,5.206,17.243,5.579,14.1,1.4-.021.183-.078.3-.415-.094-1.344-1.7-3.137-4.107-5.258-6.38l-1-.942a.7.7,0,0,0-.535-.17c-1-.971-1.884-1.84-2.714-2.654-11.928-9.5-26.538-14.7-42.247-16.753-3.361-.284-6.714-.418-9.913-.59C41,.5,34.967.013,30.348,0c.681,1.13-10.459,1.981-8.178,3.165" fill="#e7c78c"/></clipPath><clipPath id="k"><path d="M.827.611.819.6.827.611M.819.6.8.59A2.172,2.172,0,0,0,.418.261c.128.1.248.209.4.342M.418.261A1.811,1.811,0,0,0,.125.073,3.47,3.47,0,0,1,.418.261M.117.068.125.073.115.065l0,0m0,0a.74.74,0,0,0-.1-.06c.034.021.07.039.1.06M.01.005,0,0,.01.005" fill="#e7c78c"/></clipPath><clipPath id="l"><path d="M.123.034.084.016H.07A.179.179,0,0,1,.123.034M.07.016A.3.3,0,0,0,.008,0,.447.447,0,0,0,.07.016M.008,0,0,0,.008,0" fill="#e7c78c"/></clipPath><clipPath id="m"><path d="M0,.013.037.005.044,0,0,.013M.044,0l0,0,0,0" fill="#e7c78c"/></clipPath><clipPath id="n"><path d="M45.344,0a20.722,20.722,0,0,0-3.567.671A146.954,146.954,0,0,0,25.257,9c.1.188.488.2.1.545-1.273.986-2.735,1.07-4,2.085l.084.352L17.927,13.65c-2.017,1.37-3.972,2.808-5.879,4.287.123.065.214.144.042.316a17.4,17.4,0,0,1-1.414,1.031c-.376.256-.775.522-1.179.8-.53.376-1.065.754-1.6,1.135q-.442.372-.872.736c-.17.222-.12.334-.086.4-.934.668-1.777,1.276-2.586,1.861-1.4,1.2-2.81,2.414-4.353,3.739l6.62,4.376L9.8,34.359l1.524.9,1.02.551c2.756,1.44,5.616,2.829,8.6,4.165,1.584.525,3.152,1.046,4.608,1.636,2.1.973,4.668,2.453,6.712,3.437.089-.569,1.294-.511,2.489-.451,1.346.065,2.683.13,2.4-.7,1.341.608,3.4,1.438,3.625,1.164.686-.835,2.153-1.493,5.963-.835,1.456.368,3.528,1.435,4.089,1.407.89-.068-1.636-1.271-.746-1.336C39.7,40.658,29.8,36.613,20.349,30.708A38.119,38.119,0,0,1,16.4,28.48c-.464-.3-.485-.292-.5-.29s-.013.005-.05-.016l-.2-.073a4.185,4.185,0,0,1-.491-.251,5.563,5.563,0,0,1,.592-.561c.879-.639,1.759-1.273,2.62-1.9l2.782-1.926c3.627-2.458,6.852-4.394,8.609-5.375l.511-.324c3.152-1.819,6.967-4.042,9.491-5.879,1.057-.872,2.234-1.85,3.392-2.805-.689.123-1.333.217-1.9.29a14.394,14.394,0,0,0,3.069-1.714c2.6-1.819.749-1.6-.71-1.806-.431.029-.5-.167-.569-.36-.086-.235-.185-.47-.95-.316l2.26-1.046c-.021-.162-.579.13-1.146.425-.678.352-1.37.7-1.161.266.913-.311,1.8-.955,2.7-1.373-.243-.128-.979.17-1.688.464-.783.326-1.532.655-1.56.41.433-.347,2.8-.665,2.727-1.263-.016-.12-.926.3-1.383.509,2.7-1.5,4.037-2.688,1.2-2.061.9-.4,2.262-.762,3.173-1.271l-.01,0c-.464.17-1.36.5-1.78.66L47.056.18,46.675.1A9.6,9.6,0,0,0,45.4.538L46.477.063A7.731,7.731,0,0,0,45.457,0c-.037,0-.076,0-.112,0" fill="#e7c78c"/></clipPath></defs><g transform="matrix(0.819, -0.574, 0.574, 0.819, 0, 55.986)"><g transform="translate(17.339 27.519)"><g transform="translate(0 0)" clip-path="url(#a)"><rect width="0.229" height="0.076" transform="translate(-0.036 0.001) rotate(-6.901)" fill="#e7c78c"/></g></g><g transform="translate(17.58 27.384)"><g transform="translate(0 0)" clip-path="url(#b)"><rect width="0.341" height="0.161" transform="matrix(0.993, -0.12, 0.12, 0.993, -0.015, 0.002)" fill="#e7c78c"/></g></g><g transform="translate(17.549 27.621)"><g transform="translate(0 0)" clip-path="url(#c)"><rect width="0.043" height="0.021" transform="translate(-0.002 0) rotate(-6.901)" fill="#e7c78c"/></g></g><g transform="translate(17.59 27.637)"><g transform="translate(0 0)" clip-path="url(#d)"><rect width="0.305" height="0.18" transform="translate(-0.017 0.002) rotate(-6.901)" fill="#e7c78c"/></g></g><g transform="translate(17.909 27.292)"><g transform="translate(0 0)" clip-path="url(#e)"><rect width="0.169" height="0.11" transform="matrix(0.993, -0.12, 0.12, 0.993, -0.011, 0.001)" fill="#e7c78c"/></g></g><g transform="translate(17.354 27.569)"><g transform="translate(0 0)" clip-path="url(#f)"><rect width="0.082" height="0.028" transform="matrix(0.993, -0.12, 0.12, 0.993, -0.011, 0)" fill="#e7c78c"/></g></g><g transform="translate(18.068 26.243)"><g transform="translate(0 0)" clip-path="url(#g)"><rect width="2.059" height="1.275" transform="matrix(0.993, -0.12, 0.12, 0.993, -0.125, 0.015)" fill="#e7c78c"/></g></g><g transform="translate(19.229 28.936)"><g transform="translate(0 0)" clip-path="url(#h)"><rect width="0.111" height="0.116" transform="translate(-0.012 0.001) rotate(-6.898)" fill="#e7c78c"/></g></g><g transform="translate(18.496 28.211)"><g transform="translate(0 0)" clip-path="url(#i)"><rect width="0.815" height="0.808" transform="translate(-0.087 0.01) rotate(-6.9)" fill="#e7c78c"/></g></g><g transform="translate(19.328 21.05)"><g transform="translate(0)" clip-path="url(#j)"><rect width="130.386" height="114.228" transform="matrix(0.993, -0.12, 0.12, 0.993, -12.004, 1.453)" fill="#e7c78c"/></g></g><g transform="translate(17.88 27.783)"><g transform="translate(0 0)" clip-path="url(#k)"><rect width="0.895" height="0.706" transform="translate(-0.073 0.009) rotate(-6.9)" fill="#e7c78c"/></g></g><g transform="translate(17.426 27.587)"><g transform="translate(0 0)" clip-path="url(#l)"><rect width="0.126" height="0.048" transform="matrix(0.993, -0.12, 0.12, 0.993, -0.004, 0)" fill="#e7c78c"/></g></g><g transform="translate(17.533 27.506)"><g transform="translate(0 0)" clip-path="url(#m)"><rect width="0.048" height="0.019" transform="matrix(0.993, -0.12, 0.12, 0.993, -0.002, 0)" fill="#e7c78c"/></g></g><g transform="translate(0 0)"><g clip-path="url(#n)"><rect width="56.838" height="51.544" transform="matrix(0.993, -0.12, 0.12, 0.993, -5.446, 0.659)" fill="#e7c78c"/></g></g></g></svg>