<svg xmlns="http://www.w3.org/2000/svg" xmlns:xlink="http://www.w3.org/1999/xlink" width="299.17" height="233" viewBox="0 0 299.17 233"><defs><linearGradient id="a" x1="0.5" x2="0.5" y2="1" gradientUnits="objectBoundingBox"><stop offset="0" stop-color="#f2dfb5"/><stop offset="1" stop-color="#dfb66e"/></linearGradient><clipPath id="b"><rect width="277.228" height="192.117" fill="url(#a)"/></clipPath><clipPath id="h"><rect width="17.421" height="29.739"/></clipPath><clipPath id="i"><rect width="29.739" height="29.739"/></clipPath></defs><g transform="translate(-6752.415 10569)"><g transform="translate(5551.585 -13826)"><g transform="translate(1200.83 3275.328) rotate(-3)"><g clip-path="url(#b)"><path d="M214.522,30.068h-2.68A27.418,27.418,0,0,0,184.455,2.681V0a30.1,30.1,0,0,1,30.067,30.067" transform="translate(62.706 0)" fill="url(#a)"/><path d="M184.454,151v-2.68a27.418,27.418,0,0,0,27.387-27.387h2.68A30.1,30.1,0,0,1,184.454,151" transform="translate(62.705 41.113)" fill="url(#a)"/><path d="M30.068,151A30.1,30.1,0,0,1,0,120.937h2.68a27.418,27.418,0,0,0,27.387,27.387Z" transform="translate(0 41.113)" fill="url(#a)"/><path d="M2.68,30.068H0A30.1,30.1,0,0,1,30.067,0v2.68A27.418,27.418,0,0,0,2.68,30.068" transform="translate(0 0)" fill="url(#a)"/></g></g><path d="M88.111,47.607l8.554,8.553L55.775,97.048,32.4,73.672l8.556-8.553L55.775,79.94ZM55.775,72.287,40.954,57.465,24.744,73.672,55.775,104.7l48.542-48.542L88.111,39.954ZM61.9,0a2.612,2.612,0,0,0-.277.023c-.076.008-.152.011-.227.026-.093.018-.184.05-.276.077S60.96.169,60.886.2s-.151.074-.227.114-.17.087-.251.14c-.016.011-.034.017-.05.028A151.887,151.887,0,0,1,2.2,25.008l-2.192.424V59.379Q0,59.909,0,60.437v.291A90.845,90.845,0,0,0,6.536,94.487a2.706,2.706,0,1,0,5.025-2.011A85.524,85.524,0,0,1,5.42,59.414V29.883A157.14,157.14,0,0,0,61.9,5.97a157.158,157.158,0,0,0,56.483,23.913V59.414c0,24.886-8.606,45.175-25.577,60.3a88.836,88.836,0,0,1-30.906,17.7c-10.8-3.6-30.85-12.66-44.016-32.9a2.706,2.706,0,1,0-4.537,2.952c10.432,16.035,27.08,28.5,46.874,35.089l.485.162,1.193.707,1.195-.707c.117-.041.28-.094.483-.162a94.277,94.277,0,0,0,32.829-18.808c18.173-16.2,27.389-37.844,27.389-64.34V25.432l-2.192-.424A151.9,151.9,0,0,1,63.445.48C63.431.47,63.414.464,63.4.454a2.708,2.708,0,0,0-.27-.15c-.069-.035-.137-.075-.208-.1a2.654,2.654,0,0,0-.255-.081c-.084-.025-.165-.053-.25-.07S62.244.03,62.158.021A2.4,2.4,0,0,0,61.912,0Z" transform="translate(1297.56 3294.386)" fill="url(#a)"/><circle cx="22.5" cy="22.5" r="22.5" transform="translate(1250 3257)" fill="#c2ac6e"/><circle cx="22.5" cy="22.5" r="22.5" transform="translate(1275 3445)" fill="#c2ac6e"/><circle cx="22.5" cy="22.5" r="22.5" transform="translate(1455 3324)" fill="#c2ac6e"/><path d="M0,14.268A14.284,14.284,0,0,1,14.268,0a14.136,14.136,0,0,1,8.7,2.956L19.65,7.263a8.747,8.747,0,0,0-5.382-1.828,8.833,8.833,0,1,0,8.4,11.55h-8.4V11.55H28.536v2.718A14.268,14.268,0,0,1,0,14.268Z" transform="translate(1461 3334.464) rotate(-9)"/></g><g transform="matrix(0.985, -0.174, 0.174, 0.985, 6812.925, -10559.631)"><g clip-path="url(#h)"><path d="M10.95,29.739h-5.6a.871.871,0,0,1-.871-.871V18.54H.871A.871.871,0,0,1,0,17.669v-5.6A.871.871,0,0,1,.871,11.2H4.479V5.537A5.544,5.544,0,0,1,10.017,0H16.55a.871.871,0,0,1,.871.871v5.6a.871.871,0,0,1-.871.871H11.821V11.2H16.55a.871.871,0,0,1,.854,1.042l-1.12,5.6a.871.871,0,0,1-.854.7H11.821V28.868a.871.871,0,0,1-.871.871M6.222,28h3.857V17.669a.871.871,0,0,1,.871-.871h3.765l.771-3.857H10.95a.871.871,0,0,1-.871-.871v-5.6A.871.871,0,0,1,10.95,5.6h4.728V1.743H10.017A3.8,3.8,0,0,0,6.222,5.537V12.07a.871.871,0,0,1-.871.871H1.743V16.8H5.351a.871.871,0,0,1,.871.871Z"/></g></g><g transform="matrix(0.996, 0.087, -0.087, 0.996, 6835.568, -10374.609)"><g clip-path="url(#i)"><path d="M14.87,22.74a7.87,7.87,0,1,1,7.87-7.87,7.879,7.879,0,0,1-7.87,7.87m0-14A6.128,6.128,0,1,0,21,14.869,6.135,6.135,0,0,0,14.87,8.742m4.666,21H10.2A10.231,10.231,0,0,1,0,19.535V10.2A10.231,10.231,0,0,1,10.2,0h9.332a10.231,10.231,0,0,1,10.2,10.2v9.332a10.231,10.231,0,0,1-10.2,10.2m-9.332-28A8.488,8.488,0,0,0,1.743,10.2v9.332A8.488,8.488,0,0,0,10.2,28h9.332A8.488,8.488,0,0,0,28,19.535V10.2a8.488,8.488,0,0,0-8.461-8.461ZM23.058,7.633c.028,0,.057-.007.085-.013a.823.823,0,0,0,.083-.021c.027-.008.054-.018.08-.029s.052-.023.077-.036.05-.028.073-.044a.792.792,0,0,0,.069-.05c.022-.018.044-.037.064-.058a.714.714,0,0,0,.058-.064A.85.85,0,0,0,23.7,7.25a.819.819,0,0,0,.044-.073.833.833,0,0,0,.037-.078c.011-.026.021-.053.029-.08s.015-.055.021-.083a.8.8,0,0,0,.013-.084.866.866,0,0,0-.013-.256c-.006-.028-.013-.056-.021-.083s-.018-.054-.029-.08a.815.815,0,0,0-.037-.077.826.826,0,0,0-.044-.074.849.849,0,0,0-.051-.069c-.018-.022-.037-.043-.058-.064s-.041-.039-.064-.058a.8.8,0,0,0-.069-.05c-.024-.016-.048-.03-.073-.044s-.051-.025-.077-.036-.053-.02-.08-.029-.055-.015-.083-.021a.868.868,0,0,0-.341,0c-.027.006-.055.013-.083.021s-.054.018-.08.029-.052.023-.077.036-.05.028-.073.044a.8.8,0,0,0-.069.05c-.022.018-.044.038-.064.058s-.04.042-.058.064-.035.045-.051.069a.836.836,0,0,0-.044.074.826.826,0,0,0-.037.077c-.011.026-.021.053-.029.08s-.015.055-.021.083a.794.794,0,0,0-.013.085.844.844,0,0,0,0,.171.788.788,0,0,0,.013.084c.006.028.013.056.021.083s.018.054.029.08a.844.844,0,0,0,.037.078.829.829,0,0,0,.044.073c.016.024.033.047.051.069a.8.8,0,0,0,.058.064c.02.02.041.039.064.058a.791.791,0,0,0,.069.05c.024.016.048.031.073.044s.051.025.077.036.053.02.08.029a.822.822,0,0,0,.083.021c.028.006.057.01.085.013s.057,0,.086,0,.057,0,.086,0"/></g></g></g></svg>