<svg xmlns="http://www.w3.org/2000/svg" width="50.001" height="50.001" viewBox="0 0 50.001 50.001"><path d="M50,25A25.007,25.007,0,0,1,28.907,49.7V32.228h5.825L35.841,25H28.907v-4.69c0-1.978.969-3.9,4.074-3.9h3.152V10.254a38.454,38.454,0,0,0-5.6-.488c-5.71,0-9.443,3.461-9.443,9.727V25H14.747v7.227h6.348V49.7A25,25,0,1,1,50,25Z" fill="#1877f2"/><path d="M170.986,122.462l1.108-7.227h-6.934v-4.69c0-1.977.969-3.9,4.074-3.9h3.153v-6.153a38.445,38.445,0,0,0-5.6-.488c-5.711,0-9.443,3.461-9.443,9.727v5.508H151v7.227h6.348v17.47a25.265,25.265,0,0,0,7.813,0v-17.47Z" transform="translate(-136.253 -90.234)" fill="#fff"/></svg>