<svg xmlns="http://www.w3.org/2000/svg" xmlns:xlink="http://www.w3.org/1999/xlink" width="286.903" height="206.362" viewBox="0 0 286.903 206.362"><defs><linearGradient id="a" x1="0.5" x2="0.5" y2="1" gradientUnits="objectBoundingBox"><stop offset="0" stop-color="#f2dfb5"/><stop offset="1" stop-color="#dfb66e"/></linearGradient><clipPath id="f"><rect width="277.228" height="192.117" fill="url(#a)"/></clipPath></defs><g transform="translate(-6287.549 10994.743)"><g transform="translate(6327.615 -10983.415)"><path d="M22.388,144.248a11.036,11.036,0,0,1-1-4.6v-3.282a266.441,266.441,0,0,1,13.142-82.7l59,.061c-2.477,7.777-4.621,15.723-6.384,23.672l5.262,1.168c1.853-8.351,4.138-16.7,6.79-24.84h5.741a10.793,10.793,0,0,0,10.78-10.78V34.866a2.7,2.7,0,0,0-2.7-2.7H99.548a10.793,10.793,0,0,1,10.78-10.78h.488a10.8,10.8,0,0,1,10.4,7.944l3.966,14.542c.941,3.448,1.824,6.967,2.627,10.459l5.253-1.207c-.819-3.562-1.72-7.152-2.68-10.67l-3.966-14.542A16.206,16.206,0,0,0,110.816,16H37.561A16.189,16.189,0,0,0,21.39,32.171v10.78A10.8,10.8,0,0,0,29,53.255a271.709,271.709,0,0,0-13,83.111v3.282a16.388,16.388,0,0,0,1.482,6.834ZM110.328,37.561v5.39a5.39,5.39,0,0,1-10.78,0v-5.39ZM26.78,42.951V32.171a10.793,10.793,0,0,1,10.78-10.78H98.285a16.106,16.106,0,0,0-4.128,10.78v10.78a10.716,10.716,0,0,0,1.447,5.39H32.171a5.4,5.4,0,0,1-5.39-5.39Z" transform="translate(0)" fill="url(#a)"/><path d="M204.417,221.025l-1.227,5.249c16.367,3.827,22.174,8.912,22.174,12.1,0,2.744-3.895,5.928-11.1,8.742-1.258-4.008-6.321-7.323-15.1-9.871l-1.5,5.177c7.486,2.172,11.118,4.793,11.5,6.452-10.708,3.258-26.345,5.671-45.782,5.671s-35.075-2.413-45.783-5.672c.539-2.544,8.225-6.865,24.591-9.123l-.737-5.34c-8.211,1.133-15.189,2.89-20.18,5.081-4.918,2.159-7.86,4.717-8.782,7.625-7.2-2.814-11.1-6-11.1-8.742,0-1.136.926-5.173,12.841-9.412,9.076-3.23,21.8-5.486,35.837-6.353l-.333-5.38c-14.523.9-27.773,3.261-37.311,6.655C98.849,228.717,96,234.433,96,238.378a45.615,45.615,0,0,0,3.114,16.6L104.568,269l5.024-1.954-5.454-14.025a40.514,40.514,0,0,1-1.543-4.855,52.6,52.6,0,0,0,14.291,6.138c12.455,3.633,28.966,5.633,46.492,5.633s34.037-2,46.492-5.633a52.6,52.6,0,0,0,14.291-6.138,40.517,40.517,0,0,1-1.543,4.855l-9.253,23.793a24.225,24.225,0,0,1-3.588,6.266L214,286.427a29.605,29.605,0,0,0,4.386-7.658l9.253-23.793a45.615,45.615,0,0,0,3.114-16.6C230.755,228.638,214.254,223.325,204.417,221.025Z" transform="translate(-53.049 -133.439)" fill="url(#a)"/><path d="M279.071,83.022A55.256,55.256,0,0,0,248.6,110.107l-7.755,15.507,4.821,2.411,7.755-15.508A49.85,49.85,0,0,1,278.91,88.861a10.683,10.683,0,0,0,.523,1.537,79.334,79.334,0,0,0-18.96,24.266l-7.934,15.413,4.792,2.467,7.937-15.419a73.918,73.918,0,0,1,17.49-22.48,10.744,10.744,0,0,0,.939.634,10.524,10.524,0,0,0,1.112.575q-1.618,3.031-3.375,6.307-4.409,8.23-9.085,17.063l-6.112,11.528L271,133.276l6.115-11.536q4.651-8.839,9.07-17.035c1.393-2.6,2.733-5.1,4-7.471a49.2,49.2,0,0,1-5.955,26.549l-3.785,6.94,4.732,2.581,3.785-6.939A54.591,54.591,0,0,0,295.4,94.712a10.455,10.455,0,0,0,2.735-2.979l21.451-35.1a10.552,10.552,0,1,0-18.008-11l-21.451,35.1a10.628,10.628,0,0,0-1.051,2.293Zm5.65.517,21.451-35.1a5.162,5.162,0,1,1,8.81,5.384l-21.451,35.1a5.162,5.162,0,0,1-8.81-5.384Z" transform="translate(-149.098 -16.295)" fill="url(#a)"/><path d="M150.169,395.425a10.112,10.112,0,0,0-7.71-2.6l-2.545.231A18.872,18.872,0,0,0,123.8,384H45.646a18.876,18.876,0,0,0-16.117,9.059l-2.538-.231a10.079,10.079,0,1,0-.907,20.116c.3,0,.6-.014.907-.041l2.537-.231a18.989,18.989,0,0,0,16.118,9.059H123.8a18.729,18.729,0,0,0,13.339-5.525,18.965,18.965,0,0,0,2.783-3.533l2.537.231c.3.027.612.041.918.041a10.079,10.079,0,0,0,6.789-17.52ZM26.5,407.535a4.689,4.689,0,1,1-.439-9.358q.218,0,.439.02l16.226,1.475a3.207,3.207,0,0,1,0,6.388h0Zm9.346,4.563,7.368-.67h0a8.6,8.6,0,0,0,0-17.125l-7.383-.671c.094-.1.187-.2.284-.3a13.485,13.485,0,1,1-.27,18.761Zm97.482.3a13.375,13.375,0,0,1-9.527,3.946H58.831a18.824,18.824,0,0,0,0-26.951H123.8a13.475,13.475,0,0,1,9.527,23Zm10.049-4.84c-.145,0-.292-.007-.433-.019l-.838-.076a18.986,18.986,0,0,0-.008-9.187l.845-.077a4.689,4.689,0,1,1,.434,9.36Z" transform="translate(0 -244.025)" fill="url(#a)"/></g><g transform="translate(6287.549 -10980.234) rotate(-3)"><g clip-path="url(#f)"><path d="M214.522,30.068h-2.68A27.418,27.418,0,0,0,184.455,2.681V0a30.1,30.1,0,0,1,30.067,30.067" transform="translate(62.706 0)" fill="url(#a)"/><path d="M184.454,151v-2.68a27.418,27.418,0,0,0,27.387-27.387h2.68A30.1,30.1,0,0,1,184.454,151" transform="translate(62.705 41.113)" fill="url(#a)"/><path d="M30.068,151A30.1,30.1,0,0,1,0,120.937h2.68a27.418,27.418,0,0,0,27.387,27.387Z" transform="translate(0 41.113)" fill="url(#a)"/><path d="M2.68,30.068H0A30.1,30.1,0,0,1,30.067,0v2.68A27.418,27.418,0,0,0,2.68,30.068" transform="translate(0 0)" fill="url(#a)"/></g></g></g></svg>