<svg xmlns="http://www.w3.org/2000/svg" xmlns:xlink="http://www.w3.org/1999/xlink" width="26.006" height="29.739" viewBox="0 0 26.006 29.739"><defs><linearGradient id="a" x1="1.552" y1="0.744" x2="-0.729" y2="1.174" gradientUnits="objectBoundingBox"><stop offset="0" stop-color="#f5e5c1"/><stop offset="1" stop-color="#deb56b"/></linearGradient><clipPath id="b"><rect width="26.006" height="29.739" fill="url(#a)"/></clipPath></defs><g clip-path="url(#b)"><path d="M9.737,29.739a9.737,9.737,0,0,1,0-19.474.871.871,0,0,1,.871.871V15.8a.871.871,0,0,1-.871.871A3.328,3.328,0,1,0,13.065,20V.871A.871.871,0,0,1,13.936,0H18.6a.871.871,0,0,1,.871.871,5.668,5.668,0,0,0,5.661,5.661.871.871,0,0,1,.871.871V12.07a.871.871,0,0,1-.871.871,11.987,11.987,0,0,1-5.661-1.407V20a9.737,9.737,0,0,1-9.737,9.737M8.865,12.055A7.994,7.994,0,1,0,17.731,20V9.967a.871.871,0,0,1,1.38-.707,10.238,10.238,0,0,0,5.152,1.9V8.224a7.419,7.419,0,0,1-6.482-6.481H14.807V20a5.071,5.071,0,1,1-5.942-5Z" fill="url(#a)"/></g></svg>