<svg xmlns="http://www.w3.org/2000/svg" xmlns:xlink="http://www.w3.org/1999/xlink" width="286.903" height="206.362" viewBox="0 0 286.903 206.362"><defs><linearGradient id="a" x1="0.5" x2="0.5" y2="1" gradientUnits="objectBoundingBox"><stop offset="0" stop-color="#f2dfb5"/><stop offset="1" stop-color="#dfb66e"/></linearGradient><clipPath id="b"><rect width="277.228" height="192.117" fill="url(#a)"/></clipPath></defs><g transform="translate(-7304.097 11183.709)"><g transform="translate(7304.097 -11169.2) rotate(-3)"><g clip-path="url(#b)"><path d="M214.522,30.068h-2.68A27.418,27.418,0,0,0,184.455,2.681V0a30.1,30.1,0,0,1,30.067,30.067" transform="translate(62.706 0)" fill="url(#a)"/><path d="M184.454,151v-2.68a27.418,27.418,0,0,0,27.387-27.387h2.68A30.1,30.1,0,0,1,184.454,151" transform="translate(62.705 41.113)" fill="url(#a)"/><path d="M30.068,151A30.1,30.1,0,0,1,0,120.937h2.68a27.418,27.418,0,0,0,27.387,27.387Z" transform="translate(0 41.113)" fill="url(#a)"/><path d="M2.68,30.068H0A30.1,30.1,0,0,1,30.067,0v2.68A27.418,27.418,0,0,0,2.68,30.068" transform="translate(0 0)" fill="url(#a)"/></g></g><path d="M87.065,118.449l.577,5.86,71.389-7.04-.577-5.859ZM84.65,93.955l.577,5.86,71.389-7.04-.577-5.86Zm-64.76,46.033a6,6,0,0,1-2.19-4.074L13.786,96.236a6.078,6.078,0,0,1,5.427-6.614L58.889,85.71c.2-.019.4-.029.6-.029A6.059,6.059,0,0,1,65.5,91.136l3.912,39.676a6.077,6.077,0,0,1-5.427,6.615L24.313,141.34a6,6,0,0,1-4.424-1.352M58.311,79.851,18.635,83.764A11.963,11.963,0,0,0,7.927,96.815l3.912,39.675A11.927,11.927,0,0,0,24.891,147.2l39.675-3.912a11.952,11.952,0,0,0,10.708-13.052L71.362,90.558a11.965,11.965,0,0,0-11.87-10.766q-.586,0-1.182.059M79.2,38.658l.577,5.86,71.389-7.041-.577-5.859ZM76.781,14.163l.578,5.859,71.389-7.04-.577-5.859ZM9.83,56.121,5.917,16.446A6.077,6.077,0,0,1,11.345,9.83L51.02,5.918c.2-.02.4-.029.6-.029a6.058,6.058,0,0,1,6.016,5.456L61.547,51.02a6.079,6.079,0,0,1-5.427,6.615L16.444,61.547q-.3.029-.6.029A6.06,6.06,0,0,1,9.83,56.121M51.559,0c-.37,0-.743.022-1.116.059L10.767,3.972A11.972,11.972,0,0,0,0,15.825v.03q0,.581.059,1.168L3.971,56.7a11.954,11.954,0,0,0,11.87,10.767c.391,0,.785-.019,1.181-.058L56.7,63.495A11.965,11.965,0,0,0,67.406,50.444L63.494,10.767A11.973,11.973,0,0,0,51.7,0Z" transform="translate(7366.941 -11154.156)" fill="url(#a)"/><g transform="translate(7313 -11127.966)"><ellipse cx="28.5" cy="28.5" rx="28.5" ry="28.5" transform="translate(14.56)" fill="#c92c2c"/><rect width="9.146" height="22.486" transform="translate(6.689 72.509) rotate(-137)" fill="#c92c2c"/></g></g></svg>