<svg xmlns="http://www.w3.org/2000/svg" xmlns:xlink="http://www.w3.org/1999/xlink" width="102.75" height="84.904" viewBox="0 0 102.75 84.904"><defs><linearGradient id="a" x1="0.5" x2="0.5" y2="1" gradientUnits="objectBoundingBox"><stop offset="0" stop-color="#f2dfb5"/><stop offset="1" stop-color="#dfb66e"/></linearGradient><clipPath id="b"><rect width="102.75" height="84.904" fill="url(#a)"/></clipPath></defs><g transform="translate(0 0)" clip-path="url(#b)"><path d="M102.566,78.526,92.421,41.64a5.054,5.054,0,0,0-4.86-3.7H85.068L91.034,27.6a6.878,6.878,0,0,0-2.518-9.4L58.576.919a6.886,6.886,0,0,0-9.4,2.518l-6.3,10.9,2.736,1.58,6.3-10.9A3.723,3.723,0,0,1,57,3.656L86.937,20.942a3.719,3.719,0,0,1,1.361,5.08L68.773,59.84H31.859l-5.476-3.161a3.723,3.723,0,0,1-1.361-5.08L41.683,22.741l-2.736-1.58L29.261,37.936H15.189a5.053,5.053,0,0,0-4.86,3.7L.183,78.526A5.041,5.041,0,0,0,5.043,84.9H97.706a5.041,5.041,0,0,0,4.86-6.377M99.2,81a1.866,1.866,0,0,1-1.5.741H5.043a1.881,1.881,0,0,1-1.813-2.38L13.375,42.477A1.885,1.885,0,0,1,15.189,41.1H27.437l-5.152,8.923a6.886,6.886,0,0,0,2.518,9.4l.736.425H16.648V63H86.1V59.84H72.421L83.243,41.1H87.56a1.886,1.886,0,0,1,1.814,1.382L99.519,79.364A1.866,1.866,0,0,1,99.2,81" transform="translate(0 0.001)" fill="url(#a)"/><rect width="21.903" height="3.16" transform="translate(12.098 8.768)" fill="url(#a)"/><rect width="13.505" height="3.16" transform="translate(20.112 15.502)" fill="url(#a)"/></g></svg>