<svg xmlns="http://www.w3.org/2000/svg" width="42.159" height="42.159" viewBox="0 0 42.159 42.159"><path d="M9.343,152.36l-1.468,5.478-5.364.113a21.116,21.116,0,0,1-.155-19.684h0l4.775.875,2.092,4.747a12.58,12.58,0,0,0,.118,8.47Z" transform="translate(0 -126.883)" fill="#fbbb00"/><path d="M281.876,208.176a21.071,21.071,0,0,1-7.514,20.377h0l-6.015-.307-.851-5.314a12.563,12.563,0,0,0,5.405-6.415H261.628v-8.339h20.248Z" transform="translate(-240.085 -191.034)" fill="#518ef8"/><path d="M62.272,321.449h0A21.086,21.086,0,0,1,30.509,315l6.831-5.592a12.537,12.537,0,0,0,18.066,6.419Z" transform="translate(-27.997 -283.932)" fill="#28b446"/><path d="M60.8,4.853l-6.829,5.591a12.535,12.535,0,0,0-18.481,6.564l-6.867-5.622h0A21.084,21.084,0,0,1,60.8,4.853Z" transform="translate(-26.267)" fill="#f14336"/></svg>