<svg xmlns="http://www.w3.org/2000/svg" xmlns:xlink="http://www.w3.org/1999/xlink" width="29.739" height="29.739" viewBox="0 0 29.739 29.739"><defs><linearGradient id="a" x1="1.552" y1="0.744" x2="-0.729" y2="1.174" gradientUnits="objectBoundingBox"><stop offset="0" stop-color="#f5e5c1"/><stop offset="1" stop-color="#deb56b"/></linearGradient><clipPath id="b"><rect width="29.739" height="29.739" fill="url(#a)"/></clipPath></defs><g clip-path="url(#b)"><path d="M14.87,22.74a7.87,7.87,0,1,1,7.87-7.87,7.879,7.879,0,0,1-7.87,7.87m0-14A6.128,6.128,0,1,0,21,14.869,6.135,6.135,0,0,0,14.87,8.742m4.666,21H10.2A10.231,10.231,0,0,1,0,19.535V10.2A10.231,10.231,0,0,1,10.2,0h9.332a10.231,10.231,0,0,1,10.2,10.2v9.332a10.231,10.231,0,0,1-10.2,10.2m-9.332-28A8.488,8.488,0,0,0,1.743,10.2v9.332A8.488,8.488,0,0,0,10.2,28h9.332A8.488,8.488,0,0,0,28,19.535V10.2a8.488,8.488,0,0,0-8.461-8.461ZM23.058,7.633c.028,0,.057-.007.085-.013a.823.823,0,0,0,.083-.021c.027-.008.054-.018.08-.029s.052-.023.077-.036.05-.028.073-.044a.792.792,0,0,0,.069-.05c.022-.018.044-.037.064-.058a.714.714,0,0,0,.058-.064A.85.85,0,0,0,23.7,7.25a.819.819,0,0,0,.044-.073.833.833,0,0,0,.037-.078c.011-.026.021-.053.029-.08s.015-.055.021-.083a.8.8,0,0,0,.013-.084.866.866,0,0,0-.013-.256c-.006-.028-.013-.056-.021-.083s-.018-.054-.029-.08a.815.815,0,0,0-.037-.077.826.826,0,0,0-.044-.074.849.849,0,0,0-.051-.069c-.018-.022-.037-.043-.058-.064s-.041-.039-.064-.058a.8.8,0,0,0-.069-.05c-.024-.016-.048-.03-.073-.044s-.051-.025-.077-.036-.053-.02-.08-.029-.055-.015-.083-.021a.868.868,0,0,0-.341,0c-.027.006-.055.013-.083.021s-.054.018-.08.029-.052.023-.077.036-.05.028-.073.044a.8.8,0,0,0-.069.05c-.022.018-.044.038-.064.058s-.04.042-.058.064-.035.045-.051.069a.836.836,0,0,0-.044.074.826.826,0,0,0-.037.077c-.011.026-.021.053-.029.08s-.015.055-.021.083a.794.794,0,0,0-.013.085.844.844,0,0,0,0,.171.788.788,0,0,0,.013.084c.006.028.013.056.021.083s.018.054.029.08a.844.844,0,0,0,.037.078.829.829,0,0,0,.044.073c.016.024.033.047.051.069a.8.8,0,0,0,.058.064c.02.02.041.039.064.058a.791.791,0,0,0,.069.05c.024.016.048.031.073.044s.051.025.077.036.053.02.08.029a.822.822,0,0,0,.083.021c.028.006.057.01.085.013s.057,0,.086,0,.057,0,.086,0" fill="url(#a)"/></g></svg>