<svg xmlns="http://www.w3.org/2000/svg" xmlns:xlink="http://www.w3.org/1999/xlink" width="286.902" height="220.877" viewBox="0 0 286.902 220.877"><defs><linearGradient id="a" x1="0.5" x2="0.5" y2="1" gradientUnits="objectBoundingBox"><stop offset="0" stop-color="#f2dfb5"/><stop offset="1" stop-color="#dfb66e"/></linearGradient><clipPath id="c"><rect width="277.228" height="192.117" fill="url(#a)"/></clipPath><clipPath id="h"><rect width="142.497" height="141.683" fill="url(#a)"/></clipPath></defs><g transform="translate(-437.789 -3383.703)"><g transform="translate(437.789 3398.212) rotate(-3)"><g clip-path="url(#c)"><path d="M214.522,30.068h-2.68A27.418,27.418,0,0,0,184.455,2.681V0a30.1,30.1,0,0,1,30.067,30.067" transform="translate(62.706 0)" fill="url(#a)"/><path d="M184.454,151v-2.68a27.418,27.418,0,0,0,27.387-27.387h2.68A30.1,30.1,0,0,1,184.454,151" transform="translate(62.705 41.113)" fill="url(#a)"/><path d="M30.068,151A30.1,30.1,0,0,1,0,120.937h2.68a27.418,27.418,0,0,0,27.387,27.387Z" transform="translate(0 41.113)" fill="url(#a)"/><path d="M2.68,30.068H0A30.1,30.1,0,0,1,30.067,0v2.68A27.418,27.418,0,0,0,2.68,30.068" transform="translate(0 0)" fill="url(#a)"/></g></g><g transform="translate(515.704 3416.043)"><g clip-path="url(#h)"><path d="M101.608,25.87a5.617,5.617,0,0,0-5.425-3.946H81.247L76.674,7.776a5.7,5.7,0,0,0-10.851,0L61.249,21.923H46.313a5.7,5.7,0,0,0-3.341,10.322l12.1,8.749L50.435,55.152a5.7,5.7,0,0,0,8.781,6.38l12.032-8.783L83.28,61.532a5.617,5.617,0,0,0,6.714.007,5.614,5.614,0,0,0,2.067-6.387L87.427,40.995l12.1-8.749a5.615,5.615,0,0,0,2.084-6.376m-5.345,1.866L82.519,37.675A2.783,2.783,0,0,0,81.505,40.8l5.266,16.088a.247.247,0,0,1,.016.078.232.232,0,0,1-.153.112c-.012,0-.03-.009-.072-.04L72.89,47.056a2.784,2.784,0,0,0-3.282,0l-13.673,9.98a.237.237,0,0,1-.069.04.13.13,0,0,1-.14-.191L60.992,40.8a2.785,2.785,0,0,0-1.015-3.121l-13.744-9.94a.278.278,0,0,1-.059-.053.131.131,0,0,1,.139-.192H63.274a2.784,2.784,0,0,0,2.649-1.928l5.2-16.074a.256.256,0,0,1,.032-.073.237.237,0,0,1,.192,0,.245.245,0,0,1,.033.074l5.2,16.074a2.783,2.783,0,0,0,2.648,1.928H96.183a.232.232,0,0,1,.079.01.227.227,0,0,1,.06.182.277.277,0,0,1-.059.055M76.649,92.7v24.492a2.783,2.783,0,0,1-5.567,0V95.483H68.631a2.783,2.783,0,1,1,0-5.566h5.235A2.784,2.784,0,0,1,76.649,92.7m34.892-44.851-10.248-4.91-2.405,5.021,10.248,4.91M91.725,13.22l9.282-9.283L97.071,0,87.789,9.283ZM41.212,3.937l9.282,9.283L54.43,9.283,45.148,0M33.361,52.869l10.248-4.91L41.2,42.938l-10.248,4.91Zm106.353,36.49H100.75V73.774h6.55V68.208H35.2v5.566h6.549V89.359H2.783A2.784,2.784,0,0,0,0,92.143V138.9a2.783,2.783,0,0,0,2.783,2.783H139.714A2.783,2.783,0,0,0,142.5,138.9V92.143a2.784,2.784,0,0,0-2.783-2.783M41.747,136.117H5.566V94.926H41.747Zm95.184,0H100.75v-8.071H95.183v8.071H47.313V73.774h47.87V103h5.566V94.926h36.182ZM99.938,113.551a2.809,2.809,0,0,1,0,3.942,3.431,3.431,0,0,1-.427.34,2.574,2.574,0,0,1-.483.261,3.75,3.75,0,0,1-.515.158,3.2,3.2,0,0,1-.546.056,2.709,2.709,0,0,1-2.312-1.244,2.525,2.525,0,0,1-.261-.483,3.891,3.891,0,0,1-.158-.514,2.72,2.72,0,0,1,0-1.092,3.841,3.841,0,0,1,.158-.515,2.6,2.6,0,0,1,.261-.483,2.24,2.24,0,0,1,.34-.427,2.893,2.893,0,0,1,3.942,0" transform="translate(0)" fill="url(#a)"/></g></g><path d="M20,0l5,14.132,15,.383L28.09,23.632,32.361,38,20,29.5,7.639,38,11.91,23.632,0,14.515l15-.383Z" transform="translate(480.039 3434.43) rotate(-21)" fill="#c92c2c"/><path d="M11.157,0l2.789,7.884,8.368.214-6.644,5.086L18.053,21.2l-6.9-4.74-6.9,4.74,2.382-8.016L0,8.1l8.368-.214Z" transform="translate(675.487 3467.182) rotate(15)" fill="#c92c2c"/><path d="M11.157,0l2.789,7.884,8.368.214-6.644,5.086L18.053,21.2l-6.9-4.74-6.9,4.74,2.382-8.016L0,8.1l8.368-.214Z" transform="translate(555 3584.659) rotate(-20)" fill="#c92c2c"/></g></svg>