<svg xmlns="http://www.w3.org/2000/svg" xmlns:xlink="http://www.w3.org/1999/xlink" width="29.739" height="24.14" viewBox="0 0 29.739 24.14"><defs><linearGradient id="a" x1="1.552" y1="0.744" x2="-0.729" y2="1.174" gradientUnits="objectBoundingBox"><stop offset="0" stop-color="#f5e5c1"/><stop offset="1" stop-color="#deb56b"/></linearGradient><clipPath id="b"><rect width="29.739" height="24.14" fill="url(#a)"/></clipPath></defs><g clip-path="url(#b)"><path d="M227.042,158.723a2.041,2.041,0,0,1-1.083-.3,2.354,2.354,0,0,1-1.026-2.082v-6.533a2.188,2.188,0,0,1,3.348-2.069l7.025,3.513a1.908,1.908,0,0,1,0,3.645l-7.025,3.513h0a2.781,2.781,0,0,1-1.238.312m.849-1.092h0Zm-.846-8.462a.322.322,0,0,0-.17.04.727.727,0,0,0-.2.6v6.533a.493.493,0,0,0,.826.51l7.025-3.513a.278.278,0,1,0,0-.528L227.5,149.3a1.079,1.079,0,0,0-.457-.13" transform="translate(-215.133 -141.006)" fill="url(#a)"/><path d="M26.535,24.14H3.2a3.208,3.208,0,0,1-3.2-3.2V3.2A3.208,3.208,0,0,1,3.2,0h23.33a3.208,3.208,0,0,1,3.2,3.2V20.935a3.208,3.208,0,0,1-3.2,3.2M3.2,1.743A1.463,1.463,0,0,0,1.743,3.2V20.935A1.463,1.463,0,0,0,3.2,22.4h23.33A1.463,1.463,0,0,0,28,20.935V3.2a1.463,1.463,0,0,0-1.462-1.462Z" fill="url(#a)"/></g></svg>