<svg xmlns="http://www.w3.org/2000/svg" xmlns:xlink="http://www.w3.org/1999/xlink" width="286.903" height="206.362" viewBox="0 0 286.903 206.362"><defs><linearGradient id="a" x1="0.5" x2="0.5" y2="1" gradientUnits="objectBoundingBox"><stop offset="0" stop-color="#f2dfb5"/><stop offset="1" stop-color="#dfb66e"/></linearGradient><clipPath id="c"><rect width="277.228" height="192.117" fill="url(#a)"/></clipPath><clipPath id="h"><rect width="140.323" height="115.952" fill="url(#a)"/></clipPath><clipPath id="l"><path d="M36.157,0a14.135,14.135,0,0,0-9.978,4.153l-.987.988L24.2,4.153A14.134,14.134,0,0,0,14.226,0h-.095A14.179,14.179,0,0,0,0,14.131v.1A14.134,14.134,0,0,0,4.153,24.2l.988.988L25.192,45.242,45.242,25.191l.988-.988a14.135,14.135,0,0,0,4.153-9.978v-.095A14.179,14.179,0,0,0,36.252,0Z" fill="#c92c2c"/></clipPath></defs><g transform="translate(-431.148 -2609.703)"><g transform="translate(431.148 2624.212) rotate(-3)"><g clip-path="url(#c)"><path d="M214.522,30.068h-2.68A27.418,27.418,0,0,0,184.455,2.681V0a30.1,30.1,0,0,1,30.067,30.067" transform="translate(62.706 0)" fill="url(#a)"/><path d="M184.454,151v-2.68a27.418,27.418,0,0,0,27.387-27.387h2.68A30.1,30.1,0,0,1,184.454,151" transform="translate(62.705 41.113)" fill="url(#a)"/><path d="M30.068,151A30.1,30.1,0,0,1,0,120.937h2.68a27.418,27.418,0,0,0,27.387,27.387Z" transform="translate(0 41.113)" fill="url(#a)"/><path d="M2.68,30.068H0A30.1,30.1,0,0,1,30.067,0v2.68A27.418,27.418,0,0,0,2.68,30.068" transform="translate(0 0)" fill="url(#a)"/></g></g><g transform="translate(502.701 2651.912)"><g transform="translate(0 0)" clip-path="url(#h)"><path d="M140.072,107.242,126.217,56.867a6.9,6.9,0,0,0-6.637-5.058h-3.4L124.324,37.7a9.394,9.394,0,0,0-3.439-12.832L80,1.256A9.4,9.4,0,0,0,67.163,4.694l-8.6,14.892L62.3,21.743,70.9,6.852a5.084,5.084,0,0,1,6.937-1.859L118.728,28.6a5.078,5.078,0,0,1,1.859,6.938L93.922,81.722H43.509L36.03,77.4a5.084,5.084,0,0,1-1.859-6.937l22.753-39.41L53.188,28.9,39.962,51.809H20.743a6.9,6.9,0,0,0-6.637,5.058L.25,107.242a6.884,6.884,0,0,0,6.637,8.71H133.435a6.884,6.884,0,0,0,6.637-8.71m-4.594,3.383a2.548,2.548,0,0,1-2.043,1.012H6.887a2.568,2.568,0,0,1-2.476-3.25L18.267,58.011a2.574,2.574,0,0,1,2.476-1.887H37.471L30.435,68.31a9.4,9.4,0,0,0,3.438,12.832l1.005.58H22.736v4.315h94.85V81.722H98.9l14.779-25.6h5.9a2.576,2.576,0,0,1,2.477,1.887l13.855,50.375a2.549,2.549,0,0,1-.434,2.238" transform="translate(0 0.001)" fill="url(#a)"/><rect width="29.913" height="4.315" transform="translate(16.522 11.975)" fill="url(#a)"/><rect width="18.443" height="4.315" transform="translate(27.466 21.171)" fill="url(#a)"/></g></g><g transform="translate(454.295 2666.623) rotate(-17)"><g clip-path="url(#l)"><rect width="61.282" height="64.017" transform="translate(-16.217 38.392) rotate(-67.1)" fill="#c92c2c"/></g></g></g></svg>