<svg xmlns="http://www.w3.org/2000/svg" xmlns:xlink="http://www.w3.org/1999/xlink" width="17.421" height="29.739" viewBox="0 0 17.421 29.739"><defs><linearGradient id="a" x1="1.552" y1="0.744" x2="-0.729" y2="1.174" gradientUnits="objectBoundingBox"><stop offset="0" stop-color="#f5e5c1"/><stop offset="1" stop-color="#deb56b"/></linearGradient><clipPath id="b"><rect width="17.421" height="29.739" fill="url(#a)"/></clipPath></defs><g clip-path="url(#b)"><path d="M10.95,29.739h-5.6a.871.871,0,0,1-.871-.871V18.54H.871A.871.871,0,0,1,0,17.669v-5.6A.871.871,0,0,1,.871,11.2H4.479V5.537A5.544,5.544,0,0,1,10.017,0H16.55a.871.871,0,0,1,.871.871v5.6a.871.871,0,0,1-.871.871H11.821V11.2H16.55a.871.871,0,0,1,.854,1.042l-1.12,5.6a.871.871,0,0,1-.854.7H11.821V28.868a.871.871,0,0,1-.871.871M6.222,28h3.857V17.669a.871.871,0,0,1,.871-.871h3.765l.771-3.857H10.95a.871.871,0,0,1-.871-.871v-5.6A.871.871,0,0,1,10.95,5.6h4.728V1.743H10.017A3.8,3.8,0,0,0,6.222,5.537V12.07a.871.871,0,0,1-.871.871H1.743V16.8H5.351a.871.871,0,0,1,.871.871Z" fill="url(#a)"/></g></svg>