<svg xmlns="http://www.w3.org/2000/svg" xmlns:xlink="http://www.w3.org/1999/xlink" width="286.903" height="206.362" viewBox="0 0 286.903 206.362"><defs><linearGradient id="a" x1="0.5" x2="0.5" y2="1" gradientUnits="objectBoundingBox"><stop offset="0" stop-color="#f2dfb5"/><stop offset="1" stop-color="#dfb66e"/></linearGradient><clipPath id="c"><rect width="162.752" height="134.485" fill="url(#a)"/></clipPath><clipPath id="g"><rect width="277.228" height="192.117" fill="url(#a)"/></clipPath></defs><g transform="translate(-5776.789 10737.297)"><g transform="translate(5847.417 -10707.959)"><g transform="translate(0 0)" clip-path="url(#c)"><path d="M162.46,124.383l-16.07-58.427a8,8,0,0,0-7.7-5.867h-3.948l9.451-16.369a10.895,10.895,0,0,0-3.988-14.883L92.781,1.457A10.907,10.907,0,0,0,77.9,5.445L67.927,22.717l4.334,2.5L82.233,7.947a5.9,5.9,0,0,1,8.046-2.156L137.7,33.172a5.89,5.89,0,0,1,2.156,8.046L108.934,94.784H50.463l-8.674-5.007a5.9,5.9,0,0,1-2.156-8.046l26.39-45.709-4.334-2.5L46.349,60.09H24.058a8,8,0,0,0-7.7,5.867L.29,124.383a7.984,7.984,0,0,0,7.7,10.1H154.762a7.984,7.984,0,0,0,7.7-10.1m-5.329,3.923a2.956,2.956,0,0,1-2.369,1.173H7.988a2.979,2.979,0,0,1-2.872-3.769l16.07-58.427a2.986,2.986,0,0,1,2.872-2.189h19.4L35.3,79.228a10.908,10.908,0,0,0,3.988,14.883l1.166.673H26.37v5H136.38v-5H114.713l17.142-29.69h6.838a2.987,2.987,0,0,1,2.873,2.189l16.07,58.427a2.956,2.956,0,0,1-.5,2.6" transform="translate(0 0.001)" fill="url(#a)"/><rect width="34.693" height="5.005" transform="translate(19.163 13.889)" fill="url(#a)"/><rect width="21.391" height="5.005" transform="translate(31.856 24.555)" fill="url(#a)"/></g></g><g transform="translate(5776.789 -10722.788) rotate(-3)"><g clip-path="url(#g)"><path d="M214.522,30.068h-2.68A27.418,27.418,0,0,0,184.455,2.681V0a30.1,30.1,0,0,1,30.067,30.067" transform="translate(62.706 0)" fill="url(#a)"/><path d="M184.454,151v-2.68a27.418,27.418,0,0,0,27.387-27.387h2.68A30.1,30.1,0,0,1,184.454,151" transform="translate(62.705 41.113)" fill="url(#a)"/><path d="M30.068,151A30.1,30.1,0,0,1,0,120.937h2.68a27.418,27.418,0,0,0,27.387,27.387Z" transform="translate(0 41.113)" fill="url(#a)"/><path d="M2.68,30.068H0A30.1,30.1,0,0,1,30.067,0v2.68A27.418,27.418,0,0,0,2.68,30.068" transform="translate(0 0)" fill="url(#a)"/></g></g></g></svg>