<svg xmlns="http://www.w3.org/2000/svg" width="2192.01" height="1545.674" viewBox="0 0 2192.01 1545.674"><g transform="translate(173.614 -2314.529)"><path d="M2262.258-9772.57l-1.762-.945a258.568,258.568,0,0,1,21.606-33.74,258.4,258.4,0,0,1,25.912-29.284,277.687,277.687,0,0,1,29.883-25.12,317.118,317.118,0,0,1,33.519-21.252,377.81,377.81,0,0,1,36.823-17.685c12.514-5.22,25.905-10.071,39.8-14.42,13.409-4.2,27.691-8.051,42.449-11.456,14.19-3.274,29.254-6.232,44.773-8.793,14.853-2.451,30.59-4.615,46.774-6.431,15.4-1.728,31.7-3.2,48.45-4.367,30.844-2.153,63.76-3.376,100.631-3.736q11.588-.113,23.266-.11c60.979,0,123.312,2.176,183.828,4.287,58.451,2.04,115.74,4.04,169.7,4.04,94.222,0,178.324-6.092,240.988-28.7a401.06,401.06,0,0,0,87-43.509c25.576-17.119,47.7-36.69,65.771-58.172,18.095-21.515,31.813-44.589,40.775-68.58a187.827,187.827,0,0,0,12.052-74.765c-1.309-28.205-9.206-56.05-23.472-82.763a250.8,250.8,0,0,0-27.383-40.675,324.444,324.444,0,0,0-38.631-39.33,434.567,434.567,0,0,0-50.486-37.319,589.679,589.679,0,0,0-62.941-34.638,799.034,799.034,0,0,0-75.993-31.288c-27.915-9.918-58.074-19.094-89.64-27.271-17.585-4.556-34.514-9.724-50.315-15.359a468.2,468.2,0,0,1-43.849-18.107,371.845,371.845,0,0,1-37.624-20.575,300.176,300.176,0,0,1-31.639-22.764,249.053,249.053,0,0,1-25.89-24.672,215.144,215.144,0,0,1-20.376-26.295,195.465,195.465,0,0,1-15.1-27.633,187.866,187.866,0,0,1-10.054-28.678,196.9,196.9,0,0,1-5.487-66.226,242.5,242.5,0,0,1,15.664-66.758,310.969,310.969,0,0,1,34.078-64.139,376.925,376.925,0,0,1,49.78-58.4,413.007,413.007,0,0,1,37.149-31.636,422.869,422.869,0,0,1,41.424-27.573,411.944,411.944,0,0,1,93.2-40.062,379.527,379.527,0,0,1,102.855-15.1q1.142-.007,2.285-.007a361.852,361.852,0,0,1,51.208,3.641,361.238,361.238,0,0,1,54.036,12.06,682.4,682.4,0,0,0,68.955,17.135c22.608,4.388,45.967,7.738,69.427,9.958,22.676,2.146,46.046,3.293,69.462,3.409q1.98.009,3.969.01c21.348,0,43.224-.848,65.093-2.523,84.931-6.508,173.574-25.587,263.467-56.708,39.392-13.638,79.067-29.633,117.925-47.543,35.523-16.373,70.527-34.414,104.038-53.622,30.664-17.575,59.813-35.965,86.638-54.657a790.162,790.162,0,0,0,65.723-50.646l1.311,1.51a791.883,791.883,0,0,1-65.889,50.776c-26.874,18.727-56.073,37.147-86.788,54.752-33.562,19.237-68.618,37.3-104.2,53.7-38.917,17.937-78.654,33.957-118.107,47.617-90.055,31.177-178.866,50.291-263.968,56.812-21.918,1.68-43.847,2.529-65.245,2.529q-1.993,0-3.979-.01c-23.476-.116-46.906-1.267-69.641-3.418-23.525-2.226-46.948-5.586-69.619-9.985a684.456,684.456,0,0,1-69.158-17.187,359.382,359.382,0,0,0-53.735-11.992,359.862,359.862,0,0,0-50.923-3.62q-1.137,0-2.274.007a377.566,377.566,0,0,0-102.313,15.021,409.974,409.974,0,0,0-92.742,39.868,420.878,420.878,0,0,0-41.227,27.442,410.885,410.885,0,0,0-36.968,31.481,374.97,374.97,0,0,0-49.516,58.085,308.94,308.94,0,0,0-33.86,63.725,240.489,240.489,0,0,0-15.538,66.206,194.907,194.907,0,0,0,5.429,65.555,185.865,185.865,0,0,0,9.947,28.371,193.438,193.438,0,0,0,14.943,27.349,213.07,213.07,0,0,0,20.187,26.05,247,247,0,0,0,25.682,24.473,298.191,298.191,0,0,0,31.427,22.61,369.66,369.66,0,0,0,37.421,20.464,466.006,466.006,0,0,0,43.661,18.029c15.746,5.616,32.617,10.767,50.145,15.308,31.623,8.191,61.839,17.385,89.808,27.322a800.947,800.947,0,0,1,76.185,31.367,591.65,591.65,0,0,1,63.156,34.757,436.616,436.616,0,0,1,50.719,37.493,326.342,326.342,0,0,1,38.869,39.574,252.829,252.829,0,0,1,27.6,41c14.407,26.978,22.383,55.108,23.705,83.612a189.813,189.813,0,0,1-12.176,75.558c-9.041,24.206-22.875,47.477-41.117,69.167-18.187,21.626-40.457,41.323-66.189,58.547a403.017,403.017,0,0,1-87.433,43.728c-62.925,22.7-147.272,28.816-241.686,28.817-54,0-111.275-2-169.749-4.04-60.493-2.111-122.817-4.286-183.757-4.286q-11.664,0-23.249.11c-36.83.36-69.707,1.581-100.511,3.731-16.726,1.168-33,2.635-48.366,4.359-16.15,1.813-31.852,3.971-46.671,6.416-15.479,2.555-30.5,5.5-44.65,8.77-14.708,3.393-28.94,7.233-42.3,11.415-13.836,4.331-27.169,9.161-39.627,14.357a375.761,375.761,0,0,0-36.628,17.591,314.779,314.779,0,0,0-33.307,21.117,275.61,275.61,0,0,0-29.667,24.938,256.38,256.38,0,0,0-25.711,29.057A256.584,256.584,0,0,0,2262.258-9772.57Z" transform="translate(-2374 13614)" fill="#eed5a4" opacity="0.097"/><path d="M2262.253-9737.748l-1.753-.963a265.086,265.086,0,0,1,22.732-34.674,269.184,269.184,0,0,1,27.3-30.16,293.838,293.838,0,0,1,31.519-25.944,339.615,339.615,0,0,1,35.378-22.027,408.744,408.744,0,0,1,38.882-18.417c13.216-5.45,27.36-10.534,42.038-15.109,14.165-4.415,29.253-8.488,44.845-12.107,14.991-3.48,30.907-6.646,47.306-9.411,15.693-2.646,32.32-5.006,49.42-7.017,16.265-1.912,33.488-3.569,51.188-4.925,32.584-2.5,67.353-4.06,106.3-4.781q25.961-.482,52.265-.459c55.46,0,111.58,1.385,166.295,2.734,52.97,1.308,105.023,2.592,154.669,2.592,107.291,0,203.385-6,273.513-30.713a465.806,465.806,0,0,0,94.265-45.233c28-17.724,52.3-37.823,72.225-59.739,20.073-22.074,35.344-45.595,45.391-69.908,10.326-24.99,14.979-50.484,13.828-75.771-1.232-27.057-9.116-53.709-23.433-79.215a237.7,237.7,0,0,0-27.586-38.9,318.851,318.851,0,0,0-39.051-37.674,442.541,442.541,0,0,0-51.175-35.864,619.026,619.026,0,0,0-63.948-33.473c-23.8-10.821-49.828-21.082-77.367-30.5-28.426-9.718-59.187-18.783-91.428-26.942-74.455-18.844-134.673-46.927-178.982-83.47a274,274,0,0,1-28.44-27.01,237.746,237.746,0,0,1-22.431-28.8,216.352,216.352,0,0,1-16.676-30.243,207.4,207.4,0,0,1-11.177-31.348,213.964,213.964,0,0,1-6.657-69.166,252.853,252.853,0,0,1,14.72-69.289,310.267,310.267,0,0,1,33.49-66.107,363.391,363.391,0,0,1,49.671-59.648,393.6,393.6,0,0,1,76.1-57.711,391.642,391.642,0,0,1,90.886-38.654,374.685,374.685,0,0,1,101.427-14.144h.234a372.28,372.28,0,0,1,53.1,3.826,382.326,382.326,0,0,1,54.365,12,725.228,725.228,0,0,0,72.4,17.54c23.8,4.494,48.44,7.929,73.243,10.21,23.973,2.205,48.728,3.39,73.576,3.521,23.984.127,48.68-.724,73.4-2.528,23.828-1.74,48.295-4.41,72.719-7.938,23.508-3.395,47.573-7.669,71.529-12.705,23.023-4.84,46.517-10.5,69.829-16.832,22.375-6.075,45.126-12.91,67.621-20.317,42.322-13.935,84.91-30.26,126.581-48.521,38.249-16.762,75.811-35.185,111.643-54.756,33.017-18.033,64.183-36.822,92.631-55.846,13.375-8.942,26.13-17.934,37.913-26.722,11.448-8.54,22.09-16.972,31.629-25.062l1.294,1.525c-9.571,8.117-20.246,16.575-31.728,25.139-11.81,8.81-24.594,17.819-38,26.782-28.5,19.056-59.715,37.876-92.785,55.938-35.882,19.6-73.5,38.047-111.8,54.831-41.729,18.286-84.376,34.635-126.758,48.59-22.528,7.417-45.313,14.263-67.722,20.347-23.349,6.34-46.881,12.012-69.941,16.859-24,5.045-48.1,9.327-71.654,12.728-24.471,3.534-48.984,6.21-72.86,7.953-23.164,1.691-46.306,2.547-68.864,2.547q-2.353,0-4.694-.013c-24.906-.132-49.718-1.319-73.749-3.529-24.866-2.286-49.572-5.73-73.431-10.236a727.247,727.247,0,0,1-72.6-17.589,380.412,380.412,0,0,0-54.079-11.937,370.252,370.252,0,0,0-52.812-3.806h-.234a372.7,372.7,0,0,0-100.885,14.068,389.636,389.636,0,0,0-90.422,38.457,391.593,391.593,0,0,0-75.712,57.418c-37.949,36.9-66.537,80.12-82.673,125a250.847,250.847,0,0,0-14.606,68.739,211.969,211.969,0,0,0,6.593,68.521,205.393,205.393,0,0,0,11.069,31.044,214.318,214.318,0,0,0,16.521,29.963,235.77,235.77,0,0,0,22.242,28.553,271.976,271.976,0,0,0,28.232,26.812c44.079,36.353,104.034,64.3,178.2,83.073,32.293,8.174,63.107,17.254,91.584,26.989,27.6,9.436,53.69,19.721,77.548,30.569a621.235,621.235,0,0,1,64.156,33.581,444.5,444.5,0,0,1,51.407,36.029,320.834,320.834,0,0,1,39.3,37.912,239.677,239.677,0,0,1,27.817,39.231c14.472,25.781,22.441,52.731,23.687,80.1,1.165,25.582-3.538,51.362-13.977,76.626-10.135,24.528-25.531,48.244-45.76,70.49-20.049,22.049-44.487,42.264-72.635,60.083a467.871,467.871,0,0,1-94.67,45.431c-70.391,24.81-166.72,30.825-274.194,30.826-49.675,0-101.713-1.284-154.7-2.592-71.966-1.776-146.381-3.615-218.474-2.275-38.9.721-73.635,2.283-106.18,4.775-17.673,1.354-34.868,3.008-51.107,4.917-17.067,2.007-33.661,4.362-49.321,7-16.358,2.758-32.234,5.916-47.186,9.387-15.544,3.608-30.584,7.669-44.7,12.069-14.622,4.557-28.709,9.62-41.87,15.049a406.887,406.887,0,0,0-38.692,18.325,337.558,337.558,0,0,0-35.168,21.9,291.831,291.831,0,0,0-31.3,25.766,267.13,267.13,0,0,0-27.1,29.937A262.946,262.946,0,0,0,2262.253-9737.748Z" transform="translate(-2423.114 13596.594)" fill="#eed5a4" opacity="0.097"/><path d="M2262.253-9737.748l-1.753-.963a265.086,265.086,0,0,1,22.732-34.674,269.184,269.184,0,0,1,27.3-30.16,293.838,293.838,0,0,1,31.519-25.944,339.615,339.615,0,0,1,35.378-22.027,408.744,408.744,0,0,1,38.882-18.417c13.216-5.45,27.36-10.534,42.038-15.109,14.165-4.415,29.253-8.488,44.845-12.107,14.991-3.48,30.907-6.646,47.306-9.411,15.693-2.646,32.32-5.006,49.42-7.017,16.265-1.912,33.488-3.569,51.188-4.925,32.584-2.5,67.353-4.06,106.3-4.781q25.961-.482,52.265-.459c55.46,0,111.58,1.385,166.295,2.734,52.97,1.308,105.023,2.592,154.669,2.592,107.291,0,203.385-6,273.513-30.713a465.806,465.806,0,0,0,94.265-45.233c28-17.724,52.3-37.823,72.225-59.739,20.073-22.074,35.344-45.595,45.391-69.908,10.326-24.99,14.979-50.484,13.828-75.771-1.232-27.057-9.116-53.709-23.433-79.215a237.7,237.7,0,0,0-27.586-38.9,318.851,318.851,0,0,0-39.051-37.674,442.541,442.541,0,0,0-51.175-35.864,619.026,619.026,0,0,0-63.948-33.473c-23.8-10.821-49.828-21.082-77.367-30.5-28.426-9.718-59.187-18.783-91.428-26.942-74.455-18.844-134.673-46.927-178.982-83.47a274,274,0,0,1-28.44-27.01,237.746,237.746,0,0,1-22.431-28.8,216.352,216.352,0,0,1-16.676-30.243,207.4,207.4,0,0,1-11.177-31.348,213.964,213.964,0,0,1-6.657-69.166,252.853,252.853,0,0,1,14.72-69.289,310.267,310.267,0,0,1,33.49-66.107,363.391,363.391,0,0,1,49.671-59.648,393.6,393.6,0,0,1,76.1-57.711,391.642,391.642,0,0,1,90.886-38.654,374.685,374.685,0,0,1,101.427-14.144h.234a372.28,372.28,0,0,1,53.1,3.826,382.326,382.326,0,0,1,54.365,12,725.228,725.228,0,0,0,72.4,17.54c23.8,4.494,48.44,7.929,73.243,10.21,23.973,2.205,48.728,3.39,73.576,3.521,23.984.127,48.68-.724,73.4-2.528,23.828-1.74,48.295-4.41,72.719-7.938,23.508-3.395,47.573-7.669,71.529-12.705,23.023-4.84,46.517-10.5,69.829-16.832,22.375-6.075,45.126-12.91,67.621-20.317,42.322-13.935,84.91-30.26,126.581-48.521,38.249-16.762,75.811-35.185,111.643-54.756,33.017-18.033,64.183-36.822,92.631-55.846,13.375-8.942,26.13-17.934,37.913-26.722,11.448-8.54,22.09-16.972,31.629-25.062l1.294,1.525c-9.571,8.117-20.246,16.575-31.728,25.139-11.81,8.81-24.594,17.819-38,26.782-28.5,19.056-59.715,37.876-92.785,55.938-35.882,19.6-73.5,38.047-111.8,54.831-41.729,18.286-84.376,34.635-126.758,48.59-22.528,7.417-45.313,14.263-67.722,20.347-23.349,6.34-46.881,12.012-69.941,16.859-24,5.045-48.1,9.327-71.654,12.728-24.471,3.534-48.984,6.21-72.86,7.953-23.164,1.691-46.306,2.547-68.864,2.547q-2.353,0-4.694-.013c-24.906-.132-49.718-1.319-73.749-3.529-24.866-2.286-49.572-5.73-73.431-10.236a727.247,727.247,0,0,1-72.6-17.589,380.412,380.412,0,0,0-54.079-11.937,370.252,370.252,0,0,0-52.812-3.806h-.234a372.7,372.7,0,0,0-100.885,14.068,389.636,389.636,0,0,0-90.422,38.457,391.593,391.593,0,0,0-75.712,57.418c-37.949,36.9-66.537,80.12-82.673,125a250.847,250.847,0,0,0-14.606,68.739,211.969,211.969,0,0,0,6.593,68.521,205.393,205.393,0,0,0,11.069,31.044,214.318,214.318,0,0,0,16.521,29.963,235.77,235.77,0,0,0,22.242,28.553,271.976,271.976,0,0,0,28.232,26.812c44.079,36.353,104.034,64.3,178.2,83.073,32.293,8.174,63.107,17.254,91.584,26.989,27.6,9.436,53.69,19.721,77.548,30.569a621.235,621.235,0,0,1,64.156,33.581,444.5,444.5,0,0,1,51.407,36.029,320.834,320.834,0,0,1,39.3,37.912,239.677,239.677,0,0,1,27.817,39.231c14.472,25.781,22.441,52.731,23.687,80.1,1.165,25.582-3.538,51.362-13.977,76.626-10.135,24.528-25.531,48.244-45.76,70.49-20.049,22.049-44.487,42.264-72.635,60.083a467.871,467.871,0,0,1-94.67,45.431c-70.391,24.81-166.72,30.825-274.194,30.826-49.675,0-101.713-1.284-154.7-2.592-71.966-1.776-146.381-3.615-218.474-2.275-38.9.721-73.635,2.283-106.18,4.775-17.673,1.354-34.868,3.008-51.107,4.917-17.067,2.007-33.661,4.362-49.321,7-16.358,2.758-32.234,5.916-47.186,9.387-15.544,3.608-30.584,7.669-44.7,12.069-14.622,4.557-28.709,9.62-41.87,15.049a406.887,406.887,0,0,0-38.692,18.325,337.558,337.558,0,0,0-35.168,21.9,291.831,291.831,0,0,0-31.3,25.766,267.13,267.13,0,0,0-27.1,29.937A262.946,262.946,0,0,0,2262.253-9737.748Z" transform="translate(-2434.114 13597.951)" fill="#eed5a4" opacity="0.097"/></g></svg>