<svg xmlns="http://www.w3.org/2000/svg" xmlns:xlink="http://www.w3.org/1999/xlink" width="102.31" height="63.496" viewBox="0 0 102.31 63.496"><defs><clipPath id="a"><path d="M.915,33.426h14.9l.219-.292A44.433,44.433,0,0,1,31.255,20.318a44.093,44.093,0,0,1,39.992,0A44.427,44.427,0,0,1,86.464,33.134l.219.292H101.4v37.24H.915Zm14.448-.911H0V71.577H102.312V32.515H87.139a44.92,44.92,0,0,0-71.775,0" transform="translate(-0.004 -14.612)" fill="none"/></clipPath><linearGradient id="b" y1="1.002" x2="0.004" y2="1.002" gradientUnits="objectBoundingBox"><stop offset="0" stop-color="#e9e7e5"/><stop offset="0" stop-color="#e3dfdc"/><stop offset="0.064" stop-color="#d4d0ce"/><stop offset="0.186" stop-color="#aeaaac"/><stop offset="0.264" stop-color="#938e93"/><stop offset="0.496" stop-color="#f3f3f3"/><stop offset="0.532" stop-color="#e4e4e4"/><stop offset="0.602" stop-color="#bdbdbd"/><stop offset="0.628" stop-color="#aeadae"/><stop offset="0.876" stop-color="#878285"/><stop offset="1" stop-color="#d5d5d5"/><stop offset="1" stop-color="#adadad"/></linearGradient><clipPath id="c"><path d="M140.52,43.528l-6.425,2.339-.374.207q.489,1.179.977,2.36c.123.3.188.494.311.792a2.108,2.108,0,0,0,.122.3c.1.165.167-.05.278-.161a3.2,3.2,0,0,1,.986-.578.952.952,0,0,1,1.331.5,3.017,3.017,0,0,1-.363,2.477,9.032,9.032,0,0,0-.486.785,1.353,1.353,0,0,0,.029,1.145l.323.9q.343.959.687,1.918l.485,1.354,8.052-2.92-2.421-5.835-2.41-5.932c-.4.036-.711.276-1.1.347" transform="translate(-133.721 -43.181)" fill="none"/></clipPath><clipPath id="d"><rect width="6.429" height="4.001" fill="none"/></clipPath><clipPath id="e"><rect width="5.157" height="5.038" fill="none"/></clipPath><clipPath id="f"><rect width="4.467" height="6.066" fill="none"/></clipPath><clipPath id="g"><rect width="4.002" height="6.846" fill="none"/></clipPath><clipPath id="h"><rect width="6.644" height="6.465" fill="none"/></clipPath><clipPath id="i"><path d="M124.533,57.37a7.621,7.621,0,0,0-1.07,1.137c-.373.338-.274.947-.251,1.441a53.359,53.359,0,0,0-9.973,6.48,48.132,48.132,0,0,1-.638,5.7c.013-.074,1.484-.445,1.649-.508a14.416,14.416,0,0,0,1.627-.743,17.443,17.443,0,0,0,2.969-2.018,22.34,22.34,0,0,0,3.437-3.622c.224-.294.5-.5.721-.793a2.676,2.676,0,0,1,.73-.774,3.824,3.824,0,0,0,.741-.371c.4-.365.176-.97.08-1.414a3.13,3.13,0,0,1-.014-1.713,6.394,6.394,0,0,1,.458-.8,8.07,8.07,0,0,0,.5-1.247.886.886,0,0,0-.1-.689.687.687,0,0,0-.466-.211.654.654,0,0,0-.395.144" transform="translate(-112.601 -57.226)" fill="none"/></clipPath><clipPath id="j"><rect width="13.353" height="13.751" fill="none"/></clipPath><clipPath id="k"><path d="M31.2,62.371c1.288,1.264-.693,9.5,2.4,4.479a29.866,29.866,0,0,1,5.987-.781l.578-1.05c.266-.3.363-.808.809-.914.2.047.156.288.2.4l.976-1.1h.18c.11.025.11.159.144.23-.624.844-1.241,1.7-1.77,2.578a40.911,40.911,0,0,0-4.8,22.3l1.077.147,6.364.294,9.344.051c2.95-4.9,4.1-13.194,3.1-19.18l.121-.2c.578-.062.468.685.686,1.036a2.535,2.535,0,0,0,.265-.771c.024-.147.159-.435.35-.327.386.445.034,1.133.024,1.675,1.181.468,7.429,3.755,8.658,4.092,3.269.163,10.274-4.713,9.762-6.088-.368-.987-3.476-.875-5.952-.764-1.835.083-3.32.165-3.084-.2-.495.763-10.069-3.889-10.7-4.261a22.459,22.459,0,0,0-8.162-2.694,31.08,31.08,0,0,0-4.481-.3A68.238,68.238,0,0,0,31.2,62.371" transform="translate(-31.198 -61.017)" fill="none"/></clipPath><clipPath id="l"><rect width="1.353" height="14.763" fill="none"/></clipPath><clipPath id="m"><rect width="11.581" height="6.504" fill="none"/></clipPath><clipPath id="n"><rect width="16.209" height="8.049" fill="none"/></clipPath><clipPath id="o"><path d="M182.629,75.165c-.613.43-1.193,1.075-1.791,1.546-.971.085-1.905.251-2.9.254l-5.492,5.083-.152.174c.13,0,.27,0,.412,0a6.115,6.115,0,0,0,.741-.023l4.2-3.908c.633-.154,1.306-.2,1.936-.353a.588.588,0,0,1,.654.224,7.312,7.312,0,0,1,.089,2.15c-.65.573-1.31,1.267-1.882,1.871l1,0,1.9-1.8.215-2.733,1.6-1.891.029-.3a.576.576,0,0,0-.523-.3h-.037" transform="translate(-172.291 -75.164)" fill="none"/></clipPath><linearGradient id="p" x1="-7.067" y1="4.25" x2="-7.026" y2="4.25" xlink:href="#b"/><clipPath id="q"><path d="M128.618,91.789l-.141.082c-.046.242-.173.578.117.73,1.529.08,3.207.07,4.772.08l.81.081a.388.388,0,0,1,.278.417.376.376,0,0,1-.359.256l-4.668.022-.118.058a22.683,22.683,0,0,0,11.15,18.031l8.809-.122,1.17-.756c4.251-2.913,7.979-6.228,9.229-11.61a26.979,26.979,0,0,0,.776-5.288l-3.729-.034-.58-.082c-.1-.151-.321-.219-.275-.44a.533.533,0,0,1,.36-.313l4.643-.023a1.186,1.186,0,0,0,.81-.5c.025-.231.082-.475-.173-.592l-28.1-.023Z" transform="translate(-128.41 -91.766)" fill="none"/></clipPath><clipPath id="r"><rect width="13.892" height="16.784" fill="none"/></clipPath><clipPath id="s"><path d="M206.4,89.2a27.926,27.926,0,0,0-.627,2.892l-.994,7.821-.152.321-2.025.089a.644.644,0,0,0-.337.413l.029,9.211,10.012-.032-.079-8.665-.073-.638a.668.668,0,0,0-.423-.35c-.419-.022-.836-.019-1.249-.017-.459,0-.914.006-1.363-.025l-.124-.193c-.186-.576.545-.269.739-.589.338-.34.182-.874.119-1.284l-1.271-8.416a.88.88,0,0,0-.7-.52,1.886,1.886,0,0,1-.516-.1,1.913,1.913,0,0,0-.512-.1.612.612,0,0,0-.452.183" transform="translate(-202.264 -89.021)" fill="none"/></clipPath><clipPath id="t"><rect width="6.521" height="8.688" fill="none"/></clipPath><clipPath id="u"><rect width="4.114" height="11.569" fill="none"/></clipPath><clipPath id="v"><rect width="3.002" height="1.62" fill="none"/></clipPath><clipPath id="w"><rect width="8.213" height="3.353" fill="none"/></clipPath><clipPath id="x"><rect width="1.869" height="1.602" fill="none"/></clipPath><clipPath id="y"><rect width="2.103" height="1.573" fill="none"/></clipPath><clipPath id="z"><rect width="2.103" height="1.781" fill="none"/></clipPath></defs><g transform="translate(533 -447)"><path d="M87.272,32.922a44.74,44.74,0,0,0-71.594,0H.41V63.256H102.356V32.922Z" transform="translate(-533.227 438.695)" fill="#db0032"/><g transform="translate(-532.998 453.532)" clip-path="url(#a)"><rect width="102.308" height="56.965" transform="translate(0 0)" fill="url(#b)"/></g><g transform="translate(-473.225 466.302)" clip-path="url(#c)"><rect width="9.138" height="4.61" transform="translate(1.581 7.547) rotate(-20.175)" fill="#fff"/><path d="M141.109,62.521c.252-.071.5-.139.768-.24s.489-.2.448-.31c-.03-.08-.076-.111-.294-.031l-.122.046c-.7.259-1.067.141-1.262-.387-.261-.708.169-.932.8-1.163a8.456,8.456,0,0,1,1.071-.3l.257.7a6.878,6.878,0,0,0-.7.214c-.375.138-.388.208-.355.3.039.107.106.122.286.055l.283-.1c.478-.177.738-.133.921.364.269.731-.234.981-.849,1.208a9.181,9.181,0,0,1-1.024.3l-.224-.608" transform="translate(-137.507 -52.558)"/><path d="M147.624,59.88c.214-.079.245-.255.147-.519s-.235-.378-.449-.3c-.233.086-.228.3-.147.519.1.264.2.391.449.3m.327.062-.008,0c.071.439-.053.679-.554.865-.742.274-1.069-.388-1.31-1.042-.224-.608-.216-1.163.449-1.409a.688.688,0,0,1,.918.239l.008,0-.163-.44,1-.368.848,2.3-1,.368Z" transform="translate(-140.482 -51.258)"/><path d="M152.356,57.326l-.218.081-.264-.716.218-.08-.117-.318c-.215-.585,0-.823.669-1.072.245-.09.461-.152.675-.219l.233.631a1.706,1.706,0,0,0-.24.067c-.237.088-.317.2-.241.406l.047.127.578-.213.263.715-.578.213.4,1.095-1.025.378Z" transform="translate(-143.759 -49.718)"/><path d="M135.958,48.348a3.342,3.342,0,0,1,5.953-2.17l1.172-.427-1.652-4.377-8.216,3.1,1.617,4.282Z" transform="translate(-133.441 -42.182)" fill="#fff"/><path d="M136.973,56.359l-.17-.6,8.938-3.314.171.6Z" transform="translate(-135.425 -48.305)" fill="#1d1d1b"/><path d="M140.2,65.312l-.337-.574,8.938-3.314.337.574Z" transform="translate(-137.119 -53.269)" fill="#1d1d1b"/></g><path d="M154.05,74.058a.412.412,0,0,1-.03.36c-.1.158-.258.1-.4.069a2.1,2.1,0,0,1-.768-1.027.327.327,0,0,1,.259-.29c.4.139.667.569.937.887m-1.662.648c-.121-.329-.279-.8-.688-.857a.316.316,0,0,0-.219.31c.13.368.238.9.7.976.149-.059.319-.239.21-.429m-2.512.07a1.962,1.962,0,0,0,.292.715c.251.3.628.264.55-.152-.07-.377-.236-.915-.693-.941a.3.3,0,0,0-.15.379m4.188,1.915a1.955,1.955,0,0,0,.292.714c.251.3.628.264.55-.152-.07-.377-.236-.915-.693-.941a.3.3,0,0,0-.149.379m-4.622,3.336a1.948,1.948,0,0,0,.292.714c.25.3.627.264.55-.152-.07-.377-.236-.915-.693-.941a.3.3,0,0,0-.149.379m-.373-4.64c-.18-.23-.489-.658-.788-.4-.169.4.13.818.448,1.1.16.061.37.13.479-.1a1.726,1.726,0,0,0-.139-.6m6.429.3a2.024,2.024,0,0,0-.568-.669.315.315,0,0,0-.43.071c-.109.429.27.737.569,1.007a.363.363,0,0,0,.478-.1.88.88,0,0,0-.05-.308m-2.033,1.074c-.178-.378-.36-1.016-.856-1.076-.27-.033-.191.285-.165.451a1.533,1.533,0,0,0,.141.442,1.027,1.027,0,0,0,.67.57.341.341,0,0,0,.21-.388m-1.765.727a2.353,2.353,0,0,0-.38-.988.554.554,0,0,0-.187-.16.288.288,0,0,0-.24-.013.3.3,0,0,0-.158.23.682.682,0,0,0,.031.287,1.566,1.566,0,0,0,.624.952c.18-.009.27-.149.309-.308m1.012,2.664a2.368,2.368,0,0,0-.239-1.032.571.571,0,0,0-.163-.184.289.289,0,0,0-.236-.045.3.3,0,0,0-.189.206.681.681,0,0,0-.009.288,1.568,1.568,0,0,0,.486,1.029.349.349,0,0,0,.35-.262M148.2,76.739c-.03-.229-.379-.477-.528-.169a1.287,1.287,0,0,0-.1.849c.055.218.274.644.539.355a1.168,1.168,0,0,0,.087-1.035m1.656,1.108c.271-.2-.05-.855-.219-1.04-.126-.138-.4-.339-.487-.071a.938.938,0,0,0,0,.618c.078.234.4.72.706.493m3.495.2c-.216-.2-.535-.667-.865-.311a1.09,1.09,0,0,0,.459,1.067c.177.057.439.193.555.037.089-.223-.038-.422-.089-.623m-2.256.748a1.667,1.667,0,0,0-.459-.907c-.148-.1-.288.049-.358.169a1.582,1.582,0,0,0,.14.807c.1.16.258.379.477.34a.375.375,0,0,0,.2-.409m-2.068-.078c-.04-.27-.06-.617-.359-.717a.508.508,0,0,0-.27.21.993.993,0,0,0,.12,1.057c.07.079.209.049.289.019.18-.15.149-.378.22-.569" transform="translate(-614.586 406.537)" fill="#bcbec0"/><path d="M79.7,12.946l.279-4.956a9.63,9.63,0,0,1,1.275-.237c.4-.019.915.208,1.261.164,1.167-.149,2.106-2,1.851-3.033-.577-2.327-3.251-2.175-5.1-2.126l-2.991-.929-2.582.108-1.248.186L71.8,1.7,70.368,1.06,68.886.92,67.177,1.8,66.161,3.231l.185,1.942,1.94,1.109,1.8-.048L70.041,7.9l-1.245,3.1-2.682.556-1.664,1.894-1.433,4.991,1.618,3,1.658.264.085-1.064-.528-1.114.41-1.585.856-.484,1.666-.865,1,.41c1.038,1.035.937,1.425,2.237.266A9.963,9.963,0,0,0,74.5,14.294c.057-.117,1.525-1.935,1.509-1.938.1.019,3.7.591,3.7.591" transform="translate(-567.848 446.491)" fill="#fff"/><g transform="translate(-493.876 452.106)" style="mix-blend-mode:multiply;isolation:isolate"><g clip-path="url(#d)"><path d="M90.006,13.845a1.81,1.81,0,0,0,1.022.082c.511-.122.8-.215,1.2.1s1.232.785,1.379,1.391c.013.053.131-.33.183-.345.078-.022.072-.277.105-.351.157-.356-.086-.63-.1-1.019a.6.6,0,0,0-.089-.364.571.571,0,0,0-.267-.16,5.841,5.841,0,0,0-1.933-.345,4.354,4.354,0,0,1-2.345-.291c-.212-.135-1.18-1.136-1.448-1.121-.5.029.075.894.278,1.139a5.3,5.3,0,0,0,2.006,1.283" transform="translate(-87.524 -11.423)" fill="#d5d5d5"/></g></g><g transform="translate(-488.583 449.102)" style="mix-blend-mode:multiply;isolation:isolate"><g clip-path="url(#e)"><path d="M100.016,5.488a3.56,3.56,0,0,1,2.558.616,2.245,2.245,0,0,1,.414,2.857,1.912,1.912,0,0,0-.343.754c.308.1.608-.158.828-.4a3.8,3.8,0,0,0,.983-1.487,2.433,2.433,0,0,0-1.186-2.571,4.813,4.813,0,0,0-2.937-.531c-.924.078-1.47.919-.317.758" transform="translate(-99.363 -4.702)" fill="#d5d5d5"/></g></g><g transform="translate(-498.757 452.106)" style="mix-blend-mode:multiply;isolation:isolate"><g clip-path="url(#f)"><path d="M78.339,15.6a.447.447,0,0,0,.032.269.458.458,0,0,0,.21.158l1.763.851a1.327,1.327,0,0,1,.727.607,14.972,14.972,0,0,0-3.726-.384c-.291.007-.671-.042-.733-.327a.618.618,0,0,1,.032-.292q.412-1.509.825-3.017c.139-.509.223-1.514.729-1.824.194-.12.8-.325.983-.156.317.289-.174.965-.279,1.3a13,13,0,0,0-.56,2.813" transform="translate(-76.603 -11.423)" fill="#d5d5d5"/></g></g><path d="M64.528,39.487c-.049-.052-.107-.189-.156-.242l-.044.041a4.84,4.84,0,0,1-.974-4.414,9.308,9.308,0,0,0,.485-1.624.1.1,0,0,0-.044-.1c-.131-.064-.458.284-.544.365a4.1,4.1,0,0,0-.46.5,2.476,2.476,0,0,0-.437.892,4.3,4.3,0,0,0-.047,3.106A3.5,3.5,0,0,0,63.46,39.7c.219.17.248.588.49.721a.757.757,0,0,0,.452.121c.253-.033.375-.345.359-.574a.809.809,0,0,0-.234-.481" transform="translate(-567.307 428.675)" fill="#1d1d1b"/><path d="M65.228,26.448a15.488,15.488,0,0,0-3.677,2.969c-.14.094-.258-.023-.364-.142a.878.878,0,0,1-.224-.79,5.283,5.283,0,0,1,1.616-1.578,5.662,5.662,0,0,1,1.561-.755c.273-.109.474-.349.759-.418a2.836,2.836,0,0,1,.756.028c.458.03-.3.611-.427.686" transform="translate(-566.696 432.78)" fill="#1d1d1b"/><path d="M93.79,28.348c.047.187-.071.259-.164.364-.178-.011-.377-.058-.426-.248.012-.1-.071-.259.083-.317a.485.485,0,0,1,.507.2" transform="translate(-584.532 431.439)" fill="#1d1d1b"/><path d="M67.721,36.455l1.289,3.856,1.511,1.607,4.062,1.654L76.568,43l2.455-1.181,1.843-1.7,1.936.71,2.74-.424,1.135-1.419.046-1.559-1.132-1.465-1.467-1.131L83.415,33.6,82.66,30.11l-.189-2.829L78.333,26.5l-.778,1.74-1.021,1.617-1.379,1.618-1.32.72-.78-.118-.6-.84-1.2-.3-1.321.422-.959,1.559-.121,1.319.422.958-1.2.779Z" transform="translate(-570.449 432.345)" fill="#fbcabd"/><g transform="translate(-502.362 467.208)" style="mix-blend-mode:multiply;isolation:isolate"><g clip-path="url(#g)"><path d="M72.107,45.412c.11.362-.263.778-.523.976-.471.358-.9.133-1.406.308-.6.207-.46.737-.306,1.183a15.081,15.081,0,0,0,1.211,2.3,10.092,10.092,0,0,0,1.457,1.869,2.549,2.549,0,0,1-.827-.242c-.577-.669-1.154-1.337-1.714-2.021a5.425,5.425,0,0,1-1.456-2.721c-.091-.8,1.221-1.86,1.221-1.86a3.378,3.378,0,0,1,1.616.378c.159.084.689-.3.727-.174" transform="translate(-68.539 -45.206)" fill="#d5d5d5"/></g></g><g transform="translate(-497.557 459.06)" style="mix-blend-mode:multiply;isolation:isolate"><g clip-path="url(#h)"><path d="M80.652,33.392a4.227,4.227,0,0,0,1.586-1.116c.209-.207.389-.451.6-.65.5-.466.612.447,1.034,0a2.057,2.057,0,0,0,.346-1.112,13.411,13.411,0,0,1,.814-2.49c.223-.511,1.112-.652.847-.941s-1.156.1-1.44.356a2.753,2.753,0,0,0-.583.965,10.469,10.469,0,0,1-2.278,2.98c-.848.838-2.462.942-2.28,1.408a1.077,1.077,0,0,0,1.351.607" transform="translate(-79.287 -26.98)" fill="#d5d5d5"/></g></g><path d="M94.165,37.146c-.24.661.241-1.139,1.319-.78a2.07,2.07,0,0,1,1.2,2.4c-.119.9-.66,2.039-1.2,2.22a1.164,1.164,0,0,1-1.438-.718,5.092,5.092,0,0,1,.119-3.119" transform="translate(-584.902 426.916)" fill="#fff"/><path d="M94.422,29.844c.313-.1,1.246-.218,1.318.272a.454.454,0,0,1-.139.466c-.212.13-.49-.041-.708-.068a1.953,1.953,0,0,0-.839.107,1.117,1.117,0,0,1-.266.079.234.234,0,0,1-.236-.112c-.152-.325.661-.675.87-.744" transform="translate(-584.723 430.547)" fill="#1d1d1b"/><path d="M96.842,35.857a.477.477,0,0,1,.39-.082,1.25,1.25,0,0,1,.8.818.146.146,0,0,1,0,.084.068.068,0,0,1-.063.048.106.106,0,0,1-.065-.038,1.738,1.738,0,0,0-.784-.472c-.11-.026-.287-.06-.316-.193a.172.172,0,0,1,.042-.165" transform="translate(-586.526 427.222)" fill="#1d1d1b"/><path d="M95.3,36.674c-.2.1-.277-.342-.106-.444a.2.2,0,0,1,.056-.024.231.231,0,0,1,.262.159c.019.118-.116.261-.211.308" transform="translate(-585.587 426.981)" fill="#1d1d1b"/><path d="M94.025,41.091a.6.6,0,0,0,.41.229,6.471,6.471,0,0,1-.075-.867c.008-.267.112-.666.42-.739.075-.017.156-.019.194-.095a.585.585,0,1,1,.582-1.01,1.043,1.043,0,0,1,.519.808.907.907,0,0,1,.049-.2,1.046,1.046,0,0,1,.044-.175,2.259,2.259,0,0,0,.079-.433c.02-.139.089.008.11.057a1.477,1.477,0,0,1,.086.265,2.259,2.259,0,0,1,.037.635,3.519,3.519,0,0,1-.283,1.213,2.065,2.065,0,0,1-1.257,1.127,1.364,1.364,0,0,1-1.361-.757,3.047,3.047,0,0,1-.4-1.793,4.388,4.388,0,0,1,.135-.976,1.571,1.571,0,0,1,.457-.847.151.151,0,0,1,.141-.022c.157.067-.027.357-.063.451-.047.125-.089.252-.125.38a4.2,4.2,0,0,0-.141.8,3.252,3.252,0,0,0,.237,1.569,1.452,1.452,0,0,0,.211.376" transform="translate(-584.521 426.262)" fill="#1d1d1b"/><path d="M75.42,32.027H75.36L66,35.435l-.181.146,2,4.936c-.325.409-.733.833-.612,1.386.038.2-4.638,2.717-5.1,3.016a22.723,22.723,0,0,1-4.695,2.714,1.8,1.8,0,0,1-.478.125,1.62,1.62,0,0,1-.494-.059A35.222,35.222,0,0,1,45.712,42.89a6.213,6.213,0,0,0,4.847-2.769c.277-.339.66.154.986.337a4,4,0,0,0,4.242-.374,2.955,2.955,0,0,0,1.108-3.143c-.412-1.506-2.047-2.142-3.012-3.3-.228-.373-.229-.966-.746-.953-.148,0-.158.241-.121.4.541,2.086,3.937,2.519,3.324,5.1a2.185,2.185,0,0,1-1.157,1.468,3.75,3.75,0,0,1-3.269-.533,10.723,10.723,0,0,1-.855-.714c-.16-.132-.246.027-.35.164-.259.339-.445.723-.687,1.072A3.787,3.787,0,0,1,48.8,40.845c-.081.045-.59-.478-.656-.544a6.278,6.278,0,0,1-.569-.667,10.7,10.7,0,0,1-.912-1.532,1.384,1.384,0,0,1-.15-1.159.214.214,0,0,0-.145-.145,1.013,1.013,0,0,0-1.012.145.291.291,0,0,0,.145.4c.2-.016.3.093.338.278a7.455,7.455,0,0,0,.84,2.176,15.54,15.54,0,0,0,1.157,1.678c-1.421.892-3.407.445-4.878-.047a8.249,8.249,0,0,1-4.744-5.589A3.755,3.755,0,0,0,39.369,35a2.748,2.748,0,0,0,2.06-.038.3.3,0,0,0,.109-.455c-.1-.425-2.043-.032-2.309-1.283a2.775,2.775,0,0,1,1.065-2.257,1.653,1.653,0,0,1,1.737-.133c.379.207.755.521.723.949-.038.277.386.545.722.554a3.659,3.659,0,0,0,2.035-1.166,8.427,8.427,0,0,0,.8-.971c.151-.211.224-.556.415-.725.03-.026.08-.046.108-.017a.1.1,0,0,1,.015.075c-.006.214.258.466.318.143a2.6,2.6,0,0,1,.171-.71c.123-.258.235-.522.35-.783.222-.505.443-1.154.69-1.647a.238.238,0,0,1,.3-.167c1.308.135,2.2.029,3.507.163-.148-.335.232-.495-.122-.588L48.868,25.5c-.141-.037-.243.053-.388.068a1.132,1.132,0,0,0-.693.486c-.755.929-1.084,2.044-1.783,3.02a6.123,6.123,0,0,1-2.7,2.341,2.406,2.406,0,0,0-2.807-1.3,4.093,4.093,0,0,0-2.577,2.578c-.24.831-.242,1.346.387,1.854l.148.093c-.15.151-.3.384-.476.281a3.15,3.15,0,0,1-1.228-1.928.371.371,0,0,0-.063-.172.125.125,0,0,0-.164-.034,4.378,4.378,0,0,0-.294,1.154c-.025.161-.228.837-.149.945a8.31,8.31,0,0,0,.809.909,9,9,0,0,0,1.759,3.95c-.313.23-.256.193-.3.577a51.765,51.765,0,0,0-5.527-.273c-1.824.042-4.006.2-5.814.438-3.261.424-6.9.717-9.664,2.667a7.188,7.188,0,0,0-1.414,1.678A13.2,13.2,0,0,0,14.358,49.1a4.792,4.792,0,0,1-.135.761,27.885,27.885,0,0,0-.345,4.521c-.008.434-.005.868.01,1.3.007.21.017.419.03.628a2.721,2.721,0,0,1,.048.63c-.314,1.445-1.482,3.456.108,4.661l-.168.143a1.458,1.458,0,0,0-.348,1.531,1.663,1.663,0,0,0,1.42.865c.253.122.181.53.456.723.531.446,1.337.158,1.906,0,.432-.528.951.194,1.445-.167a1.637,1.637,0,0,0,1.156,1.24,3.09,3.09,0,0,0,2.023-.844,5.213,5.213,0,0,0,1.915-5.433c-.664-2.048-2.9-2.119-4.541-2.721A10.1,10.1,0,0,1,19.7,54.8a16.114,16.114,0,0,1,.651-2.022,19.981,19.981,0,0,1,1.021-1.932,9.9,9.9,0,0,1,.635-.941c.207-.269.477-.23.684-.506a5.409,5.409,0,0,1,1.084-1.163A4.43,4.43,0,0,1,25.086,48c.494-.076.988-.151,1.484-.215a9.853,9.853,0,0,1,2.234-.228c-3.144,6.072-4.81,15.531-4.6,22.492-.013,0,.142-.246.129-.25a3.73,3.73,0,0,1,.215,1.074c-.018.11-.029.22-.042.33a1.829,1.829,0,0,1,.4.052c.623.152,1.248.266,1.875.354,1.445-.071,2.89-.156,4.334-.246,2.279-.142,4.555-.342,6.836-.442,1.133-.05,2.279.011,3.421.052.677-.075,1.355-.146,2.034-.2a20.4,20.4,0,0,1-.076-2.694,71.663,71.663,0,0,1,1.2-9.4A35.659,35.659,0,0,1,46.432,53.1c.266-.426,1-.034,1-.034,2.472.859,4.6,1.879,7.041,2.848a6.986,6.986,0,0,0,1.836.538c1.375.141,2.917-.74,4.105-1.345a20.98,20.98,0,0,0,4.374-2.847A25.9,25.9,0,0,0,67.7,48.916a23.516,23.516,0,0,1,2.41-2.808c.493,1.155.743,1.877,1.284,3,3.144-1.178,6.325-2.25,9.457-3.444v-.109ZM71.794,48.085l-.485-1.353-.687-1.916-.323-.9a1.352,1.352,0,0,1-.029-1.144,9.051,9.051,0,0,1,.485-.784,3.014,3.014,0,0,0,.363-2.475.951.951,0,0,0-1.329-.5,3.214,3.214,0,0,0-.985.578c-.111.11-.178.325-.278.16a2.224,2.224,0,0,1-.122-.294c-.123-.3-.188-.494-.31-.791L67.12,36.3l.373-.207,6.418-2.336c.389-.071.7-.311,1.1-.347l2.407,5.926,2.419,5.829Z" transform="translate(-540.331 432.905)" fill="#1d1d1b"/><path d="M23.69,93.227a11.811,11.811,0,0,0-3.927-1.216l-.206-.167c.005-.174.261-3.219.273-3.392-.005,0-.557-.542-.562-.545-1.082-.745-2.1.408-3.4.184-.009.5.022,2.9.053,3.4-.121.9-.843,1.721-.494,2.684.481.965,1.529,1.135,2.434,1.385a.334.334,0,0,1,.228.411c-.542.519-1.481.181-2.06.686-.157.2-.409.483-.288.758s.4.35.637.435a3.267,3.267,0,0,0,3.155-1.388c.423-.683-.144-1.333-.287-1.972.059-.084.084-.253.228-.253.121-.109.24.049.291.143a3.508,3.508,0,0,1,.433,1.7A3.628,3.628,0,0,1,18,98.311c-.035.07.049.094.085.141,1.228.148,2.192-.925,2.746-1.877.337-.639-.022-1.289-.036-1.94.074-.108.18-.254.35-.193.289.181.241.6.41.891.264,1.074-.434,1.9-1.1,2.664a.186.186,0,0,0,.085.2c.578.05.938-.385,1.362-.722a2.091,2.091,0,0,0,.6-1.976c-.131-.445-.89-.892-.41-1.349a.242.242,0,0,1,.29-.037,2.558,2.558,0,0,1,.844,1.916,3.946,3.946,0,0,1-2.313,2.77.712.712,0,0,0,.64.289,5.042,5.042,0,0,0,2.457-2.541,3.159,3.159,0,0,0-.325-3.324" transform="translate(-541.479 398.529)" fill="#fbcabd"/><path d="M124.429,62.061C122.02,66.637,117.7,71.105,112.6,72.3a48.131,48.131,0,0,0,.638-5.7,53.382,53.382,0,0,1,9.973-6.48c.021-.011.014-.631.034-.713a1.5,1.5,0,0,1,.274-.632l.418-.493a2.195,2.195,0,0,1,.827-.7.5.5,0,0,1,.5.035c.2.167.11.441.059.65a4.555,4.555,0,0,1-.318.922c-.17.346-.411.654-.578,1a1.349,1.349,0,0,0-.092,1.117,3.168,3.168,0,0,1,.1.711" transform="translate(-595.267 415.182)" fill="#f0a7b1"/><path d="M124.555,61.883c.1.444.324,1.05-.08,1.414a3.8,3.8,0,0,1-.74.371,2.683,2.683,0,0,0-.731.774c-.224.291-.5.5-.721.793a22.362,22.362,0,0,1-3.437,3.622,17.448,17.448,0,0,1-2.969,2.018,14.347,14.347,0,0,1-1.627.743c-.165.063-1.636.434-1.649.508a48.039,48.039,0,0,0,.638-5.7,53.359,53.359,0,0,1,9.973-6.48c-.023-.495-.122-1.1.251-1.441a7.621,7.621,0,0,1,1.07-1.137.625.625,0,0,1,.861.067.889.889,0,0,1,.1.69,8.129,8.129,0,0,1-.5,1.247,6.357,6.357,0,0,0-.458.8,3.13,3.13,0,0,0,.015,1.713" transform="translate(-595.267 415.355)" fill="#fbcabd"/><g transform="translate(-482.666 472.581)" clip-path="url(#i)"><g transform="translate(-0.476 1.641)" style="mix-blend-mode:multiply;isolation:isolate"><g clip-path="url(#j)"><path d="M124.876,60.9c-.371.254-.557.7-.862,1.029a7.67,7.67,0,0,0-.628.625,1.881,1.881,0,0,0-.306.829c-.244,1.7-1.883,2.9-3.119,3.951-1.387,1.182-2.87,2.243-4.351,3.3a9.073,9.073,0,0,1-1.833,1.1c-.64.259-1.663.406-2.057,1.051-.269.441-.274,1.434.188,1.737a1.244,1.244,0,0,0,.906.079,11.4,11.4,0,0,0,5.547-2.718A35.282,35.282,0,0,0,124.3,65.1c.284-.413-.141-2.019-.327-2.466-.005-.013-.013-.024-.019-.038l.818-1.326a.469.469,0,0,0,.1-.378" transform="translate(-111.536 -60.897)" fill="#d5d5d5"/></g></g></g><path d="M64.293,64.328a29.5,29.5,0,0,1-2.916,2.252A7.158,7.158,0,0,1,59.035,67.6a3.661,3.661,0,0,1-1.794-.022,41.4,41.4,0,0,1-9.7-4.109c-.869-.513-1.6-1.035-2.356-1.444-.266-.144-.958.306-1.226.171-.371-.186-.662-.511-1.038-.7a6.455,6.455,0,0,0-1.36-.7,39.427,39.427,0,0,0-13.649-.323c-2.877.4-7.632,1.086-9.629,3.545a7.973,7.973,0,0,0-1.334,3.64Q16.6,69.48,16.256,71.3a14.533,14.533,0,0,0-.226,1.519,1.769,1.769,0,0,1,.224,0,18.748,18.748,0,0,1,2.078.329c.649.1,1.295.2,1.932.363a17.3,17.3,0,0,1,2.3-5.437c.964-1.42,1.887-1.656,3.442-1.927a30.217,30.217,0,0,1,5.193-.621l.578-1.05c.266-.3.362-.808.808-.914.2.048.2.147.253.255.232-.261.418-.559.659-.812.082-.086.243-.291.375-.3.232-.018.181.236.08.38a21.047,21.047,0,0,0-2.031,2.627c-2.963,6-5.4,14.781-4.82,22.262l1.742.147h7.271l.634-.018c1.633-.046,3.141.306,4.775.26.7-.02,1.84.12,2.544.094.4-.015.155-2.3.211-2.74.1-.8.07-1.645.1-2.452a47.226,47.226,0,0,1,.419-5.266,29.617,29.617,0,0,1,1.3-4.531A21.1,21.1,0,0,1,47.68,69.23c.578-.062.316.532.533.883a2.535,2.535,0,0,0,.265-.771c.024-.147.159-.435.351-.327.385.446.034,1.134.023,1.676,2.611,1.035,4.907,2.486,7.588,3.448a4.727,4.727,0,0,0,1.89.383,4.987,4.987,0,0,0,1.968-.728c.726-.394,1.426-.835,2.146-1.24.473-.266.9-.523,1.368-.8a8.146,8.146,0,0,0,1.34-1.005c.864-.781,1.81-1.47,2.619-2.31-.606-1.729-1.689-3.762-3.477-4.112" transform="translate(-541.864 413.802)" fill="#fff"/><g transform="translate(-519.054 474.275)" clip-path="url(#k)"><g transform="translate(10.383 7.277)" style="mix-blend-mode:multiply;isolation:isolate"><g clip-path="url(#l)"><path d="M55.664,87.64c.264-1.573-.324-3.459-.48-5.037-.044-.443.011-2.782-.247-4.681a1.051,1.051,0,0,1-.124-.626c-.085,1.7-.165,3.406-.128,5.135a39.88,39.88,0,0,1-.072,4.352q-.031.862-.043,1.725c.054.8-.176.921-.139,1.719.026.257.245,1.352.27,1.609.052.54.51-.092,1.078.075-.021-.006-.178-3.894-.114-4.271" transform="translate(-54.426 -77.296)" fill="#d5d5d5"/></g></g></g><path d="M89.251,77.967a.654.654,0,0,1-.06.519.248.248,0,0,1-.289.025c-.146-.17-.049-.41,0-.6.107-.1.312-.122.349.059" transform="translate(-582.119 403.959)" fill="#1d1d1b"/><path d="M23.6,101.55a.429.429,0,0,1-.168.314c-.169.061-.2-.146-.265-.23a.26.26,0,0,1,.181-.229.213.213,0,0,1,.252.146" transform="translate(-545.812 390.929)" fill="#1d1d1b"/><path d="M54.727,75.037c1.248,6.634-.335,14.452,2.053,20.87.086.231.742.143.69-.1-1.441-6.68-1.055-14.149-2.675-20.787-.011-.044-.05-.209-.123-.2Z" transform="translate(-563.232 405.628)" fill="#1d1d1b"/><path d="M80.643,3.564a1.248,1.248,0,0,0,.26.345c.072.057.274.148.355.072s-.006-.328-.057-.419c-.139-.245-.484-.427-.491-.734-.01-.434.708-.4,1-.405a4.446,4.446,0,0,1,2.668.84,2.53,2.53,0,0,1,.574.556c.864,1.214-.1,2.578-1.338,2.986a2.9,2.9,0,0,1-1.873-.026,3.234,3.234,0,0,1-1.277-.8l-.017-.018-.024.007A4.45,4.45,0,0,1,76.9,5.711a2.969,2.969,0,0,1-.556-.373c-.209-.165-.69-.586-.984-.459-.095.041-.124.136-.158.225l-.006.016,0,.014a.644.644,0,0,0,.262.439c.032.031.063.062.1.1a5.755,5.755,0,0,0,4.111,1.2,3.539,3.539,0,0,0,.737.471c.253.134.609.276.7.573a1.393,1.393,0,0,1,0,.582l-.449,3.37a4.976,4.976,0,0,0-1.436-.017l-.022.007,0,.022c-.039.165-1.408.214-1.342.317a11.378,11.378,0,0,0,2.037.376c.328.1.5.085.586.414.115.436.173.867.3,1.3.089.3.176.6.253.9.028.11.129.807.231.807.31,0,.133-1.014.134-1.183q0-.715.017-1.428c.02-.934.059-1.868.135-2.8a26.2,26.2,0,0,1,.346-2.647h.048a4.05,4.05,0,0,0,3.914-1.658A2.788,2.788,0,0,0,85.5,3.41a5.06,5.06,0,0,0-5.319-1.467C77.841.925,75.817.7,74.164,1.268A4.871,4.871,0,0,0,69.8.168a4.02,4.02,0,0,0-2.489,2.407A2.882,2.882,0,0,0,67.882,5.3,3.549,3.549,0,0,0,71.211,6.48c-.149.447-.278.91-.4,1.358-.2.71-.412,1.41-.679,2.1-.087.226-.109.451-.343.557-.3.137-.658-.045-.971-.027l-.326.017a8.627,8.627,0,0,0-1.864.224,3.046,3.046,0,0,0-.856.372c-.218.143-.6.4-.608.69a.524.524,0,0,0,.164.361.614.614,0,0,0,.563.073,16.069,16.069,0,0,1,3.293-1.045c.232.013.334-.218.527-.293.24-.093.559.044.8.084.743.124,1.488.231,2.232.337,1.354.194,2.755.4,4.1.7a1.281,1.281,0,0,1,.3.026.646.646,0,0,0,.609-.1.246.246,0,0,0,.059-.211.479.479,0,0,0-.246-.3l-.011,0c-1.511-.3-2.955-.556-4.484-.821-.58-.1-1.164-.2-1.755-.308l-.546-.06c.372-.943.611-1.935.9-2.894.122-.407.375-1.651.79-1.8a1.339,1.339,0,0,0,.4-.156c.112-.09.147-.3.019-.363-.57-.295-1.6.565-2.148.7a2.406,2.406,0,0,1-2.752-1.668A2.991,2.991,0,0,1,69.5,1.207c1.558-.9,3.645.088,4.834.871l.019.012.02-.009a5.289,5.289,0,0,1,5.813.9,5.805,5.805,0,0,1,.455.586" transform="translate(-569.034 447)" fill="#1d1d1b"/><g transform="translate(-520.865 477.363)" style="mix-blend-mode:multiply;isolation:isolate"><g clip-path="url(#m)"><path d="M37.341,69.888l1.386-1.964c-.874.244-1.143,1.21-2.113,1.377-1.274.221-2.58.22-3.852.456a13.833,13.833,0,0,0-1.966.493c-.144.049-.287.1-.428.16-.1.042-.289.169-.384.129-.076-.032-.168-.175-.235-.231a2.244,2.244,0,0,0-.8-.434.617.617,0,0,0-.262-.034.264.264,0,0,0-.212.141c-.063.142.05.3.156.413l.32.349a.949.949,0,0,1,.3.53c.008.1-.055.224-.15.2a.193.193,0,0,1-.1-.084c-.089-.121-.1-.283-.189-.4s-.239-.3-.358-.066a.29.29,0,0,0-.022.137.43.43,0,0,0,.03.169.408.408,0,0,1-.027.511c-.1.15-.262.249-.374.392a5.136,5.136,0,0,0-.582.928,4.449,4.449,0,0,0-.27.69c-.007.025-.087.241-.064.262l.447.421a13.486,13.486,0,0,1,1.109-1.992c.964-1.42,1.887-1.656,3.442-1.927a30.175,30.175,0,0,1,5.193-.622" transform="translate(-27.146 -67.924)" fill="#d5d5d5"/></g></g><path d="M15.759,79.413a5.7,5.7,0,0,1,4.028,2.495.53.53,0,0,1-.037.572c-.382-.3-.253-.308-.785-.191a.511.511,0,0,0,.082.545.988.988,0,0,1,.194,1.181c-.228.341-1.548-.117-1.942-.178a17.155,17.155,0,0,0-4.986-.16,2.915,2.915,0,0,1-.662-3.179,1.964,1.964,0,0,1,1.406-1.257,7.816,7.816,0,0,1,2.7.171" transform="translate(-539.339 403.213)" fill="#fff"/><path d="M11.631,83.6l-.151-.13a3.326,3.326,0,0,1-.8-3.64,2.414,2.414,0,0,1,1.741-1.562,8.216,8.216,0,0,1,2.876.171,6.044,6.044,0,0,1,4.323,2.706.918.918,0,0,1-.016.919c-.1.132-.245.147-.358.247-.16.143-.113.334-.073.52a1.256,1.256,0,0,1-.114.888c-.348.519-1.231.3-2.009.1-.153-.039-.283-.073-.367-.086a16.539,16.539,0,0,0-4.858-.159Zm3.174-.976c.63.046,1.3.124,2.016.236a5.707,5.707,0,0,1,1.138.408.854.854,0,0,0,.259.071c.508.029.143-.464.076-.672a1.661,1.661,0,0,1-.084-.676.569.569,0,0,1,.222-.411c.139-.095.321-.175.244-.375-.064-.168-.35-.348-.48-.471a6.451,6.451,0,0,0-3.07-1.617,7.45,7.45,0,0,0-2.546-.167,1.937,1.937,0,0,0-1.219,1.1,2.853,2.853,0,0,0,.557,2.627,14.966,14.966,0,0,1,2.888-.047" transform="translate(-538.794 403.757)" fill="#1d1d1b"/><path d="M31.878,72.922c-.365-.393-.717-1.047-1.279-1.156a.8.8,0,0,0-.352-.015.276.276,0,0,0-.22.247.413.413,0,0,0,.184.279,2.941,2.941,0,0,1,.575.6,2.15,2.15,0,0,1,.3.471c.03.115-.025.3-.2.216a.3.3,0,0,1-.1-.1l-.3-.42a.538.538,0,0,0-.142-.151.173.173,0,0,0-.239.236c.031.068.1.108.152.16.184.186.141.569.141.807a3.535,3.535,0,0,0,.047.633.3.3,0,0,0,.21.186c.113.02.206-.392.306-.456a.482.482,0,0,0,.554-.087,3.239,3.239,0,0,0,.839-1.069,2.12,2.12,0,0,1-.476-.377" transform="translate(-549.604 407.331)" fill="#1d1d1b"/><path d="M22.3,64.322a5.166,5.166,0,0,1,.851-.137,1.623,1.623,0,0,1,.974-.051,3.416,3.416,0,0,0,1.146.24c.162-.011.329-.1.22-.282a2.459,2.459,0,0,0-.843-.738,2.191,2.191,0,0,0-1.1-.3,2.005,2.005,0,0,0-1.081.278c-.3.2-.652.528-.628.927a.152.152,0,0,0,.018.076.113.113,0,0,0,.073.04.516.516,0,0,0,.371-.055" transform="translate(-545.075 412.13)" fill="#1d1d1b"/><path d="M131.224,72.34l.033.063-.039-.059.006,0" transform="translate(-605.562 406.997)" fill="#fff"/><path d="M124.367,70.912l.162.807a1.844,1.844,0,0,0,.223.723.177.177,0,0,0,.326-.088,1.837,1.837,0,0,0-.2-.73l-.3-.768a.105.105,0,0,0-.2.056" transform="translate(-601.771 407.858)" fill="#1d1d1b"/><path d="M125.708,75.007a26.442,26.442,0,0,0,1.434-2.428,1.735,1.735,0,0,1,.769-.906A4.672,4.672,0,0,0,127.2,70.3c-.747-1.433-1.224-3-2.463-4.068a.868.868,0,0,0-1.271.112,1.434,1.434,0,0,0-.374-.036,1.363,1.363,0,0,0-1.261,1.683,57.488,57.488,0,0,0,2.32,7.695c.027.076,1.51-.742,1.553-.677" transform="translate(-600.357 410.501)" fill="#fff"/><path d="M121.428,67.76c-.161-1.177.289-1.362.983-1.577.886-.275,1.412-1.361,2.327.735a27.629,27.629,0,0,1,1.289,2.852c.228.745.137,1.391.88,1.761a.322.322,0,0,0,.463-.188c.408-.974-.648-1.992-1.09-2.835-.631-1.2-1.307-2.225-1.96-3.392-.163-.292-.687-.353-.988-.312a2.067,2.067,0,0,0-1,.437c-.334.231-.708.349-1.039.56-.5.319-.474,1.325-.447,1.881.015.315.535.428.585.079" transform="translate(-599.818 411.171)" fill="#1d1d1b"/><path d="M127.98,80.76a.681.681,0,0,0,0-1.361.681.681,0,0,0,0,1.361" transform="translate(-603.408 403.093)" fill="#1d1d1b"/><path d="M13.907,83.923a.6.6,0,0,0,0-1.19.6.6,0,0,0,0,1.19" transform="translate(-540.372 401.25)" fill="#1d1d1b"/><g transform="translate(-493.007 480.447)" style="mix-blend-mode:multiply;isolation:isolate"><g clip-path="url(#n)"><path d="M104.065,74.828c0-.006-.013-.006-.011,0a12.262,12.262,0,0,1,.438,3.689c-.226,1.179-4.97,3.265-5.843,3.211-1.859-.113-7.627-2.291-9.18-2.856,2.609,1.034,4.9,2.484,7.582,3.446a5.71,5.71,0,0,0,2.046.55,4.731,4.731,0,0,0,1.56-.51c.732-.323,1.308-.649,2.061-1.031.365-.185.836-.442,1.207-.615.275-.128.71-.248.874-.519a2.571,2.571,0,0,1,.558-.614c.058-.049.349-.648.32-.491Z" transform="translate(-89.468 -74.823)" fill="#d5d5d5"/></g></g><path d="M194.649,94.885l0-.46-.157-10.152c-.429-.458-1.213-.141-1.742-.363a.979.979,0,0,1-.391-.467L191.168,75.2a2.47,2.47,0,0,1,0-1.417,3.487,3.487,0,0,0,1.06-3.58,6.563,6.563,0,0,0-5.034-4.653c.245-.348.776-.534.683-.981l-3.407-3.489a.364.364,0,0,0-.419.054l-4.39,4.174V65.5l.86,1.046v.071l-1.637,1.576-2.885.2-6.565,5.965h-.063c-.008.06-.023.176-.039.289.028-.126.016.056.005.225,1.153.076,2.312.16,3.5.229a35.326,35.326,0,0,0,5.234-.006c.465-.043.923-.12,1.379-.207.058-.157.12-.313.193-.47a1.524,1.524,0,0,1,.089-.139l-.633,0,1.373-1.371.132-2.885,1.565-1.4a2.09,2.09,0,0,0,1.318.68,1.37,1.37,0,0,1,.91.573,17.221,17.221,0,0,0,1.411,1.891c.44.538,1.061.936,1.235,1.6a7.3,7.3,0,0,1-.286,2.623c-.232,1.876-.414,6.336-1.19,7.793a1.049,1.049,0,0,1-1.591.27,1.784,1.784,0,0,0-.637.082c-.065.169-.138.336-.219.5l.031,9.827,0,.46ZM178.036,72.11l-2.387,2.21-2.641.008,3.385-3.172c.569-.092,1.13-.217,1.711-.27Z" transform="translate(-626.636 413.251)" fill="#1d1d1b"/><path d="M200.982,66.225c-1.1,1.2-2.39,2.23-3.518,3.387L195.059,67l3.416-3.285h.071Z" transform="translate(-640.865 411.766)" fill="#fff"/><path d="M210.96,76.363a3.052,3.052,0,0,1-.043,2.569,2.056,2.056,0,0,1-2.15.822c-1.936-.36-3.349-2.16-3.978-3.9a2.318,2.318,0,0,1,.553-2.285,2.266,2.266,0,0,1,2.184-.4,5.819,5.819,0,0,1,3.434,3.191" transform="translate(-646.201 406.6)" fill="#fff"/><g transform="translate(-455.984 480.599)" clip-path="url(#o)"><rect width="10.898" height="7.061" fill="url(#p)"/></g><path d="M208.244,90.042l1.261,8.369c.063.407.217.936-.118,1.274-.192.317-.917.013-.732.585l.122.191c.847.059,1.714-.006,2.591.042a.66.66,0,0,1,.419.347l.072.633.079,8.592-9.929.032-.029-9.135a.636.636,0,0,1,.334-.409l2.009-.088.15-.318.986-7.78a27.537,27.537,0,0,1,.622-2.868c.426-.42.979.019,1.468.017a.873.873,0,0,1,.7.515" transform="translate(-644.692 397.603)" fill="#fff"/><path d="M126.835,89.562c-.3,0-.426-.019-.538.311-.141.684-.522,2.157.219,2.7a2.273,2.273,0,0,0,.833.384,23.188,23.188,0,0,0,10.263,17.687l1.349.65h9.57l1.613-.65a22.993,22.993,0,0,0,10.367-17.71c.3-.036.613-.013.834-.257a5.336,5.336,0,0,0,.082-2.864c-.07-.22-.3-.15-.442-.277Z" transform="translate(-602.717 397.487)" fill="#1d1d1b"/><path d="M161.5,91.789c.254.117.2.361.172.592a1.188,1.188,0,0,1-.81.5l-4.643.023a.533.533,0,0,0-.36.313c-.046.221.172.289.275.44l.58.082,3.729.034a26.986,26.986,0,0,1-.777,5.289c-1.25,5.382-4.978,8.7-9.229,11.609l-1.17.756-8.809.122a22.68,22.68,0,0,1-11.15-18.031l.118-.058,4.668-.022a.375.375,0,0,0,.359-.256.387.387,0,0,0-.278-.417l-.81-.082c-1.565-.01-3.243,0-4.772-.08-.291-.152-.164-.487-.118-.73l.141-.082,4.783-.022Z" transform="translate(-604.009 396.254)" fill="#fff"/><g transform="translate(-475.599 488.021)" clip-path="url(#q)"><g transform="translate(19.474 1.237)" style="mix-blend-mode:multiply;isolation:isolate"><g clip-path="url(#r)"><path d="M171.975,94.685c1.767.084,3.534,1.015,5.3,1.1a1.885,1.885,0,0,1,.93.207.649.649,0,0,1,.278.825c-.266.447-1.172.372-1.18.891a2.552,2.552,0,0,1,.968.658.875.875,0,0,1,.049,1.087c-.232.257-.641.295-.872.554-.34.382-.114.969-.02,1.472a5.148,5.148,0,0,1-1.135,3.479c-.508.818-2.916,5.4-3.416,6.221,2.238-.286,3.808.2,6.063.131,1.87-2.747,6.382-10.041,6.855-13.33.489-3.4-1.672-3.5-4.366-3.435a90.062,90.062,0,0,1-9.456.142" transform="translate(-171.975 -94.532)" fill="#d5d5d5"/></g></g></g><path d="M186.844,95.264a.372.372,0,0,1,.083.417.942.942,0,0,1-1,.136.377.377,0,0,1-.164-.414.859.859,0,0,1,.441-.325.724.724,0,0,1,.636.186" transform="translate(-635.723 394.428)" fill="#1d1d1b"/><g transform="translate(-442.585 486.794)" clip-path="url(#s)"><g transform="translate(4.157 10.572)" style="mix-blend-mode:multiply;isolation:isolate"><g clip-path="url(#t)"><path d="M212.037,113.1c-.266.052-.606.314-.419.511l1.822.1a1.2,1.2,0,0,1,.559.123.612.612,0,0,1,.273.638l-.831.129a.513.513,0,0,0-.24.081c-.2.16-.047.5.167.642s.491.241.589.481c.164.4-.319.824-.228,1.248.067.312.433.595.28.874-.053.1-.156.153-.227.238a.832.832,0,0,0-.144.464,19.258,19.258,0,0,0-.088,2.265,8.4,8.4,0,0,0,4.13.355q.3-4.1.405-8.2a.446.446,0,0,0-.1-.363c-.076-.063-.459.2-.558.2a29.526,29.526,0,0,0-5.388.211" transform="translate(-211.564 -112.671)" fill="#d5d5d5"/></g></g><path d="M214.053,112.526c.02.193-.02.409-.224.472a.553.553,0,0,1-.5-.069.491.491,0,0,1-.054-.495.5.5,0,0,1,.547-.1c.093.012.174.124.226.2" transform="translate(-208.331 -101.884)" fill="#1d1d1b"/><g transform="translate(3.905 -0.339)" style="mix-blend-mode:multiply;isolation:isolate"><g clip-path="url(#u)"><path d="M213.9,97.742a45.158,45.158,0,0,1-.618-5.27,3.637,3.637,0,0,0-.822-2.44c-.316-.271-.732-.4-1.058-.66s-.545-.755-.294-1.088c.656.053,1.416-.192,1.911.242a1.744,1.744,0,0,1,.44.843c.613,2.013,1.194,6.906,1.584,8.975a1.713,1.713,0,0,1-.054,1.137.7.7,0,0,1-.512.344c-.338.032-.309-.062-.309-.306a3.869,3.869,0,0,0,.046-.848,5.257,5.257,0,0,0-.315-.928" transform="translate(-211 -88.262)" fill="#d5d5d5"/></g></g></g><path d="M127.21,75.231c-1.2.8-1.446,2.976-3.051,3.518a32.621,32.621,0,0,0-2.134-6.158c-.27-.489-.759-.35-.656.156a19.674,19.674,0,0,0,.939,2.727c.3.855.983,2.153.77,3.088-.168.736.628,1.744,1.355,1.183,1.367-1.056,3.349-2.492,3.311-4.433a.291.291,0,0,0-.036-.156.226.226,0,0,0-.29-.049q-.108.058-.207.124" transform="translate(-600.108 407.026)" fill="#1d1d1b"/><rect width="100.704" height="15.001" transform="translate(-532.198 494.602)" fill="#fff"/><path d="M101.506,120.5H.8v-15h100.7Zm.8-15.8H0V121.3H102.309Z" transform="translate(-533 389.106)" fill="#1d1d1b"/><path d="M23.889,98.938c-.46-1.417-1.759-1.857-3.006-2.212-.072.278-.751-.044-.849-.029a34.776,34.776,0,0,1-6.188.41c-.41,1.3-1.029,2.8.254,3.768l-.168.143a1.457,1.457,0,0,0-.347,1.529c.308.691,1.073.8,1.718.965a1.576,1.576,0,0,1,.471.285,1.8,1.8,0,0,0,1.414.269.684.684,0,0,1,.531.023.87.87,0,0,0,.651.042c.143-.053.283-.108.427-.149a1.672,1.672,0,0,0,1.16,1.223,3.087,3.087,0,0,0,2.019-.842,5.206,5.206,0,0,0,1.912-5.425" transform="translate(-540.372 393.528)" fill="#1d1d1b"/><path d="M23.656,98.135c-1.08-.707-3.241-.8-4.154-1.379a35.877,35.877,0,0,1-3.6-.057,3.3,3.3,0,0,0-.5,2.385c.481.963,1.527,1.133,2.43,1.383a.333.333,0,0,1,.228.41c-.54.518-1.479.18-2.056.684-.157.2-.409.482-.287.757s.4.35.636.435a3.263,3.263,0,0,0,3.149-1.385c.423-.682-.143-1.331-.287-1.97.059-.084.084-.253.228-.253.121-.109.24.049.29.143a3.5,3.5,0,0,1,.432,1.7,3.62,3.62,0,0,1-2.189,2.224c-.035.07.049.094.085.142,1.227.147,2.189-.924,2.742-1.874.337-.637-.023-1.286-.036-1.937.074-.107.18-.253.349-.192.288.181.24.6.409.889.264,1.072-.434,1.9-1.1,2.659a.185.185,0,0,0,.085.2c.578.05.937-.385,1.36-.721a2.087,2.087,0,0,0,.6-1.972c-.131-.445-.888-.891-.409-1.347a.241.241,0,0,1,.289-.037,2.552,2.552,0,0,1,.842,1.913,3.94,3.94,0,0,1-2.309,2.765.71.71,0,0,0,.639.289,5.034,5.034,0,0,0,2.453-2.536,3.156,3.156,0,0,0-.325-3.32" transform="translate(-541.473 393.527)" fill="#fbcabd"/><path d="M23.556,101.336a.43.43,0,0,1-.168.314c-.169.061-.2-.146-.265-.23a.261.261,0,0,1,.181-.229.213.213,0,0,1,.252.145" transform="translate(-545.787 391.047)" fill="#1d1d1b"/><path d="M66.687,65.516a2.672,2.672,0,0,1-.479.456A5.874,5.874,0,0,1,64.8,66.6a21.63,21.63,0,0,1-6.341.941c-.886.017-1.768-.079-2.655-.013a3.441,3.441,0,0,0-1.339.284c-.276.146-.676.609-.359.918.035-.311.916-.675,1.257-.711.7-.072,1.525-.057,2.228-.067,1.253-.017,2.53.111,3.78.01a19.6,19.6,0,0,0,3.99-.96,4.414,4.414,0,0,0,2.757-1.922c.084-.2-.474-.212-.6-.386-.095-.034-.191.046-.256.12-.188.21-.372.466-.572.7" transform="translate(-562.856 411.228)" fill="#1d1d1b"/><g transform="translate(-505.525 474.403)" style="mix-blend-mode:multiply;isolation:isolate"><g clip-path="url(#v)"><path d="M61.564,61.853a.237.237,0,0,1-.1-.151c-.006-.089.081-.153.162-.192a2.737,2.737,0,0,1,1.033-.189,4.456,4.456,0,0,1,1.422.08.619.619,0,0,1,.354.207c.11.156-.114.791-.221.949-.629.924-2-.135-2.651-.705" transform="translate(-61.464 -61.302)" fill="#d5d5d5"/></g></g><g transform="translate(-504.003 475.062)" style="mix-blend-mode:multiply;isolation:isolate"><g clip-path="url(#w)"><path d="M71.761,63.124c-.1-.084-.633.411-.723.322a1.112,1.112,0,0,1-.291-.533,4.254,4.254,0,0,0-1.469-.118,6.146,6.146,0,0,0-2.22.683,12.122,12.122,0,0,0-2.191,2.43c.612.462,2.112.114,2.762-.267a11.392,11.392,0,0,0,1.653-1.155.215.215,0,0,1,.1-.061.237.237,0,0,1,.168.067,1.647,1.647,0,0,0,1.47.255c.231-.073.49-.326.7-.294.284.043.448.189.741.26,0,0,.489-.566.616-.725a4.4,4.4,0,0,1-1.319-.866" transform="translate(-64.867 -62.777)" fill="#d5d5d5"/></g></g><path d="M62.845,58.409c-.591.643,1.861.564,2.239.9a.248.248,0,0,1,.074.093,3.792,3.792,0,0,1-.23.484c-.16.636-.652,1.526-.812,2.161a10.044,10.044,0,0,0,3.376-1.518,1.7,1.7,0,0,0,.461-.375c.079-.1.147-.221.266-.268a.507.507,0,0,1,.25-.012c.349.046.3.215.621.348a4.394,4.394,0,0,0,.747.119.76.76,0,0,0,.755-.706c.031-.38-.527-.736-.823-.977a3.343,3.343,0,0,0-1.022-.5,2.881,2.881,0,0,1-1.3-.987c-.234-.257-.28-.453-.656-.522-.317-.057-.524-.287-.742-.1-.649.546-2.564,1.292-3.2,1.864" transform="translate(-567.702 415.77)" fill="#0082ca"/><path d="M69.855,58.4a14.819,14.819,0,0,1-4.281-2.98l-.021-.021a2.6,2.6,0,0,1-.3.186c-.27.126-.568.189-.839.317a10.592,10.592,0,0,0-1.818,1.043c-.253.188-1.54,1.176-1.079,1.51a.636.636,0,0,0,.222.089,8.447,8.447,0,0,0,1.13.214,5.47,5.47,0,0,1,1.033.065,3.983,3.983,0,0,1-.4,1.021,9.268,9.268,0,0,0-.485,1.046c-.033.1-.257.9-.053.939a4.563,4.563,0,0,0,2.97-.916c.316-.193.6-.432.936-.6.354-.179.51-.549.776-.627.222-.065-.017.181.153.29a1.947,1.947,0,0,0,.789.328,1.782,1.782,0,0,0,1.315-.338.993.993,0,0,0,.38-.5,1.075,1.075,0,0,0-.307-.945,1.424,1.424,0,0,0-.115-.117m-7.45-.408a12.319,12.319,0,0,1,1.712-1.34c.46-.184,1.856-.921,2.074.3a4.213,4.213,0,0,0-1.825,1.283c-.26-.105-1.846-.018-1.961-.24m5.163.333a3.177,3.177,0,0,1-1.789,1.98,7.563,7.563,0,0,1-1.207.513c-.118.021-.544.147-.641.059a.126.126,0,0,1-.032-.052,1.079,1.079,0,0,1,.061-.466,6.726,6.726,0,0,1,.784-1.337,6.082,6.082,0,0,1,2.177-2c.162-.022.364.265.354.388a8.034,8.034,0,0,0-1.86,2,.336.336,0,0,0,.2.291c.2.123.764-.455.879-.569a9.428,9.428,0,0,0,.7-.856.546.546,0,0,1,.35-.226.287.287,0,0,1,.029.278m1.875,1.035a.5.5,0,0,1-.4.326.593.593,0,0,1-.324-.057,1.306,1.306,0,0,1-.329-.23c-.256-.235-.869-.534-.576-.978.12-.182.968-.376,1.073-.148.146.1.172.3.288.435.047.054.108.094.158.146a.5.5,0,0,1,.112.505" transform="translate(-566.962 416.363)"/><path d="M137.068,60.556a.641.641,0,0,1,.232-.251c.111-.015.029.187.018.281a.3.3,0,0,1-.2.168c-.074,0-.081-.1-.053-.2" transform="translate(-608.788 413.652)" fill="#1d1d1b"/><g transform="translate(-506.763 486.092)" style="mix-blend-mode:multiply;isolation:isolate"><g clip-path="url(#x)"><path d="M60.055,88.461c-.007.005-.009.012-.016.017a.561.561,0,0,1-.626-.012.983.983,0,0,1-.086-.105.669.669,0,0,1-.137-.11,1.033,1.033,0,0,1-.142-.8,1.19,1.19,0,0,0-.353.764.9.9,0,0,0,.32.626,1,1,0,0,0,1.006.128.971.971,0,0,0,.54-.7.373.373,0,0,0,0-.045,1.232,1.232,0,0,1-.508.231" transform="translate(-58.694 -87.452)" fill="#d5d5d5"/></g></g><g transform="translate(-507.144 481.701)" style="mix-blend-mode:multiply;isolation:isolate"><g clip-path="url(#y)"><path d="M58.509,78.6a.893.893,0,0,1-.363-.974.8.8,0,0,0-.3.649,1.037,1.037,0,0,0,.4.665,1.255,1.255,0,0,0,1.137.194.871.871,0,0,0,.564-.683.428.428,0,0,0-.014-.159,1.055,1.055,0,0,1-1.418.308" transform="translate(-57.841 -77.629)" fill="#d5d5d5"/></g></g><g transform="translate(-506.41 490.532)" style="mix-blend-mode:multiply;isolation:isolate"><g clip-path="url(#z)"><path d="M61.119,98.561a.6.6,0,0,1-.1.028l0,0a.684.684,0,0,1-.7-.051,1.045,1.045,0,0,1-.194-.251,2.085,2.085,0,0,1-.312-.907,1.2,1.2,0,0,0-.316.856,1.035,1.035,0,0,0,.4.665,1.255,1.255,0,0,0,1.137.194.87.87,0,0,0,.564-.683.442.442,0,0,0-.021-.182,1.464,1.464,0,0,1-.445.328" transform="translate(-59.485 -97.384)" fill="#d5d5d5"/></g></g><path d="M60.061,86.917c-.18.112-.59-.048-.624.318a.617.617,0,0,0,.2.493.562.562,0,0,0,.626.013c.278-.188-.08-.65.359-.65a.5.5,0,0,1,.164.447.97.97,0,0,1-.541.7,1,1,0,0,1-1.006-.129.894.894,0,0,1-.321-.625.906.906,0,0,1,.491-.775.715.715,0,0,1,.415-.085c.131.02.322.14.235.3" transform="translate(-565.582 399.104)" fill="#1d1d1b"/><path d="M59.314,76.757c-.2.1-.666-.086-.681.289a.692.692,0,0,0,.257.52.684.684,0,0,0,.7.051c.3-.177-.129-.675.364-.648a.555.555,0,0,1,.211.471.872.872,0,0,1-.564.684,1.254,1.254,0,0,1-1.137-.194,1.036,1.036,0,0,1-.4-.664.807.807,0,0,1,.5-.768.868.868,0,0,1,.461-.058c.12.023.366.168.281.318" transform="translate(-565.11 404.736)" fill="#1d1d1b"/><path d="M60.957,96.993c-.2.1-.666-.086-.681.289a.693.693,0,0,0,.257.52.684.684,0,0,0,.7.051c.3-.177-.129-.675.364-.648a.555.555,0,0,1,.211.471.872.872,0,0,1-.564.684,1.254,1.254,0,0,1-1.137-.194,1.038,1.038,0,0,1-.4-.664.806.806,0,0,1,.5-.768.88.88,0,0,1,.523-.031c.087.089.307.136.219.291" transform="translate(-566.018 393.539)" fill="#1d1d1b"/><path d="M8.394,122.073c.951.073,1.872.148,2.926.148s1.4-.118,1.4-.549c0-.312-.119-.476-.966-.476h-.475c-2.733,0-3.253-.936-3.253-2.986,0-2.748,1.752-2.971,4.189-2.971a30.7,30.7,0,0,1,4.04.326v2.7a25.294,25.294,0,0,0-2.659-.149c-1.455,0-1.588.223-1.588.564,0,.417.207.55.906.55h1.1c1.857,0,2.689.476,2.689,2.407,0,2.837-2.036,3.059-4.428,3.059a33.79,33.79,0,0,1-3.877-.267Z" transform="translate(-537.437 383.274)"/><path d="M33.463,121.82c.832,0,1.159-.565,1.159-1.59,0-1.009-.327-1.589-1.159-1.589-.906,0-1.158.742-1.158,1.589,0,1.025.193,1.59,1.158,1.59m1.04.624h-.03c-.312,1.59-1.04,2.257-2.986,2.257-2.882,0-3.164-2.674-3.164-5.213,0-2.362.728-4.248,3.312-4.248,1.693,0,2.555.728,2.837,1.976h.03v-1.71H38.38v8.928H34.5Z" transform="translate(-548.663 383.274)"/><path d="M52.757,117.852H51.91v-2.777h.847v-1.233c0-2.272,1.025-2.822,3.639-2.822.951,0,1.768.059,2.585.1v2.452a5.981,5.981,0,0,0-.906-.075c-.921,0-1.337.282-1.337,1.084v.491h2.244v2.777H56.738V122.1H52.757Z" transform="translate(-561.706 385.607)"/><rect width="4.53" height="3.09" transform="translate(-501.982 501.558)"/><path d="M82.648,111.1c0-.534.268-.713.832-.713h2.228c.564,0,.817.179.817.713v.445c0,.521-.149.7-.817.7H83.48c-.669,0-.832-.177-.832-.7Zm0,1.827a6.394,6.394,0,0,0,1.916.164h.03a6.1,6.1,0,0,0,1.931-.164v8.824H82.648Z" transform="translate(-578.703 385.957)"/><path d="M93.873,115.506h3.788v2.021h.029a2.578,2.578,0,0,1,2.837-2.288c1.842,0,3.149.654,3.149,2.54v6.655H99.8V119.4c0-.668-.327-.965-.936-.965A.988.988,0,0,0,97.75,119.5v4.932H93.873Z" transform="translate(-584.91 383.274)"/><path d="M117.632,122.073c.951.073,1.872.148,2.927.148s1.4-.118,1.4-.549c0-.312-.118-.476-.965-.476h-.476c-2.733,0-3.254-.936-3.254-2.986,0-2.748,1.754-2.971,4.19-2.971a30.721,30.721,0,0,1,4.041.326v2.7a25.323,25.323,0,0,0-2.659-.149c-1.455,0-1.589.223-1.589.564,0,.417.208.55.906.55h1.1c1.856,0,2.688.476,2.688,2.407,0,2.837-2.034,3.059-4.426,3.059a33.783,33.783,0,0,1-3.877-.267Z" transform="translate(-597.843 383.274)"/><path d="M138.189,116.721H136.9v-1.813a20.949,20.949,0,0,0,3-3.06h2.168v1.782h2.57v3.09h-2.57v2.867c0,.535.224.757,1.055.757a5.961,5.961,0,0,0,1.426-.148l-.1,2.273a15.223,15.223,0,0,1-3.106.356c-2.212,0-3.148-.445-3.148-2.213Z" transform="translate(-608.702 385.149)"/><path d="M160.543,121.82c.832,0,1.158-.565,1.158-1.59,0-1.009-.326-1.589-1.158-1.589-.905,0-1.159.742-1.159,1.589,0,1.025.194,1.59,1.159,1.59m1.04.624h-.029c-.313,1.59-1.04,2.257-2.986,2.257-2.881,0-3.164-2.674-3.164-5.213,0-2.362.729-4.248,3.312-4.248,1.694,0,2.556.728,2.839,1.976h.029v-1.71h3.877v8.928h-3.877Z" transform="translate(-618.936 383.274)"/><path d="M180.221,115.506h3.788v2.021h.03a2.578,2.578,0,0,1,2.837-2.288c1.841,0,3.15.654,3.15,2.54v6.655h-3.877V119.4c0-.668-.327-.965-.936-.965A.988.988,0,0,0,184.1,119.5v4.932h-3.877Z" transform="translate(-632.66 383.274)"/><path d="M204.537,116.721h-1.291v-1.813a21.057,21.057,0,0,0,3-3.06h2.169v1.782h2.57v3.09h-2.57v2.867c0,.535.223.757,1.054.757a5.955,5.955,0,0,0,1.426-.148l-.1,2.273a15.229,15.229,0,0,1-3.1.356c-2.214,0-3.15-.445-3.15-2.213Z" transform="translate(-645.392 385.149)"/><path d="M218.841,111.315a.613.613,0,0,0-.613.646.612.612,0,1,0,.613-.646m0,1.427a.781.781,0,1,1,.78-.781.758.758,0,0,1-.78.781m0-.825c.11,0,.205-.011.205-.136,0-.1-.105-.117-.191-.117h-.174v.253Zm-.16.491h-.145v-.866h.334c.213,0,.322.073.322.249a.224.224,0,0,1-.23.237l.247.38h-.163l-.227-.371h-.137Z" transform="translate(-653.584 385.519)"/></g></svg>