<svg xmlns="http://www.w3.org/2000/svg" xmlns:xlink="http://www.w3.org/1999/xlink" width="150.285" height="24.083" viewBox="0 0 150.285 24.083"><defs><clipPath id="a"><rect width="150.285" height="24.083" fill="none"/></clipPath></defs><g clip-path="url(#a)"><path d="M59.158,25.189V23.32H69.581A2.126,2.126,0,0,0,71.97,21.1c0-1.445-.848-2.177-2.389-2.177h-6.55a3.8,3.8,0,0,1-4.085-3.911c0-2.2,1.445-3.834,4.123-3.834h10v1.869h-10a1.979,1.979,0,0,0-2.177,2.081,1.96,1.96,0,0,0,2.158,2.062h6.531c2.717,0,4.161,1.348,4.161,3.988,0,2.293-1.368,4.007-4.161,4.007Z" transform="translate(-28.375 -5.383)" fill="#fff"/><path d="M102.74,11.183h1.869v14.1H102.74Zm11.6,14.1V18.928H106.42V17.194h7.918V11.183h1.888v14.1Z" transform="translate(-49.456 -5.383)" fill="#fff"/><rect width="1.869" height="14.007" transform="translate(75.304 5.799)" fill="#fff"/><path d="M165.258,25.189V11.182h11.675v1.869h-9.807V25.189Zm3.68-7.764h7.437v1.734h-7.437Z" transform="translate(-79.551 -5.383)" fill="#fff"/><path d="M208.156,25.188V13.051h-5.491V11.182h12.851v1.869h-5.491V25.188Z" transform="translate(-97.557 -5.383)" fill="#fff"/><rect width="1.869" height="14.007" transform="translate(125.683 5.799)" fill="#fff"/><path d="M264.077,13.834V25.028h-1.792V12c0-.713.385-1.156.983-1.156a1.261,1.261,0,0,1,.886.443l10.6,10.847V10.944h1.792v13.12c0,.713-.4,1.136-.944,1.136a1.41,1.41,0,0,1-.964-.481Z" transform="translate(-126.257 -5.222)" fill="#fff"/><path d="M22.038,36.759v3.682A1.337,1.337,0,0,1,20.7,41.778H1.337A1.337,1.337,0,0,1,0,40.441V36.759H2.15v2.869H19.888V36.759Z" transform="translate(0 -17.695)" fill="#5ee8ef"/><path d="M0,5.019V1.337A1.337,1.337,0,0,1,1.337,0H20.7a1.337,1.337,0,0,1,1.337,1.337V5.019h-2.15V2.15H2.15V5.019Z" transform="translate(0 0)" fill="#5ee8ef"/></g></svg>