<svg xmlns="http://www.w3.org/2000/svg" xmlns:xlink="http://www.w3.org/1999/xlink" width="532" height="532" viewBox="0 0 532 532"><defs><linearGradient id="a" x1="-0.001" y1="1.001" x2="0.001" y2="1.001" gradientUnits="objectBoundingBox"><stop offset="0" stop-color="#cba65d"/><stop offset="0.76" stop-color="#cda65f"/><stop offset="1" stop-color="#d1a663"/></linearGradient></defs><path d="M496.7,486.406l.114,1.033-407.7,45.112L89,531.519A38.225,38.225,0,0,0,51.064,497.5a38.651,38.651,0,0,0-4.251.235l-1.033.114L.552,89.12l1.033-.114a38.226,38.226,0,0,0,34.02-37.94,38.666,38.666,0,0,0-.235-4.252l-.114-1.033L443.985.552l.114,1.033a38.223,38.223,0,0,0,37.939,34.02,38.7,38.7,0,0,0,4.253-.235l1.033-.114,45.227,408.729-1.033.114a38.226,38.226,0,0,0-34.021,37.94,38.687,38.687,0,0,0,.236,4.252l.114,1.033-1.033.114-.114-1.033-1.033.114a40.791,40.791,0,0,1-.248-4.481,40.306,40.306,0,0,1,35.872-40.007l.114,1.033-1.033.114-45-406.662,1.033-.114.114,1.033a40.793,40.793,0,0,1-4.482.247A40.3,40.3,0,0,1,442.033,1.814l1.033-.114.114,1.033-406.662,45L36.4,46.7l1.033-.114a40.788,40.788,0,0,1,.247,4.481A40.306,40.306,0,0,1,1.814,91.072L1.7,90.039l1.033-.114,45,406.661L46.7,496.7l-.114-1.033a40.755,40.755,0,0,1,4.48-.247A40.305,40.305,0,0,1,91.071,531.29l-1.033.114-.114-1.033,406.662-45,.114,1.033-1.033.114Z" transform="translate(-0.552 -0.552)" fill="url(#a)"/></svg>