<svg xmlns="http://www.w3.org/2000/svg" width="245" height="245" viewBox="0 0 245 245"><g transform="translate(1194 -760)"><g transform="translate(342.854)"><g transform="translate(-129 -149)"><circle cx="122.5" cy="122.5" r="122.5" transform="translate(-1407.854 909)" fill="#fff"/><path d="M5505.144,1455.225l-43.282-38.954a5.754,5.754,0,0,1,.679-8.062l17.313-15.021a5.753,5.753,0,0,1,8.063.679L5511.6,1427.3l60-58.643a5.752,5.752,0,0,1,8.062.679l15.022,17.313a5.754,5.754,0,0,1-.679,8.063l-80.708,61.189a5.7,5.7,0,0,1-8.147-.679Z" transform="translate(-6813.298 -381.301)" fill="#009e60"/></g></g></g></svg>