<svg xmlns="http://www.w3.org/2000/svg" xmlns:xlink="http://www.w3.org/1999/xlink" width="197.653" height="62.038" viewBox="0 0 197.653 62.038"><defs><clipPath id="a"><path d="M391.027,26.6A116.112,116.112,0,0,0,404.7,30.137c1.361.264,2.709.416,4.007.577a30.684,30.684,0,0,0,3.8.2,42.386,42.386,0,0,0,6.375-.534c.9-.145,1.7-.317,2.408-.465.7-.181,1.3-.326,1.789-.47l1.49-.5-1.544.259c-.5.07-1.111.13-1.816.218-.711.057-1.518.129-2.41.174a60.151,60.151,0,0,1-6.256-.013c-1.176-.064-2.379-.176-3.646-.367s-2.584-.373-3.921-.633c-5.359-.947-10.2-2.094-13.757-2.745-1.774-.336-3.216-.576-4.218-.72l-1.552-.226,5.581,1.713" transform="translate(-385.446 -24.89)" fill="none"/></clipPath><linearGradient id="b" x1="-3.913" y1="3.197" x2="-3.903" y2="3.197" gradientUnits="objectBoundingBox"><stop offset="0" stop-color="#d9a957"/><stop offset="0.085" stop-color="#daad5e"/><stop offset="0.21" stop-color="#e0b871"/><stop offset="0.36" stop-color="#e8ca92"/><stop offset="0.528" stop-color="#f4e4be"/><stop offset="0.646" stop-color="#fef9e3"/><stop offset="1" stop-color="#fef9e3"/></linearGradient><clipPath id="c"><rect width="197.653" height="62.038" fill="none"/></clipPath><clipPath id="d"><path d="M54.272,25.116c-1,.144-2.443.384-4.217.72-3.554.652-8.4,1.8-13.758,2.745-1.338.26-2.654.433-3.921.633s-2.47.3-3.646.367a60.158,60.158,0,0,1-6.257.013c-.892-.045-1.7-.117-2.41-.174-.7-.088-1.319-.147-1.816-.218L16.7,28.944l1.491.5c.486.144,1.088.289,1.788.47.7.149,1.51.321,2.407.465a42.4,42.4,0,0,0,6.375.534,30.7,30.7,0,0,0,3.8-.2c1.3-.161,2.646-.313,4.007-.577A116.143,116.143,0,0,0,50.244,26.6l5.581-1.713-1.553.226" transform="translate(-16.703 -24.89)" fill="none"/></clipPath><linearGradient id="e" x1="-0.171" y1="3.197" x2="-0.161" y2="3.197" xlink:href="#b"/><clipPath id="g"><path d="M262.717,99.141l.757-.1c-.2-1.685.218-3.894-.7-4.96-3.521-4.1-4.878-8.822-5.17-14.033a27.468,27.468,0,0,0,5.111,19.09" transform="translate(-257.435 -80.051)" fill="none"/></clipPath><linearGradient id="h" x1="-7.797" y1="1.526" x2="-7.765" y2="1.526" xlink:href="#b"/><clipPath id="i"><path d="M232.408,84.363a21.981,21.981,0,0,1-4.877,11.72c-.909,1.135-.565,3.273-.794,4.952l.753.125a29.142,29.142,0,0,0,5.474-17.73c-.29.473-.529.692-.555.933" transform="translate(-226.737 -83.43)" fill="none"/></clipPath><linearGradient id="j" x1="-7.419" y1="1.57" x2="-7.386" y2="1.57" xlink:href="#b"/></defs><g transform="translate(152.528 9.849)"><g clip-path="url(#a)"><rect width="38.995" height="18.235" transform="translate(-1.829 0.618) rotate(-18.662)" fill="url(#b)"/></g></g><g clip-path="url(#c)"><path d="M263.744,28.313a12.227,12.227,0,0,0,1.547,3.027,13.117,13.117,0,0,0,2,2.229A14.218,14.218,0,0,0,269.5,35.18l.587.332c.1.057.2.108.3.157l.312.15c.206.106.42.186.632.272l.318.127.323.107a13.452,13.452,0,0,0,2.6.594,16.881,16.881,0,0,0,2.582.139,19.619,19.619,0,0,0,4.91-.754,19.4,19.4,0,0,0,2.27-.8c.369-.147.724-.321,1.079-.488.177-.084.349-.181.522-.27s.346-.18.512-.282l.5-.294c.164-.1.325-.21.486-.315l.241-.158.234-.168.464-.337.444-.358.22-.179.211-.19.418-.379.4-.4c.134-.129.258-.269.381-.409s.248-.276.365-.419c.225-.294.463-.574.662-.882a12.026,12.026,0,0,0,1.068-1.882l.2-.493.1-.245.081-.252.16-.5.12-.51.058-.253c.017-.085.027-.171.041-.256l.075-.509c.015-.17.024-.34.036-.509l.016-.252c0-.084,0-.169,0-.252q0-.251-.009-.5-.024-.248-.047-.493l-.025-.244-.043-.241-.088-.476-.123-.463c-.021-.076-.04-.153-.063-.229l-.078-.222c-.053-.148-.1-.295-.158-.439l-.187-.421c-.032-.069-.061-.139-.094-.207l-.108-.2-.215-.394-.24-.372-.119-.184c-.042-.059-.087-.116-.131-.174l-.261-.342c-.09-.11-.187-.214-.28-.319a8,8,0,0,0-.583-.591,8.21,8.21,0,0,0-2.594-1.619,7.643,7.643,0,0,0-2.594-.523,7.124,7.124,0,0,0-2.184.275c-.08.022-.158.041-.234.065l-.222.081-.421.156c-.262.124-.507.235-.726.354l-.586.358-.184.138a3.022,3.022,0,1,0,1.545-.028c.072-.023.142-.044.215-.069l.394-.091.2-.049c.07-.013.142-.021.214-.032a6.7,6.7,0,0,1,1.915-.053,6.794,6.794,0,0,1,2.155.613,7.071,7.071,0,0,1,2.077,1.488,6.645,6.645,0,0,1,.455.517c.071.092.148.18.217.276l.2.294c.033.049.068.1.1.148l.09.157.182.315.159.332.081.167c.024.057.045.116.068.174l.137.35c.037.12.074.241.111.363l.056.183c.016.062.027.125.042.188l.084.378.053.387.028.195.011.2q.011.2.023.4c0,.133-.007.268-.01.4,0,.067,0,.135-.006.2l-.021.2c-.015.135-.026.272-.044.408l-.077.409c-.013.068-.023.137-.039.205l-.056.2q-.055.2-.111.41-.073.2-.146.4l-.072.2-.089.2-.179.4A12.542,12.542,0,0,1,285.4,32.6c-.148.087-.3.163-.459.241s-.309.159-.468.231c-.319.142-.637.292-.968.417a17.539,17.539,0,0,1-2.036.677,17.781,17.781,0,0,1-4.357.617,14.837,14.837,0,0,1-2.231-.139,11.336,11.336,0,0,1-2.173-.509l-.264-.088-.257-.1c-.171-.07-.345-.135-.508-.22l-.249-.121a2.508,2.508,0,0,1-.249-.131l-.5-.285a12.15,12.15,0,0,1-1.856-1.355,10.965,10.965,0,0,1-1.642-1.825,10.006,10.006,0,0,1-1.272-2.46,11.116,11.116,0,0,1-.6-3.034c-.026-.271-.016-.548-.022-.827s.023-.562.034-.846a13.862,13.862,0,0,1,.258-1.733,14.615,14.615,0,0,1,.492-1.759,15.734,15.734,0,0,1,1.733-3.433c.193-.27.375-.55.588-.811.1-.132.2-.268.312-.4l.332-.386c.108-.132.227-.254.345-.378s.233-.249.358-.374l.779-.749c.132-.124.259-.255.4-.375l.41-.359.412-.362c.138-.121.275-.244.421-.354l.867-.688c.294-.226.6-.431.9-.65s.62-.417.939-.616l.478-.3c.159-.1.329-.184.493-.278l.5-.274c.166-.093.333-.186.507-.264l1.04-.495,1.076-.441c.178-.078.365-.138.55-.2l.556-.194a36.977,36.977,0,0,1,4.655-1.219c.4-.085.807-.148,1.211-.222l.609-.108.615-.094,1.234-.184,1.246-.159c.415-.056.834-.1,1.254-.149l1.26-.14,1.251-.1.627-.052c.209-.016.419-.019.63-.03l1.262-.051c.421-.013.844-.006,1.267-.01.845-.016,1.692.027,2.54.05.424.01.848.049,1.272.071s.849.044,1.272.088c.848.078,1.7.145,2.541.25,1.693.182,3.378.438,5.054.7,1.675.277,3.341.567,4.994.881s3.292.63,4.916.942,3.24.614,4.819.907c3.161.6,6.241,1.218,9.224,1.665,1.49.227,2.959.4,4.394.526s2.841.169,4.2.168a28.927,28.927,0,0,0,7.536-1.031,16.528,16.528,0,0,0,3.129-1.222,8.012,8.012,0,0,0,2.4-1.846,4.8,4.8,0,0,0,.745-1.178,4.525,4.525,0,0,0,.333-1.25c.008-.1.015-.2.023-.305s0-.2,0-.3a3.584,3.584,0,0,0-.048-.577,4.368,4.368,0,0,0-.306-1.026A3.784,3.784,0,0,0,355.175.517,2.186,2.186,0,0,0,353.969,0a1.851,1.851,0,0,0-.8.114,1.338,1.338,0,0,0-.187.084c-.041.021-.06.034-.059.038a1.564,1.564,0,0,0,.262-.068,1.952,1.952,0,0,1,.768-.05,2.09,2.09,0,0,1,1.1.537,3.627,3.627,0,0,1,.938,1.395,4.138,4.138,0,0,1,.25.971,3.279,3.279,0,0,1,.025.536c0,.092,0,.186-.009.279s-.02.188-.03.283a4.189,4.189,0,0,1-.343,1.136,4.423,4.423,0,0,1-.717,1.06,7.626,7.626,0,0,1-2.317,1.671,16.148,16.148,0,0,1-3.056,1.1,28.519,28.519,0,0,1-7.378.822c-1.334-.029-2.71-.106-4.119-.26s-2.852-.358-4.322-.615c-2.941-.506-5.989-1.188-9.152-1.851-1.585-.328-3.176-.656-4.794-1s-3.251-.7-4.9-1.038-3.325-.67-5.011-.981c-1.69-.294-3.392-.585-5.112-.8-.857-.123-1.722-.207-2.586-.3-.431-.052-.867-.074-1.3-.113s-.867-.077-1.3-.1c-.871-.039-1.74-.1-2.612-.1-.436,0-.871-.018-1.307-.012l-1.307.031c-.217.007-.435.007-.653.021l-.651.043-1.3.086-1.279.122c-.425.038-.851.08-1.275.131l-1.272.143-1.267.169-.632.087-.63.1c-.42.071-.839.129-1.256.211a38.676,38.676,0,0,0-4.92,1.212l-.6.2c-.2.067-.4.129-.593.21l-1.167.46-1.135.519c-.19.083-.373.18-.555.278l-.547.29c-.18.1-.366.188-.541.3l-.524.319c-.349.213-.7.418-1.026.655s-.668.452-.987.69l-.942.727c-.159.119-.307.247-.455.374l-.445.38-.442.378c-.146.126-.282.262-.423.391l-.834.782c-.138.134-.274.279-.41.417s-.272.278-.4.426l-.383.435c-.125.146-.241.3-.361.448-.245.295-.458.61-.68.916a17.874,17.874,0,0,0-2.026,3.91,16.838,16.838,0,0,0-.59,2.031,14.032,14.032,0,0,0,.354,7.683" transform="translate(-158.937 0)" fill="#ef1644"/></g><g transform="translate(6.61 9.849)"><g clip-path="url(#d)"><rect width="38.995" height="18.235" transform="translate(-1.829 0.618) rotate(-18.662)" fill="url(#e)"/></g></g><g clip-path="url(#c)"><path d="M92.846,28.313A12.227,12.227,0,0,1,91.3,31.34a13.116,13.116,0,0,1-2,2.229,14.218,14.218,0,0,1-2.212,1.611l-.587.332c-.1.057-.2.108-.3.157l-.312.15c-.206.106-.42.186-.632.272l-.318.127-.323.107a13.452,13.452,0,0,1-2.6.594,16.881,16.881,0,0,1-2.582.139,19.619,19.619,0,0,1-4.91-.754,19.4,19.4,0,0,1-2.27-.8c-.369-.147-.724-.321-1.079-.488-.177-.084-.349-.181-.522-.27s-.346-.18-.512-.282l-.5-.294c-.164-.1-.325-.21-.486-.315l-.241-.158-.234-.168-.464-.337-.444-.358-.22-.179-.211-.19-.418-.379-.4-.4c-.134-.129-.258-.269-.381-.409s-.248-.276-.365-.419c-.225-.294-.463-.574-.662-.882A12.027,12.027,0,0,1,64.048,28.1l-.2-.493-.1-.245-.082-.252-.16-.5-.12-.51-.058-.253c-.017-.085-.027-.171-.041-.256l-.075-.509c-.015-.17-.024-.34-.036-.509l-.016-.252c0-.084,0-.169,0-.252q0-.251.009-.5.024-.248.047-.493l.025-.244.043-.241.088-.476.123-.463c.021-.076.04-.153.063-.229l.078-.222c.053-.148.1-.295.158-.439l.187-.421c.032-.069.061-.139.094-.207l.108-.2.215-.394.24-.372.119-.184c.042-.059.087-.116.131-.174l.261-.342c.09-.11.187-.214.28-.319a7.99,7.99,0,0,1,.583-.591,8.21,8.21,0,0,1,2.594-1.619,7.643,7.643,0,0,1,2.594-.523,7.124,7.124,0,0,1,2.184.275c.08.022.158.041.234.065l.222.081.421.156c.262.124.507.235.726.354l.586.358.184.138a3.022,3.022,0,1,1-1.545-.028L74,16.743l-.393-.091-.2-.049c-.07-.013-.142-.021-.214-.032a6.694,6.694,0,0,0-1.914-.053,6.794,6.794,0,0,0-2.155.613,7.071,7.071,0,0,0-2.077,1.488,6.658,6.658,0,0,0-.455.517c-.071.092-.148.18-.217.276l-.2.294c-.033.049-.068.1-.1.148l-.09.157-.182.315-.159.332-.081.167c-.024.057-.045.116-.068.174l-.137.35q-.055.18-.111.363l-.056.183c-.016.062-.027.125-.042.188l-.084.378-.053.387-.028.195-.011.2q-.011.2-.023.4c0,.133.007.268.01.4,0,.067,0,.135.006.2l.021.2c.015.135.027.272.044.408l.077.409c.013.068.023.137.039.205l.056.2q.055.2.111.41.073.2.146.4l.072.2.089.2.179.4A12.542,12.542,0,0,0,71.186,32.6c.148.087.3.163.459.241s.309.159.468.231c.319.142.637.292.968.417a17.543,17.543,0,0,0,2.036.677,17.781,17.781,0,0,0,4.357.617,14.837,14.837,0,0,0,2.231-.139,11.335,11.335,0,0,0,2.172-.509l.264-.088.257-.1c.171-.07.345-.135.508-.22l.249-.121a2.511,2.511,0,0,0,.249-.131l.5-.285a12.149,12.149,0,0,0,1.856-1.355A10.964,10.964,0,0,0,89.4,30.009a10.006,10.006,0,0,0,1.272-2.46,11.117,11.117,0,0,0,.6-3.034c.026-.271.016-.548.022-.827s-.023-.562-.034-.846a13.862,13.862,0,0,0-.258-1.733,14.619,14.619,0,0,0-.492-1.759,15.734,15.734,0,0,0-1.733-3.433c-.193-.27-.375-.55-.588-.811-.1-.132-.2-.268-.313-.4l-.332-.386c-.108-.132-.227-.254-.345-.378s-.233-.249-.358-.374l-.779-.749c-.132-.124-.259-.255-.4-.375l-.41-.359-.412-.362c-.138-.121-.275-.244-.421-.354l-.867-.688c-.294-.226-.6-.431-.905-.65s-.62-.417-.938-.616l-.478-.3c-.159-.1-.329-.184-.494-.278l-.5-.274c-.166-.093-.333-.186-.507-.264L78.7,7.806l-1.076-.441c-.178-.078-.365-.138-.55-.2l-.556-.194a36.976,36.976,0,0,0-4.655-1.219c-.4-.085-.807-.148-1.211-.222l-.609-.108-.615-.094L68.2,5.139,66.95,4.98c-.416-.056-.834-.1-1.254-.149l-1.26-.14-1.251-.1-.627-.052c-.209-.016-.419-.019-.63-.03l-1.262-.051c-.421-.013-.844-.006-1.267-.01-.845-.016-1.692.027-2.54.05-.424.01-.848.049-1.272.071s-.849.044-1.272.088c-.848.078-1.7.145-2.541.25-1.693.182-3.378.438-5.054.7-1.675.277-3.341.567-4.994.881s-3.292.63-4.916.942-3.24.614-4.819.907c-3.161.6-6.241,1.218-9.224,1.665-1.49.227-2.959.4-4.394.526s-2.841.169-4.2.168A28.927,28.927,0,0,1,6.637,9.66,16.526,16.526,0,0,1,3.508,8.438,8.012,8.012,0,0,1,1.1,6.591,4.8,4.8,0,0,1,.359,5.413a4.525,4.525,0,0,1-.333-1.25c-.008-.1-.015-.2-.023-.305s0-.2,0-.3A3.586,3.586,0,0,1,.052,2.98,4.368,4.368,0,0,1,.358,1.954,3.784,3.784,0,0,1,1.415.517,2.186,2.186,0,0,1,2.621,0a1.851,1.851,0,0,1,.8.114A1.338,1.338,0,0,1,3.605.2c.041.021.06.034.059.038A1.564,1.564,0,0,1,3.4.171a1.952,1.952,0,0,0-.768-.05,2.09,2.09,0,0,0-1.1.537A3.627,3.627,0,0,0,.6,2.053a4.134,4.134,0,0,0-.25.971,3.274,3.274,0,0,0-.025.536c0,.092,0,.186.009.279s.02.188.03.283A4.188,4.188,0,0,0,.7,5.257a4.411,4.411,0,0,0,.717,1.06A7.626,7.626,0,0,0,3.738,7.987a16.148,16.148,0,0,0,3.056,1.1,28.518,28.518,0,0,0,7.378.822c1.334-.029,2.71-.106,4.119-.26s2.852-.358,4.322-.615c2.941-.506,5.989-1.188,9.152-1.851,1.585-.328,3.176-.656,4.794-1s3.251-.7,4.9-1.038,3.325-.67,5.011-.981c1.69-.294,3.392-.585,5.112-.8.857-.123,1.722-.207,2.586-.3.431-.052.867-.074,1.3-.113s.867-.077,1.3-.1c.871-.039,1.74-.1,2.612-.1.436,0,.871-.018,1.307-.012L62,2.774c.217.007.435.007.653.021l.651.043,1.3.086,1.279.122c.425.038.851.08,1.275.131l1.272.143,1.267.169.632.087.63.1c.42.071.839.129,1.256.211A38.676,38.676,0,0,1,77.138,5.1l.6.2c.2.067.4.129.593.21l1.167.46,1.135.519c.19.083.373.18.555.278l.546.29c.18.1.366.188.541.3l.524.319c.349.213.7.418,1.026.655s.668.452.987.69l.942.727c.159.119.307.247.455.374l.445.38.442.378c.146.126.282.262.423.391l.834.782c.138.134.274.279.41.417s.272.278.4.426l.383.435c.125.146.241.3.361.448.245.295.458.61.68.916A17.877,17.877,0,0,1,92.61,18.6a16.843,16.843,0,0,1,.59,2.031,14.032,14.032,0,0,1-.354,7.683" transform="translate(0 0)" fill="#ef1644"/><path d="M245.3,116.586c-.585-1.331-.949-2.12-1.282-2.922a19.293,19.293,0,0,1-.241-14.18c.985-2.9,1.06-6.107,1.9-9.215.476,2.816.942,5.634,1.434,8.448a11.461,11.461,0,0,0,.749,3.485c2.462,4.493-.388,8.424-1.165,12.565-.085.453-.612.824-1.4,1.82" transform="translate(-146.569 -54.548)" fill="#ef1644"/></g><g transform="translate(101.871 31.678)"><g clip-path="url(#g)"><rect width="12.619" height="20.285" transform="translate(-6.402 1.955) rotate(-18.662)" fill="url(#h)"/></g></g><g transform="translate(89.724 33.015)"><g clip-path="url(#i)"><rect width="11.718" height="18.84" transform="matrix(0.947, -0.32, 0.32, 0.947, -5.49, 1.815)" fill="url(#j)"/></g></g></svg>