<?xml version="1.0" encoding="utf-8"?>
<!-- Generator: Adobe Illustrator 24.0.2, SVG Export Plug-In . SVG Version: 6.00 Build 0)  -->
<svg version="1.1" id="Calque_1" xmlns="http://www.w3.org/2000/svg" xmlns:xlink="http://www.w3.org/1999/xlink" x="0px" y="0px"
	 viewBox="0 0 374.3 374.3" style="enable-background:new 0 0 374.3 374.3;" xml:space="preserve">
<style type="text/css">
	.st0{fill:url(#SVGID_1_);}
</style>
<linearGradient id="SVGID_1_" gradientUnits="userSpaceOnUse" x1="-431.6019" y1="1288.9675" x2="-431.5996" y2="1288.9675" gradientTransform="matrix(343.3323 38.1462 38.1466 -343.3363 99000.6641 459178.25)">
	<stop  offset="0" style="stop-color:#CBA65D"/>
	<stop  offset="0.76" style="stop-color:#CDA65F"/>
	<stop  offset="1" style="stop-color:#D1A663"/>
</linearGradient>
<path class="st0" d="M341.2,370.9l0,0.8l-309.1-0.1l0-0.8c0-14.7-11-27-25.6-28.6c-1.1-0.1-2.1-0.2-3.2-0.2l-0.8,0L2.7,32.1l0.8,0
	c14.7,0,27-11,28.6-25.6c0.1-1.1,0.2-2.1,0.2-3.2l0-0.8l309.9,0.1l0,0.8c0,14.7,11,27,25.6,28.6c1.1,0.1,2.1,0.2,3.2,0.2l0.8,0
	l-0.1,309.8l-0.8,0c-14.7,0-27,11-28.6,25.6c-0.1,1.1-0.2,2.1-0.2,3.2l0,0.8l-0.8,0L341.2,370.9l-0.8,0c0-1.1,0.1-2.3,0.2-3.4
	c1.7-15.4,14.7-27,30.2-27l0,0.8l-0.8,0L370.2,33l0.8,0l0,0.8c-1.1,0-2.3-0.1-3.4-0.2c-15.4-1.7-27-14.7-27-30.2l0.8,0l0,0.8
	L33.1,4.1l0-0.8l0.8,0c0,1.1-0.1,2.3-0.2,3.4C32,22,19,33.7,3.5,33.7l0-0.8l0.8,0L4.1,341.2l-0.8,0l0-0.8c1.1,0,2.3,0.1,3.4,0.2
	c15.4,1.7,27,14.7,27,30.2l-0.8,0l0-0.8l308.3,0.1L341.2,370.9l-0.8,0L341.2,370.9z"/>
</svg>
