<svg xmlns="http://www.w3.org/2000/svg" width="245" height="245" viewBox="0 0 245 245"><g transform="translate(851 -760)"><g transform="translate(685.708)"><g transform="translate(-129 -149)"><circle cx="122.5" cy="122.5" r="122.5" transform="translate(-1407.708 909)" fill="#fff"/><g transform="translate(-7996.509 -331.397)"><path d="M6698,1307.4l26-2a4.141,4.141,0,0,1,4.3,4l-4.3,73a4.142,4.142,0,0,1-4.3,4l-17.3-1a4.141,4.141,0,0,1-4.3-4l-4.3-70a4.056,4.056,0,0,1,4.2-4Z" fill="#ffc300"/><path d="M6703.1,1397.4l16.7-1a4.387,4.387,0,0,1,4.5,4v16a4.26,4.26,0,0,1-4.5,4l-16.7-1a4.387,4.387,0,0,1-4.5-4v-14a4.387,4.387,0,0,1,4.5-4Z" fill="#ffc300"/></g></g></g></g></svg>