<svg xmlns="http://www.w3.org/2000/svg" xmlns:xlink="http://www.w3.org/1999/xlink" width="251.025" height="87.319" viewBox="0 0 251.025 87.319"><defs><clipPath id="a"><rect width="251.025" height="87.319" fill="#eed5a4"/></clipPath></defs><g clip-path="url(#a)"><path d="M33.9,58.131q0,8.045-7.553,17.378-.493.677-11.545,12.711,7.982-1.9,11.851-.369a5.021,5.021,0,0,1,3.439,4.974q0,4.729-2.088,4.728a7.145,7.145,0,0,1-2.825-.982A13.389,13.389,0,0,0,19.1,95.4a38.521,38.521,0,0,0-7.921,1.32l-3.746.9a12.026,12.026,0,0,1-2.394.42Q0,98.045,0,94.428q0-2.944,4.237-7.175,3.009-2.758,9.4-8.644Q27.264,65.733,27.264,60.519a3.954,3.954,0,0,0-1.535-3.25,4.329,4.329,0,0,0-2.886-1.1q-3.808,0-7.921,4.789a3.039,3.039,0,0,1-.553.614q-1.228,0-2.149-1.719a6.033,6.033,0,0,1-.8-2.887q0-3.744,3.654-6.877a11.9,11.9,0,0,1,7.891-3.131,9.86,9.86,0,0,1,8.843,4.666A11.782,11.782,0,0,1,33.9,58.131" transform="translate(0 -23.621)" fill="#eed5a4"/><path d="M170.024,49.729a28.942,28.942,0,0,1-8.474,20.509Q154,78.222,146.137,78.221q-6.878,0-7.86-7.062-.43-3.132,4.053-11.421,4.727-8.6,7.86-8.6,1.289,0,1.29.675,0,.615-2.794,5.036t-2.855,6.14q-.124,1.473,2.456,1.473a18.491,18.491,0,0,0,8.413-2.395q5.1-2.7,5.158-5.711.122-3.928-5.527-6.2a26.626,26.626,0,0,0-10.746-1.72,70.84,70.84,0,0,0-16.518,2.333,116.15,116.15,0,0,0-11.483,3.991q-5.158,2.151-6.448,2.15-1.536,0-1.535-1.29,0-2.517,6.447-6.755a56.933,56.933,0,0,1,15.966-7.246A79.264,79.264,0,0,1,153.2,38.246q16.885,0,16.825,11.483M162.717,18.9q-3.868,3.193-11.483,2.579a18.322,18.322,0,0,1-5.588-1.535q-3.562-1.533-3.746-2.886a1.681,1.681,0,0,1,1.413-2.027q2.332-.49,4.605-.921a44.8,44.8,0,0,0,13.018-5.035,4.8,4.8,0,0,1,2.333-.8q2.086,0,2.088,3.255,0,5.158-2.64,7.369" transform="translate(-55.135 -4.165)" fill="#eed5a4"/><path d="M268.944,97.744l-.983,10.193a25.142,25.142,0,0,1-10.347,17.285q-8.75,6.416-22.014,6.417-16.027,0-16.027-3.131,0-3.194,13.08-6.2,21.8-5.036,26.834-9.4a2.244,2.244,0,0,0,.859-1.6q0-1.6-2.088-1.35h-2.026q-7,0-7-6.778a19.681,19.681,0,0,1,2.64-9.343q3.193-5.741,7.615-5.74,3.008,0,6.2,4.053a21.839,21.839,0,0,1,3.255,5.588" transform="translate(-110.457 -44.32)" fill="#eed5a4"/><path d="M367.307,38.026A15.636,15.636,0,0,1,363.991,47a28.052,28.052,0,0,1-7.184,7.074q-7.43,4.982-22.6,8.3.921,2.093,5.711,3.505a23.718,23.718,0,0,0,7,1.231q1.78,0,1.781,2.932a12.167,12.167,0,0,1-1.412,5.619q-1.6,3.055-3.562,3.054-9.7,0-15.29-5.035a13.586,13.586,0,0,1-4.912-9.764,102.31,102.31,0,0,1-12.834,1.167q-1.779,0-1.781-3.009a12.461,12.461,0,0,1,1.5-5.741q1.505-2.916,3.469-2.917,4.912-.368,12.772-1.228,14-14.676,19.1-18.79,6.754-5.4,12.465-5.158a8.678,8.678,0,0,1,7.307,3.813,10.444,10.444,0,0,1,1.781,5.966m-31.439-6.218q-1.106,10.379-4.421,10.562-.861.061-1.228-1.781-.43-3.437-.859-6.939-1.106-6.508-2.641-17.5-.124-1.6-.123-3.132a25.515,25.515,0,0,1,1.658-9.579Q329.542.063,330.525,0q1.779-.06,3.438,6.2a74.734,74.734,0,0,1,2.273,19.1,52.746,52.746,0,0,1-.368,6.509M356.315,42.37q0-3.439-4.1-3.561-3.673-.122-15.977,11.789a59.987,59.987,0,0,0,12.488-3.622q7.59-2.949,7.591-4.606" transform="translate(-155.397 0)" fill="#eed5a4"/><path d="M439.926,74.426a7.978,7.978,0,0,1-1.811,4.974,8.117,8.117,0,0,1-4.207,3.009q-10.684,3.315-28.492,7.982-3.378,10.561-5.281,10.071-1.044-.246-1.044-2.15a44.136,44.136,0,0,1,1.658-7.43,98.576,98.576,0,0,1-23.457,3.132q-1.781,0-1.781-2.992a12.352,12.352,0,0,1,1.5-5.712q1.506-2.9,3.47-2.9a93.4,93.4,0,0,0,14.675-1.416A69.66,69.66,0,0,0,405.6,78.838,133.667,133.667,0,0,1,411.68,66.65q5.772-9.478,11.053-9.479a7.389,7.389,0,0,1,5.956,2.455,26.118,26.118,0,0,1,2.7,5.465,14.152,14.152,0,0,0,3.5,5.342q1.29.309,2.641.615a3.437,3.437,0,0,1,2.394,3.377m-16.272-.553a5.773,5.773,0,0,0-1.535-3.9,4.683,4.683,0,0,0-3.623-1.751q-2.947,0-7.43,9.764,12.587-3.07,12.588-4.114m3.439-39.545a13.933,13.933,0,0,1-1.536,6.018q-1.781,3.869-4.359,3.869a6.446,6.446,0,0,1-4.851-1.9,4.116,4.116,0,0,1-1.412-2.641q0-1.474,1.965-5.1,2.271-4.174,4.176-4.175a7.185,7.185,0,0,1,3.9,1.412q2.119,1.413,2.119,2.518" transform="translate(-188.901 -15.292)" fill="#eed5a4"/></g></svg>