<svg xmlns="http://www.w3.org/2000/svg" xmlns:xlink="http://www.w3.org/1999/xlink" width="230.687" height="82.839" viewBox="0 0 230.687 82.839"><defs><clipPath id="a"><rect width="230.687" height="82.839" fill="#eed5a4"/></clipPath></defs><g clip-path="url(#a)"><path d="M26.1,53.944q0,3.963-9.67,21.03Q6.407,92.568,6.058,97.228,6,97.81,5.825,98.917q-.117.407-.175.408a6.406,6.406,0,0,1-3.2-.583Q0,97.228,0,93.5,0,89.48,4.485,81.266q1.923-3.552,8.505-13.806a10.9,10.9,0,0,1-5.068,1.457q-3.613,0-3.612-2.622,0-.931,1.922-2.388,1.748-1.223,5.884-4.486,8.854-7.4,11.709-7.4,2.272,0,2.272,1.922" transform="translate(0 -27.496)" fill="#eed5a4"/><path d="M151.107,47.6a27.457,27.457,0,0,1-8.039,19.457q-7.165,7.574-14.622,7.573-6.525,0-7.457-6.7-.408-2.971,3.845-10.835,4.485-8.154,7.456-8.156,1.223,0,1.223.641,0,.583-2.65,4.777t-2.709,5.825q-.117,1.4,2.33,1.4a17.548,17.548,0,0,0,7.981-2.272q4.835-2.563,4.894-5.418.116-3.727-5.243-5.883a25.252,25.252,0,0,0-10.195-1.631,67.18,67.18,0,0,0-15.67,2.213,110.065,110.065,0,0,0-10.893,3.786q-4.894,2.04-6.117,2.039-1.457,0-1.456-1.223,0-2.388,6.117-6.408a54.025,54.025,0,0,1,15.146-6.874,75.195,75.195,0,0,1,20.1-3.2q16.019,0,15.961,10.893m-6.932-29.244q-3.67,3.03-10.893,2.446a17.38,17.38,0,0,1-5.3-1.456q-3.379-1.455-3.554-2.738a1.6,1.6,0,0,1,1.34-1.922q2.213-.465,4.369-.874a42.492,42.492,0,0,0,12.35-4.777,4.55,4.55,0,0,1,2.213-.757q1.979,0,1.981,3.088,0,4.894-2.5,6.991" transform="translate(-49.57 -4.376)" fill="#eed5a4"/><path d="M250.594,97.249l-.933,9.67a23.851,23.851,0,0,1-9.815,16.4q-8.3,6.087-20.884,6.088-15.2,0-15.2-2.971,0-3.03,12.409-5.884,20.679-4.777,25.456-8.913a2.13,2.13,0,0,0,.815-1.515q0-1.515-1.98-1.281h-1.922q-6.642,0-6.641-6.43a18.671,18.671,0,0,1,2.5-8.864q3.03-5.445,7.224-5.445,2.853,0,5.884,3.845a20.729,20.729,0,0,1,3.088,5.3" transform="translate(-107.696 -46.567)" fill="#eed5a4"/><path d="M348.493,36.074a14.836,14.836,0,0,1-3.146,8.519,26.618,26.618,0,0,1-6.816,6.711q-7.048,4.726-21.437,7.876.874,1.985,5.418,3.326a22.514,22.514,0,0,0,6.641,1.167q1.689,0,1.689,2.782a11.545,11.545,0,0,1-1.34,5.331q-1.515,2.9-3.379,2.9-9.205,0-14.505-4.776a12.889,12.889,0,0,1-4.66-9.263,97.063,97.063,0,0,1-12.176,1.107q-1.688,0-1.689-2.855a11.824,11.824,0,0,1,1.428-5.447q1.428-2.766,3.291-2.767,4.66-.349,12.117-1.165,13.283-13.923,18.117-17.826,6.408-5.126,11.826-4.894a8.233,8.233,0,0,1,6.932,3.617,9.908,9.908,0,0,1,1.689,5.66m-29.826-5.9q-1.049,9.846-4.194,10.02-.817.059-1.165-1.689-.408-3.261-.815-6.583-1.049-6.174-2.505-16.6-.117-1.513-.116-2.971a24.208,24.208,0,0,1,1.573-9.088Q312.667.06,313.6,0q1.688-.057,3.261,5.884A70.9,70.9,0,0,1,319.017,24a50.045,50.045,0,0,1-.349,6.175m19.4,10.02q0-3.261-3.891-3.378Q330.69,36.7,319.017,48a56.914,56.914,0,0,0,11.848-3.437q7.2-2.8,7.2-4.369" transform="translate(-154.914 0)" fill="#eed5a4"/><path d="M420.8,72.167a7.567,7.567,0,0,1-1.718,4.718,7.7,7.7,0,0,1-3.991,2.855q-10.136,3.146-27.03,7.573-3.2,10.019-5.01,9.554-.991-.233-.991-2.039a41.862,41.862,0,0,1,1.573-7.049,93.516,93.516,0,0,1-22.253,2.971q-1.689,0-1.689-2.839a11.719,11.719,0,0,1,1.427-5.419q1.428-2.752,3.292-2.752A88.553,88.553,0,0,0,378.336,78.4a66.039,66.039,0,0,0,9.9-2.044,126.75,126.75,0,0,1,5.767-11.562q5.476-8.992,10.486-8.993a7.008,7.008,0,0,1,5.65,2.33,24.755,24.755,0,0,1,2.563,5.185,13.428,13.428,0,0,0,3.32,5.069q1.223.292,2.505.583a3.261,3.261,0,0,1,2.271,3.2m-15.437-.525a5.478,5.478,0,0,0-1.456-3.7,4.442,4.442,0,0,0-3.437-1.66q-2.8,0-7.049,9.263,11.941-2.912,11.942-3.9m3.262-37.516a13.222,13.222,0,0,1-1.457,5.709q-1.689,3.67-4.136,3.67a6.113,6.113,0,0,1-4.6-1.806,3.9,3.9,0,0,1-1.34-2.5q0-1.4,1.864-4.835,2.154-3.96,3.962-3.961a6.812,6.812,0,0,1,3.7,1.34q2.01,1.341,2.01,2.388" transform="translate(-190.117 -16.067)" fill="#eed5a4"/></g></svg>