<svg xmlns="http://www.w3.org/2000/svg" xmlns:xlink="http://www.w3.org/1999/xlink" width="249.121" height="87.319" viewBox="0 0 249.121 87.319"><defs><clipPath id="a"><rect width="249.121" height="87.319" fill="#eed5a4"/></clipPath></defs><g transform="translate(0)"><g transform="translate(0)" clip-path="url(#a)"><path d="M33.466,58.194q0,7.246-9.886,13.386,6.2,3.316,6.2,9.579,0,6.387-5.711,11.913-5.834,5.711-12.9,5.71-5.773,0-8.781-3.07A8.141,8.141,0,0,1,0,89.817a6.266,6.266,0,0,1,1.824-4.483,4.355,4.355,0,0,1,3.039-1.719q1.4,0,1.278,1.29v.8q0,1.658,2.272,3.07a6.743,6.743,0,0,0,3.193,1.106q3.622,0,6.816-3.378,3.008-3.254,3.009-6.264,0-4.359-4.421-4.359a8.709,8.709,0,0,0-2.825.706,10.57,10.57,0,0,1-2.21.706,2.468,2.468,0,0,1-1.965-1.106,3.664,3.664,0,0,1-.86-2.272A5.952,5.952,0,0,1,10.5,70.291a6.264,6.264,0,0,1,4.175-2.641,17.224,17.224,0,0,0,6.571-2.333q3.929-2.333,3.93-5.772a2.947,2.947,0,0,0-1.443-2.518,4.991,4.991,0,0,0-2.794-.982,7.164,7.164,0,0,0-3.807,1.29q-1.72,1.1-3.438,2.272a3.452,3.452,0,0,1-1.535.491q-.737,0-1.474-1.443a7.263,7.263,0,0,1-.737-3.347q0-2.886,3.193-5.4a12.914,12.914,0,0,1,8.228-2.7,12.626,12.626,0,0,1,8.812,2.978,10.285,10.285,0,0,1,3.285,8.013" transform="translate(0 -23.745)" fill="#eed5a4"/><path d="M166.193,49.728a28.942,28.942,0,0,1-8.474,20.51q-7.553,7.984-15.412,7.983-6.878,0-7.86-7.062-.43-3.132,4.053-11.421,4.728-8.6,7.86-8.6,1.289,0,1.29.675,0,.615-2.794,5.036T142,62.991q-.124,1.474,2.456,1.474a18.5,18.5,0,0,0,8.413-2.395q5.1-2.7,5.158-5.711.122-3.928-5.527-6.2a26.618,26.618,0,0,0-10.746-1.719,70.813,70.813,0,0,0-16.518,2.333,116.02,116.02,0,0,0-11.483,3.991q-5.158,2.151-6.448,2.149-1.536,0-1.535-1.289,0-2.517,6.447-6.755a56.947,56.947,0,0,1,15.966-7.246,79.262,79.262,0,0,1,21.185-3.377q16.885,0,16.825,11.483M158.886,18.9Q155.018,22.1,147.4,21.481a18.32,18.32,0,0,1-5.588-1.535q-3.562-1.534-3.746-2.886a1.681,1.681,0,0,1,1.413-2.026q2.332-.49,4.605-.921A44.79,44.79,0,0,0,157.1,9.077a4.8,4.8,0,0,1,2.333-.8q2.086,0,2.088,3.255,0,5.158-2.64,7.369" transform="translate(-53.208 -4.165)" fill="#eed5a4"/><path d="M265.113,97.743l-.983,10.193a25.14,25.14,0,0,1-10.347,17.285q-8.75,6.416-22.014,6.417-16.027,0-16.027-3.132,0-3.193,13.08-6.2,21.8-5.035,26.834-9.395a2.245,2.245,0,0,0,.859-1.6q0-1.6-2.088-1.351H252.4q-7,0-7-6.778a19.682,19.682,0,0,1,2.64-9.343q3.193-5.74,7.615-5.739,3.008,0,6.2,4.053a21.847,21.847,0,0,1,3.255,5.588" transform="translate(-108.529 -44.32)" fill="#eed5a4"/><path d="M363.476,38.026A15.639,15.639,0,0,1,360.16,47a28.057,28.057,0,0,1-7.184,7.074q-7.43,4.982-22.6,8.3.921,2.092,5.711,3.505a23.731,23.731,0,0,0,7,1.23q1.78,0,1.781,2.932a12.17,12.17,0,0,1-1.412,5.62q-1.6,3.054-3.562,3.054-9.7,0-15.29-5.035a13.586,13.586,0,0,1-4.912-9.764A102.313,102.313,0,0,1,306.86,65.09q-1.779,0-1.781-3.009a12.464,12.464,0,0,1,1.5-5.741q1.505-2.916,3.469-2.917,4.912-.368,12.772-1.228,14-14.676,19.1-18.79,6.754-5.4,12.466-5.158A8.679,8.679,0,0,1,361.7,32.06a10.444,10.444,0,0,1,1.781,5.966m-31.439-6.217q-1.106,10.379-4.421,10.562-.861.062-1.228-1.781-.43-3.438-.859-6.939-1.106-6.508-2.641-17.5-.124-1.6-.123-3.131a25.518,25.518,0,0,1,1.658-9.58Q325.711.063,326.694,0q1.779-.06,3.438,6.2A74.739,74.739,0,0,1,332.4,25.3a52.763,52.763,0,0,1-.368,6.509M352.484,42.37q0-3.438-4.1-3.561Q344.71,38.687,332.4,50.6a59.994,59.994,0,0,0,12.488-3.623q7.59-2.948,7.591-4.606" transform="translate(-153.47 0)" fill="#eed5a4"/><path d="M436.095,74.426a7.976,7.976,0,0,1-1.811,4.973,8.112,8.112,0,0,1-4.207,3.009q-10.684,3.316-28.492,7.983-3.378,10.56-5.281,10.071-1.044-.246-1.044-2.149a44.123,44.123,0,0,1,1.658-7.43,98.574,98.574,0,0,1-23.457,3.131q-1.781,0-1.781-2.992a12.352,12.352,0,0,1,1.5-5.712q1.506-2.9,3.47-2.9a93.341,93.341,0,0,0,14.675-1.416,69.611,69.611,0,0,0,10.439-2.154,133.6,133.6,0,0,1,6.079-12.188q5.772-9.479,11.053-9.479a7.388,7.388,0,0,1,5.956,2.456,26.093,26.093,0,0,1,2.7,5.465,14.154,14.154,0,0,0,3.5,5.343q1.29.308,2.641.614a3.437,3.437,0,0,1,2.394,3.377m-16.272-.553a5.775,5.775,0,0,0-1.535-3.9,4.682,4.682,0,0,0-3.623-1.75q-2.947,0-7.43,9.764,12.587-3.07,12.588-4.114m3.439-39.545a13.937,13.937,0,0,1-1.536,6.018q-1.781,3.869-4.359,3.869a6.444,6.444,0,0,1-4.851-1.9,4.115,4.115,0,0,1-1.412-2.64q0-1.474,1.965-5.1,2.271-4.174,4.176-4.175a7.18,7.18,0,0,1,3.9,1.412q2.119,1.413,2.119,2.518" transform="translate(-186.974 -15.292)" fill="#eed5a4"/></g></g></svg>