<svg xmlns="http://www.w3.org/2000/svg" xmlns:xlink="http://www.w3.org/1999/xlink" width="249.244" height="87.319" viewBox="0 0 249.244 87.319"><defs><clipPath id="a"><rect width="249.244" height="87.319" fill="#eed5a4"/></clipPath></defs><g transform="translate(0)"><g transform="translate(0)" clip-path="url(#a)"><path d="M33.527,79.085q0,5.1-8.044,5.1-1.535,0-4.605-.245a73.787,73.787,0,0,0-4.114,8.29,36.831,36.831,0,0,0-1.658,6.2q-.308,1.658-1.29,1.658A4.492,4.492,0,0,1,10.5,98.428a5.887,5.887,0,0,1-1.719-4.237,25.029,25.029,0,0,1,2.149-8.965q-2.394-.184-5.894-.614a5.7,5.7,0,0,1-3.5-2.456A7.337,7.337,0,0,1,0,77.735q0-6.57,7.738-13.141,5.649-4.481,13.14-10.377.122-.122,3.684-3.378,1.474-1.289,2.088-1.29,2.027,0,2.027,1.841,0,5.89-8.546,12.884-2.7,2.091-7.24,5.717-3.129,2.766-3.127,4.671T12.1,76.568q4.113,0,7.921-5.035,2.763-4.3,5.527-8.536,2.148-2.947,4.237-2.947a3.151,3.151,0,0,1,1.044,2.579q0,4.361-4.728,11.974a10.236,10.236,0,0,0,1.474.553l.921.184q5.035,1.1,5.035,3.746" transform="translate(0 -24.926)" fill="#eed5a4"/><path d="M166.441,49.728a28.942,28.942,0,0,1-8.474,20.51q-7.553,7.984-15.412,7.983-6.878,0-7.86-7.062-.43-3.132,4.053-11.421,4.727-8.6,7.86-8.6,1.289,0,1.29.675,0,.615-2.794,5.036t-2.855,6.14q-.124,1.474,2.456,1.474a18.5,18.5,0,0,0,8.413-2.395q5.1-2.7,5.158-5.711.122-3.928-5.527-6.2A26.618,26.618,0,0,0,142,48.439a70.813,70.813,0,0,0-16.518,2.333A116.019,116.019,0,0,0,114,54.763q-5.158,2.151-6.448,2.149-1.536,0-1.535-1.289,0-2.517,6.447-6.755a56.947,56.947,0,0,1,15.966-7.246,79.262,79.262,0,0,1,21.185-3.377q16.885,0,16.825,11.483M159.134,18.9q-3.868,3.193-11.483,2.579a18.32,18.32,0,0,1-5.588-1.535q-3.562-1.534-3.746-2.886a1.681,1.681,0,0,1,1.413-2.026q2.332-.49,4.605-.921a44.79,44.79,0,0,0,13.018-5.036,4.8,4.8,0,0,1,2.333-.8q2.086,0,2.088,3.255,0,5.158-2.64,7.369" transform="translate(-53.332 -4.165)" fill="#eed5a4"/><path d="M265.36,97.743l-.983,10.193a25.14,25.14,0,0,1-10.346,17.285q-8.75,6.416-22.014,6.417-16.027,0-16.027-3.132,0-3.193,13.08-6.2,21.8-5.035,26.834-9.395a2.245,2.245,0,0,0,.859-1.6q0-1.6-2.088-1.351h-2.026q-7,0-7-6.778a19.682,19.682,0,0,1,2.64-9.343q3.193-5.74,7.615-5.739,3.008,0,6.2,4.053a21.847,21.847,0,0,1,3.255,5.588" transform="translate(-108.654 -44.32)" fill="#eed5a4"/><path d="M363.724,38.026A15.638,15.638,0,0,1,360.408,47a28.058,28.058,0,0,1-7.184,7.074q-7.43,4.982-22.6,8.3.921,2.092,5.711,3.505a23.731,23.731,0,0,0,7,1.23q1.78,0,1.781,2.932a12.169,12.169,0,0,1-1.412,5.62q-1.6,3.054-3.562,3.054-9.7,0-15.29-5.035a13.586,13.586,0,0,1-4.912-9.764,102.313,102.313,0,0,1-12.834,1.167q-1.779,0-1.781-3.009a12.465,12.465,0,0,1,1.5-5.741q1.505-2.916,3.469-2.917,4.912-.368,12.772-1.228,14-14.676,19.1-18.79,6.754-5.4,12.465-5.158a8.679,8.679,0,0,1,7.307,3.813,10.444,10.444,0,0,1,1.781,5.966m-31.439-6.217q-1.106,10.379-4.421,10.562-.861.062-1.228-1.781-.43-3.438-.859-6.939-1.106-6.508-2.641-17.5-.124-1.6-.123-3.131a25.518,25.518,0,0,1,1.658-9.58Q325.959.063,326.942,0q1.779-.06,3.438,6.2a74.741,74.741,0,0,1,2.273,19.1,52.757,52.757,0,0,1-.368,6.509M352.732,42.37q0-3.438-4.1-3.561-3.673-.122-15.977,11.79a59.992,59.992,0,0,0,12.488-3.623q7.59-2.948,7.591-4.606" transform="translate(-153.595 0)" fill="#eed5a4"/><path d="M436.343,74.426a7.976,7.976,0,0,1-1.811,4.973,8.112,8.112,0,0,1-4.207,3.009q-10.684,3.316-28.492,7.983-3.378,10.56-5.281,10.071-1.044-.246-1.044-2.149a44.123,44.123,0,0,1,1.658-7.43,98.574,98.574,0,0,1-23.457,3.131q-1.781,0-1.781-2.992a12.352,12.352,0,0,1,1.5-5.712q1.506-2.9,3.47-2.9a93.341,93.341,0,0,0,14.675-1.416,69.611,69.611,0,0,0,10.439-2.154A133.6,133.6,0,0,1,408.1,66.65q5.772-9.479,11.053-9.479a7.387,7.387,0,0,1,5.956,2.456,26.1,26.1,0,0,1,2.7,5.465,14.154,14.154,0,0,0,3.5,5.343q1.29.308,2.641.614a3.437,3.437,0,0,1,2.394,3.377m-16.272-.553a5.775,5.775,0,0,0-1.535-3.9,4.682,4.682,0,0,0-3.623-1.75q-2.947,0-7.43,9.764,12.587-3.07,12.588-4.114m3.439-39.545a13.937,13.937,0,0,1-1.536,6.018q-1.781,3.869-4.359,3.869a6.444,6.444,0,0,1-4.851-1.9,4.115,4.115,0,0,1-1.412-2.64q0-1.474,1.965-5.1,2.271-4.174,4.176-4.175a7.181,7.181,0,0,1,3.9,1.412q2.119,1.413,2.119,2.518" transform="translate(-187.099 -15.292)" fill="#eed5a4"/></g></g></svg>